<mxfile host="app.diagrams.net" modified="2024-04-05T13:50:37.737Z" agent="Mozilla/5.0 (Windows NT 10.0; Win64; x64) AppleWebKit/537.36 (KHTML, like Gecko) Chrome/123.0.0.0 Safari/537.36" etag="PuOAAXgdok0v8duGApZr" version="24.0.7" type="github" pages="2">
  <diagram id="C5RBs43oDa-KdzZeNtuy" name="init webgl">
    <mxGraphModel dx="2021" dy="1088" grid="0" gridSize="10" guides="1" tooltips="1" connect="1" arrows="1" fold="1" page="0" pageScale="1" pageWidth="1169" pageHeight="827" math="0" shadow="0">
      <root>
        <mxCell id="WIyWlLk6GJQsqaUBKTNV-0" />
        <mxCell id="WIyWlLk6GJQsqaUBKTNV-1" parent="WIyWlLk6GJQsqaUBKTNV-0" />
        <mxCell id="DJTjRxVEmAC6avky2q_E-19" value="创建WebGL程序" style="swimlane;rounded=0;shadow=0;glass=0;strokeWidth=1;labelBackgroundColor=none;fontFamily=Comic Sans MS;fontStyle=1;sketch=1;curveFitting=1;jiggle=2;" parent="WIyWlLk6GJQsqaUBKTNV-1" vertex="1">
          <mxGeometry x="350" y="40" width="749" height="370" as="geometry">
            <mxRectangle x="461" y="52" width="111" height="23" as="alternateBounds" />
          </mxGeometry>
        </mxCell>
        <mxCell id="DJTjRxVEmAC6avky2q_E-25" value="&lt;span&gt;创建着色器程序（代码片段）&lt;/span&gt;" style="rounded=0;whiteSpace=wrap;html=1;shadow=0;glass=0;strokeWidth=1;fillColor=none;labelBackgroundColor=none;fontFamily=Comic Sans MS;fontStyle=1;sketch=1;curveFitting=1;jiggle=2;" parent="DJTjRxVEmAC6avky2q_E-19" vertex="1">
          <mxGeometry x="36" y="33" width="308" height="57" as="geometry" />
        </mxCell>
        <mxCell id="DJTjRxVEmAC6avky2q_E-26" value="&lt;span&gt;创建着色器容器createShader&lt;/span&gt;" style="rounded=0;whiteSpace=wrap;html=1;labelBackgroundColor=none;fontFamily=Comic Sans MS;fontStyle=1;sketch=1;curveFitting=1;jiggle=2;" parent="DJTjRxVEmAC6avky2q_E-19" vertex="1">
          <mxGeometry x="35" y="115" width="309" height="60" as="geometry" />
        </mxCell>
        <mxCell id="DJTjRxVEmAC6avky2q_E-30" value="将创建的着色器程序添加到着色器容器中&lt;span&gt;shaderSource&lt;/span&gt;" style="rounded=0;whiteSpace=wrap;html=1;labelBackgroundColor=none;fontFamily=Comic Sans MS;fontStyle=1;sketch=1;curveFitting=1;jiggle=2;" parent="DJTjRxVEmAC6avky2q_E-19" vertex="1">
          <mxGeometry x="36" y="204" width="310" height="60" as="geometry" />
        </mxCell>
        <mxCell id="DJTjRxVEmAC6avky2q_E-46" value="" style="edgeStyle=orthogonalEdgeStyle;rounded=0;orthogonalLoop=1;jettySize=auto;html=1;labelBackgroundColor=none;fontColor=default;fontFamily=Comic Sans MS;fontStyle=1;sketch=1;curveFitting=1;jiggle=2;" parent="DJTjRxVEmAC6avky2q_E-19" source="DJTjRxVEmAC6avky2q_E-31" target="DJTjRxVEmAC6avky2q_E-32" edge="1">
          <mxGeometry relative="1" as="geometry" />
        </mxCell>
        <mxCell id="DJTjRxVEmAC6avky2q_E-31" value="编译已添加的后的着色器容器" style="rounded=0;whiteSpace=wrap;html=1;labelBackgroundColor=none;fontFamily=Comic Sans MS;fontStyle=1;sketch=1;curveFitting=1;jiggle=2;" parent="DJTjRxVEmAC6avky2q_E-19" vertex="1">
          <mxGeometry x="36" y="290" width="314" height="60" as="geometry" />
        </mxCell>
        <mxCell id="DJTjRxVEmAC6avky2q_E-32" value="创建WebGL程序createProgram" style="rounded=0;whiteSpace=wrap;html=1;labelBackgroundColor=none;fontFamily=Comic Sans MS;fontStyle=1;sketch=1;curveFitting=1;jiggle=2;" parent="DJTjRxVEmAC6avky2q_E-19" vertex="1">
          <mxGeometry x="389" y="290" width="331" height="60" as="geometry" />
        </mxCell>
        <mxCell id="DJTjRxVEmAC6avky2q_E-36" value="将之前两个shader容器关联到WebGL程序中attachShader" style="rounded=0;whiteSpace=wrap;html=1;labelBackgroundColor=none;fontFamily=Comic Sans MS;fontStyle=1;sketch=1;curveFitting=1;jiggle=2;" parent="DJTjRxVEmAC6avky2q_E-19" vertex="1">
          <mxGeometry x="390" y="200" width="330" height="64" as="geometry" />
        </mxCell>
        <mxCell id="DJTjRxVEmAC6avky2q_E-41" value="" style="endArrow=classic;html=1;rounded=0;exitX=0.5;exitY=1;exitDx=0;exitDy=0;entryX=0.5;entryY=0;entryDx=0;entryDy=0;labelBackgroundColor=none;fontColor=default;fontFamily=Comic Sans MS;fontStyle=1;sketch=1;curveFitting=1;jiggle=2;" parent="DJTjRxVEmAC6avky2q_E-19" source="DJTjRxVEmAC6avky2q_E-25" target="DJTjRxVEmAC6avky2q_E-26" edge="1">
          <mxGeometry width="50" height="50" relative="1" as="geometry">
            <mxPoint x="429" y="170" as="sourcePoint" />
            <mxPoint x="479" y="120" as="targetPoint" />
          </mxGeometry>
        </mxCell>
        <mxCell id="DJTjRxVEmAC6avky2q_E-44" value="" style="endArrow=classic;html=1;rounded=0;exitX=0.5;exitY=1;exitDx=0;exitDy=0;labelBackgroundColor=none;fontColor=default;fontFamily=Comic Sans MS;fontStyle=1;sketch=1;curveFitting=1;jiggle=2;" parent="DJTjRxVEmAC6avky2q_E-19" source="DJTjRxVEmAC6avky2q_E-30" target="DJTjRxVEmAC6avky2q_E-31" edge="1">
          <mxGeometry width="50" height="50" relative="1" as="geometry">
            <mxPoint x="429" y="170" as="sourcePoint" />
            <mxPoint x="479" y="120" as="targetPoint" />
          </mxGeometry>
        </mxCell>
        <mxCell id="DJTjRxVEmAC6avky2q_E-47" value="创建的WebGL程序连接到WebGL上下文对象linkProgram" style="rounded=0;whiteSpace=wrap;html=1;labelBackgroundColor=none;fontFamily=Comic Sans MS;fontStyle=1;sketch=1;curveFitting=1;jiggle=2;" parent="DJTjRxVEmAC6avky2q_E-19" vertex="1">
          <mxGeometry x="389" y="115" width="331" height="60" as="geometry" />
        </mxCell>
        <mxCell id="DJTjRxVEmAC6avky2q_E-49" value="通过useProgram选择启用这个WebGLProgram对象" style="rounded=0;whiteSpace=wrap;html=1;labelBackgroundColor=none;fontFamily=Comic Sans MS;fontStyle=1;sketch=1;curveFitting=1;jiggle=2;" parent="DJTjRxVEmAC6avky2q_E-19" vertex="1">
          <mxGeometry x="390" y="33" width="331" height="57" as="geometry" />
        </mxCell>
        <mxCell id="DJTjRxVEmAC6avky2q_E-51" value="" style="endArrow=classic;html=1;exitX=0.5;exitY=0;exitDx=0;exitDy=0;entryX=0.5;entryY=1;entryDx=0;entryDy=0;rounded=0;labelBackgroundColor=none;fontColor=default;fontFamily=Comic Sans MS;fontStyle=1;sketch=1;curveFitting=1;jiggle=2;" parent="DJTjRxVEmAC6avky2q_E-19" source="DJTjRxVEmAC6avky2q_E-32" target="DJTjRxVEmAC6avky2q_E-36" edge="1">
          <mxGeometry width="50" height="50" relative="1" as="geometry">
            <mxPoint x="529" y="150" as="sourcePoint" />
            <mxPoint x="579" y="100" as="targetPoint" />
          </mxGeometry>
        </mxCell>
        <mxCell id="DJTjRxVEmAC6avky2q_E-52" value="" style="endArrow=classic;html=1;exitX=0.5;exitY=0;exitDx=0;exitDy=0;entryX=0.5;entryY=1;entryDx=0;entryDy=0;rounded=0;labelBackgroundColor=none;fontColor=default;fontFamily=Comic Sans MS;fontStyle=1;sketch=1;curveFitting=1;jiggle=2;" parent="DJTjRxVEmAC6avky2q_E-19" source="DJTjRxVEmAC6avky2q_E-36" target="DJTjRxVEmAC6avky2q_E-47" edge="1">
          <mxGeometry width="50" height="50" relative="1" as="geometry">
            <mxPoint x="529" y="150" as="sourcePoint" />
            <mxPoint x="579" y="100" as="targetPoint" />
          </mxGeometry>
        </mxCell>
        <mxCell id="DJTjRxVEmAC6avky2q_E-53" value="" style="endArrow=classic;html=1;exitX=0.5;exitY=0;exitDx=0;exitDy=0;entryX=0.5;entryY=1;entryDx=0;entryDy=0;rounded=0;labelBackgroundColor=none;fontColor=default;fontFamily=Comic Sans MS;fontStyle=1;sketch=1;curveFitting=1;jiggle=2;" parent="DJTjRxVEmAC6avky2q_E-19" source="DJTjRxVEmAC6avky2q_E-47" target="DJTjRxVEmAC6avky2q_E-49" edge="1">
          <mxGeometry width="50" height="50" relative="1" as="geometry">
            <mxPoint x="529" y="150" as="sourcePoint" />
            <mxPoint x="579" y="100" as="targetPoint" />
          </mxGeometry>
        </mxCell>
        <mxCell id="DJTjRxVEmAC6avky2q_E-42" value="" style="endArrow=classic;html=1;rounded=0;exitX=0.5;exitY=1;exitDx=0;exitDy=0;entryX=0.5;entryY=0;entryDx=0;entryDy=0;labelBackgroundColor=none;fontColor=default;fontFamily=Comic Sans MS;fontStyle=1;sketch=1;curveFitting=1;jiggle=2;" parent="DJTjRxVEmAC6avky2q_E-19" source="DJTjRxVEmAC6avky2q_E-26" target="DJTjRxVEmAC6avky2q_E-30" edge="1">
          <mxGeometry width="50" height="50" relative="1" as="geometry">
            <mxPoint x="450" y="280" as="sourcePoint" />
            <mxPoint x="211" y="310" as="targetPoint" />
          </mxGeometry>
        </mxCell>
        <mxCell id="DJTjRxVEmAC6avky2q_E-27" value="创建WebGL上下文" style="swimlane;rounded=0;labelBackgroundColor=none;fontFamily=Comic Sans MS;fontStyle=1;sketch=1;curveFitting=1;jiggle=2;" parent="WIyWlLk6GJQsqaUBKTNV-1" vertex="1">
          <mxGeometry x="540" y="-184" width="390" height="184" as="geometry" />
        </mxCell>
        <mxCell id="DJTjRxVEmAC6avky2q_E-28" value="&lt;span style=&quot;text-align: left&quot;&gt;document.querySelector(&#39;canvas&#39;);&lt;/span&gt;" style="rounded=0;whiteSpace=wrap;html=1;labelBackgroundColor=none;fontFamily=Comic Sans MS;fontStyle=1;sketch=1;curveFitting=1;jiggle=2;" parent="DJTjRxVEmAC6avky2q_E-27" vertex="1">
          <mxGeometry x="83.5" y="37" width="223" height="43" as="geometry" />
        </mxCell>
        <mxCell id="DJTjRxVEmAC6avky2q_E-29" value="&lt;span style=&quot;text-align: left&quot;&gt;canvas.getContext(&#39;webgl&#39;);&lt;/span&gt;" style="rounded=0;whiteSpace=wrap;html=1;labelBackgroundColor=none;fontFamily=Comic Sans MS;fontStyle=1;sketch=1;curveFitting=1;jiggle=2;" parent="DJTjRxVEmAC6avky2q_E-27" vertex="1">
          <mxGeometry x="81.5" y="106" width="227" height="39" as="geometry" />
        </mxCell>
        <mxCell id="DJTjRxVEmAC6avky2q_E-59" value="" style="endArrow=classic;html=1;exitX=0.5;exitY=1;exitDx=0;exitDy=0;entryX=0.5;entryY=0;entryDx=0;entryDy=0;rounded=0;labelBackgroundColor=none;fontColor=default;fontFamily=Comic Sans MS;fontStyle=1;sketch=1;curveFitting=1;jiggle=2;" parent="DJTjRxVEmAC6avky2q_E-27" source="DJTjRxVEmAC6avky2q_E-28" target="DJTjRxVEmAC6avky2q_E-29" edge="1">
          <mxGeometry width="50" height="50" relative="1" as="geometry">
            <mxPoint x="410" y="370" as="sourcePoint" />
            <mxPoint x="460" y="320" as="targetPoint" />
          </mxGeometry>
        </mxCell>
        <mxCell id="DJTjRxVEmAC6avky2q_E-73" value="将缓存区数据读取到GPU(将缓存对象的数据绑定给顶点着色器的position变量)" style="swimlane;rounded=0;labelBackgroundColor=none;fontFamily=Comic Sans MS;fontStyle=1;sketch=1;curveFitting=1;jiggle=2;" parent="WIyWlLk6GJQsqaUBKTNV-1" vertex="1">
          <mxGeometry x="1154" y="249" width="490" height="330" as="geometry" />
        </mxCell>
        <mxCell id="DJTjRxVEmAC6avky2q_E-86" style="edgeStyle=orthogonalEdgeStyle;orthogonalLoop=1;jettySize=auto;html=1;fontSize=13;labelBackgroundColor=none;fontColor=default;rounded=0;fontFamily=Comic Sans MS;fontStyle=1;sketch=1;curveFitting=1;jiggle=2;" parent="DJTjRxVEmAC6avky2q_E-73" source="DJTjRxVEmAC6avky2q_E-74" target="DJTjRxVEmAC6avky2q_E-75" edge="1">
          <mxGeometry relative="1" as="geometry" />
        </mxCell>
        <mxCell id="DJTjRxVEmAC6avky2q_E-74" value="获取顶点着色器中的attribute变量的地址getAttribLocation" style="whiteSpace=wrap;html=1;rounded=0;labelBackgroundColor=none;fontFamily=Comic Sans MS;fontStyle=1;sketch=1;curveFitting=1;jiggle=2;" parent="DJTjRxVEmAC6avky2q_E-73" vertex="1">
          <mxGeometry x="73" y="60" width="340" height="60" as="geometry" />
        </mxCell>
        <mxCell id="DJTjRxVEmAC6avky2q_E-76" value="激活这个变量enableVertexAttribArray" style="whiteSpace=wrap;html=1;fontSize=13;rounded=0;labelBackgroundColor=none;fontFamily=Comic Sans MS;fontStyle=1;sketch=1;curveFitting=1;jiggle=2;" parent="DJTjRxVEmAC6avky2q_E-73" vertex="1">
          <mxGeometry x="66" y="240" width="358" height="60" as="geometry" />
        </mxCell>
        <mxCell id="DJTjRxVEmAC6avky2q_E-75" value="&lt;span style=&quot;font-size: 13px&quot;&gt;将缓存区对象的值赋给存储attribute变量的js变量&lt;/span&gt;" style="whiteSpace=wrap;html=1;fontSize=17;rounded=0;labelBackgroundColor=none;fontFamily=Comic Sans MS;fontStyle=1;sketch=1;curveFitting=1;jiggle=2;" parent="DJTjRxVEmAC6avky2q_E-73" vertex="1">
          <mxGeometry x="66" y="150" width="354" height="60" as="geometry" />
        </mxCell>
        <mxCell id="DJTjRxVEmAC6avky2q_E-90" value="" style="endArrow=classic;html=1;fontSize=13;exitX=0.5;exitY=1;exitDx=0;exitDy=0;labelBackgroundColor=none;fontColor=default;rounded=0;fontFamily=Comic Sans MS;fontStyle=1;sketch=1;curveFitting=1;jiggle=2;" parent="DJTjRxVEmAC6avky2q_E-73" source="DJTjRxVEmAC6avky2q_E-75" edge="1">
          <mxGeometry width="50" height="50" relative="1" as="geometry">
            <mxPoint x="-64" y="133" as="sourcePoint" />
            <mxPoint x="243" y="240" as="targetPoint" />
          </mxGeometry>
        </mxCell>
        <mxCell id="DJTjRxVEmAC6avky2q_E-77" value="执行着色器程序完成绘制" style="swimlane;fontSize=13;rounded=0;labelBackgroundColor=none;fontFamily=Comic Sans MS;fontStyle=1;sketch=1;curveFitting=1;jiggle=2;" parent="WIyWlLk6GJQsqaUBKTNV-1" vertex="1">
          <mxGeometry x="441" y="437" width="543" height="234" as="geometry" />
        </mxCell>
        <mxCell id="DJTjRxVEmAC6avky2q_E-94" value="" style="edgeStyle=orthogonalEdgeStyle;orthogonalLoop=1;jettySize=auto;html=1;fontSize=13;labelBackgroundColor=none;fontColor=default;rounded=0;fontFamily=Comic Sans MS;fontStyle=1;sketch=1;curveFitting=1;jiggle=2;" parent="DJTjRxVEmAC6avky2q_E-77" source="DJTjRxVEmAC6avky2q_E-79" target="DJTjRxVEmAC6avky2q_E-82" edge="1">
          <mxGeometry relative="1" as="geometry" />
        </mxCell>
        <mxCell id="DJTjRxVEmAC6avky2q_E-79" value="将当前画布内容清除clear" style="whiteSpace=wrap;html=1;fontSize=13;rounded=0;labelBackgroundColor=none;fontFamily=Comic Sans MS;fontStyle=1;sketch=1;curveFitting=1;jiggle=2;" parent="DJTjRxVEmAC6avky2q_E-77" vertex="1">
          <mxGeometry x="156.5" y="45" width="230" height="70" as="geometry" />
        </mxCell>
        <mxCell id="DJTjRxVEmAC6avky2q_E-82" value="绘制drawArrays" style="whiteSpace=wrap;html=1;fontSize=13;rounded=0;labelBackgroundColor=none;fontFamily=Comic Sans MS;fontStyle=1;sketch=1;curveFitting=1;jiggle=2;" parent="DJTjRxVEmAC6avky2q_E-77" vertex="1">
          <mxGeometry x="156.5" y="146" width="230" height="70" as="geometry" />
        </mxCell>
        <mxCell id="DJTjRxVEmAC6avky2q_E-50" value="将数据存入缓存区" style="swimlane;rounded=0;labelBackgroundColor=none;fontFamily=Comic Sans MS;fontStyle=1;sketch=1;curveFitting=1;jiggle=2;" parent="WIyWlLk6GJQsqaUBKTNV-1" vertex="1">
          <mxGeometry x="1181" y="-208" width="463" height="393" as="geometry" />
        </mxCell>
        <mxCell id="DJTjRxVEmAC6avky2q_E-69" style="edgeStyle=orthogonalEdgeStyle;orthogonalLoop=1;jettySize=auto;html=1;entryX=0.5;entryY=0;entryDx=0;entryDy=0;rounded=0;labelBackgroundColor=none;fontColor=default;fontFamily=Comic Sans MS;fontStyle=1;sketch=1;curveFitting=1;jiggle=2;" parent="DJTjRxVEmAC6avky2q_E-50" source="DJTjRxVEmAC6avky2q_E-62" target="DJTjRxVEmAC6avky2q_E-63" edge="1">
          <mxGeometry relative="1" as="geometry" />
        </mxCell>
        <mxCell id="DJTjRxVEmAC6avky2q_E-62" value="定义或导入数据" style="rounded=0;whiteSpace=wrap;html=1;labelBackgroundColor=none;fontFamily=Comic Sans MS;fontStyle=1;sketch=1;curveFitting=1;jiggle=2;" parent="DJTjRxVEmAC6avky2q_E-50" vertex="1">
          <mxGeometry x="90" y="60" width="230" height="50" as="geometry" />
        </mxCell>
        <mxCell id="DJTjRxVEmAC6avky2q_E-70" style="edgeStyle=orthogonalEdgeStyle;orthogonalLoop=1;jettySize=auto;html=1;entryX=0.5;entryY=0;entryDx=0;entryDy=0;rounded=0;labelBackgroundColor=none;fontColor=default;fontFamily=Comic Sans MS;fontStyle=1;sketch=1;curveFitting=1;jiggle=2;" parent="DJTjRxVEmAC6avky2q_E-50" source="DJTjRxVEmAC6avky2q_E-63" target="DJTjRxVEmAC6avky2q_E-64" edge="1">
          <mxGeometry relative="1" as="geometry" />
        </mxCell>
        <mxCell id="DJTjRxVEmAC6avky2q_E-63" value="创建一个缓存对象createBuffer()" style="rounded=0;whiteSpace=wrap;html=1;labelBackgroundColor=none;fontFamily=Comic Sans MS;fontStyle=1;sketch=1;curveFitting=1;jiggle=2;" parent="DJTjRxVEmAC6avky2q_E-50" vertex="1">
          <mxGeometry x="90" y="140" width="230" height="50" as="geometry" />
        </mxCell>
        <mxCell id="DJTjRxVEmAC6avky2q_E-72" style="edgeStyle=orthogonalEdgeStyle;orthogonalLoop=1;jettySize=auto;html=1;exitX=0.5;exitY=1;exitDx=0;exitDy=0;entryX=0.5;entryY=0;entryDx=0;entryDy=0;rounded=0;labelBackgroundColor=none;fontColor=default;fontFamily=Comic Sans MS;fontStyle=1;sketch=1;curveFitting=1;jiggle=2;" parent="DJTjRxVEmAC6avky2q_E-50" source="DJTjRxVEmAC6avky2q_E-64" target="DJTjRxVEmAC6avky2q_E-66" edge="1">
          <mxGeometry relative="1" as="geometry" />
        </mxCell>
        <mxCell id="DJTjRxVEmAC6avky2q_E-64" value="将上一步创建的缓存区对象绑定到webgl&lt;br&gt;系统中已经存在的target上&lt;br&gt;gl.bindBuffer(target,bufferObject)" style="rounded=0;whiteSpace=wrap;html=1;labelBackgroundColor=none;fontFamily=Comic Sans MS;fontStyle=1;sketch=1;curveFitting=1;jiggle=2;" parent="DJTjRxVEmAC6avky2q_E-50" vertex="1">
          <mxGeometry x="90" y="221" width="230" height="46" as="geometry" />
        </mxCell>
        <mxCell id="DJTjRxVEmAC6avky2q_E-66" value="向绑定在target上的缓存区对象中写入数据&lt;br&gt;gl.bufferData(target,data,usage)" style="rounded=0;whiteSpace=wrap;html=1;labelBackgroundColor=none;fontFamily=Comic Sans MS;fontStyle=1;sketch=1;curveFitting=1;jiggle=2;" parent="DJTjRxVEmAC6avky2q_E-50" vertex="1">
          <mxGeometry x="90" y="300" width="230" height="50" as="geometry" />
        </mxCell>
        <mxCell id="DJTjRxVEmAC6avky2q_E-83" style="edgeStyle=orthogonalEdgeStyle;orthogonalLoop=1;jettySize=auto;html=1;entryX=0.5;entryY=0;entryDx=0;entryDy=0;fontSize=13;labelBackgroundColor=none;fontColor=default;rounded=0;fontFamily=Comic Sans MS;fontStyle=1;sketch=1;curveFitting=1;jiggle=2;" parent="WIyWlLk6GJQsqaUBKTNV-1" source="DJTjRxVEmAC6avky2q_E-49" target="DJTjRxVEmAC6avky2q_E-62" edge="1">
          <mxGeometry relative="1" as="geometry">
            <Array as="points">
              <mxPoint x="1141" y="102" />
              <mxPoint x="1141" y="-170" />
              <mxPoint x="1386" y="-170" />
            </Array>
          </mxGeometry>
        </mxCell>
        <mxCell id="DJTjRxVEmAC6avky2q_E-84" style="edgeStyle=orthogonalEdgeStyle;orthogonalLoop=1;jettySize=auto;html=1;entryX=1;entryY=0.5;entryDx=0;entryDy=0;fontSize=13;labelBackgroundColor=none;fontColor=default;rounded=0;fontFamily=Comic Sans MS;fontStyle=1;sketch=1;curveFitting=1;jiggle=2;" parent="WIyWlLk6GJQsqaUBKTNV-1" source="DJTjRxVEmAC6avky2q_E-66" target="DJTjRxVEmAC6avky2q_E-74" edge="1">
          <mxGeometry relative="1" as="geometry">
            <Array as="points">
              <mxPoint x="1386" y="226" />
              <mxPoint x="1730" y="226" />
              <mxPoint x="1730" y="339" />
            </Array>
          </mxGeometry>
        </mxCell>
        <mxCell id="DJTjRxVEmAC6avky2q_E-85" style="edgeStyle=orthogonalEdgeStyle;orthogonalLoop=1;jettySize=auto;html=1;entryX=0;entryY=0.5;entryDx=0;entryDy=0;fontSize=13;labelBackgroundColor=none;fontColor=default;rounded=0;fontFamily=Comic Sans MS;fontStyle=1;sketch=1;curveFitting=1;jiggle=2;" parent="WIyWlLk6GJQsqaUBKTNV-1" source="DJTjRxVEmAC6avky2q_E-29" target="DJTjRxVEmAC6avky2q_E-25" edge="1">
          <mxGeometry relative="1" as="geometry">
            <Array as="points">
              <mxPoint x="735" y="17" />
              <mxPoint x="333" y="17" />
              <mxPoint x="333" y="102" />
            </Array>
          </mxGeometry>
        </mxCell>
        <mxCell id="DJTjRxVEmAC6avky2q_E-93" value="" style="endArrow=classic;html=1;fontSize=13;exitX=0;exitY=0.5;exitDx=0;exitDy=0;entryX=1;entryY=0.5;entryDx=0;entryDy=0;labelBackgroundColor=none;fontColor=default;rounded=0;fontFamily=Comic Sans MS;fontStyle=1;sketch=1;curveFitting=1;jiggle=2;" parent="WIyWlLk6GJQsqaUBKTNV-1" source="DJTjRxVEmAC6avky2q_E-76" target="DJTjRxVEmAC6avky2q_E-79" edge="1">
          <mxGeometry width="50" height="50" relative="1" as="geometry">
            <mxPoint x="900" y="428" as="sourcePoint" />
            <mxPoint x="950" y="378" as="targetPoint" />
          </mxGeometry>
        </mxCell>
        <mxCell id="AyRYUC4_aSlw-x8W0usr-2" value="" style="shape=image;verticalLabelPosition=bottom;labelBackgroundColor=default;verticalAlign=top;aspect=fixed;imageAspect=0;image=data:image/png,iVBORw0KGgoAAAANSUhEUgAABBUAAAFRCAYAAAArcJXaAAAAAXNSR0IArs4c6QAAAARnQU1BAACxjwv8YQUAAAAJcEhZcwAADsMAAA7DAcdvqGQAAAAhdEVYdENyZWF0aW9uIFRpbWUAMjAyNDowNDowNSAyMTozNjoyNCR8SI4AAP94SURBVHhe7H0HYF1HlfYnvaJuWXLvvffe4zhO4lQSQoCQEFgIgdA7P7uwlIWlLUvvJdQ0Qkjv7t2We7fce5Nk9fKa/u87864tJw7YSkzZzCfNm3vnTrtnzpk5Z+7cuRnNBDw8PDw8PDw8PDw8PDw8PDwuEplp38PDw8PDw8PDw8PDw8PDw+Oi4CcVPDw8PDw8PDw8PDw8PDw8WgU/qeDh4eHh4eHh4eHh4eHh4dEq+EkFDw8PDw8PDw8PDw8PDw+PVsFPKnh4eHh4eHh4eHh4eHh4eLQKflLBw8PDw8PDw8PDw8PDw8OjVfCTCh4eHh4eHh4eHh4eHh4eHq2Cn1Tw8PDw8PDw8PDw8PDw8PBoFfykgoeHh4eHh4eHh4eHh4eHR6vgJxU8PDw8PDw8PDw8PDw8PDxaBT+p4OHh4eHh4eHh4eHh4eHh0Sr4SQUPDw8PDw8PDw8PDw8PD49WwU8qeHh4eHh4eHh4eHh4eHh4tAp+UsHDw8PDw8PDw8PDw8PDw6NV8JMKHh4eHh4eHh4eHh4eHh4erYKfVPDw8PDw8PDw8PDw8PDw8GgV/KSCh4eHh4eHh4eHh4eHh4dHq+AnFTw8PDw8PDw8PDw8PDw8PFoFP6ng4eHh4eHh4eHh4eHh4eHRKvhJBQ8PDw8PDw8PDw8PDw8Pj1bBTyp4eHh4eHh4eHh4eHh4eHi0Cn5SwcPDw8PDw8PDw8PDw8PDo1XwkwoeHh4eHh4eHh4eHh4eHh6tgp9U8PDw8PDw8PDw8PDw8PDwaBX8pIKHh4eHh4eHh4eHh4eHh0er4CcVPDw8PDw8PDw8PDw8PDw8WgU/qeDh4eHh4eHh4eHh4eHh4dEq+EkFDw8PDw8PDw8PDw8PDw+PVsFPKnh4eHh4eHh4eHh4eHh4eLQKflLBw8PDw8PDw8PDw8PDw8OjVfCTCh4eHh4eHh4eHh4eHh4eHq2Cn1Tw8PDw8PDw8PDw8PDw8PBoFfykgoeHh4eHh4eHh4eHh4eHR6vgJxU8PDw8PDw8PDw8PDw8PDxaBT+p4OHh4eHh4eHh4eHh4eHh0Sr4SQUPDw8PDw8PDw8PDw8PD49WwU8qeHh4eHh4eHh4eHh4eHh4tAp+UsHDw8PDw8PDw8PDw8PDw6NV8JMKHh4eHh4eHh4eHh4eHh4erYKfVPDw8PDw8PDw8PDw8PDw8GgV/KSCh4eHh4eHh4eHh4eHh4dHq+AnFTw8PDw8PDw8PDw8PDw8PFoFP6ng4eHh4eHh4eHh4eHh4eHRKvhJBQ8PDw8PDw8PDw8PDw8Pj1bBTyp4eHh4eHh4eHh4eHh4eHi0Cn5SwcPDw8PDw8PDw8PDw8PDo1XwkwoeHh4eHh4eHh4eHh4eHh6tgp9U8PDw8PDw8PDw8PDw8PDwaBX8pIKHh4eHh4eHh4eHh4eHh0er4CcVPDw8PDw8PDw8PDw8PDw8WgU/qeDh4eHh4eHh4eHh4eHh4dEq+EkFDw8PDw8PDw8PDw8PDw+PVsFPKnh4eHh4eHh4eHh4eHh4eLQKflLBw8PDw8PDw8PDw8PDw8OjVfCTCh4eHh4eHh4eHh4eHh4eHq2Cn1Tw8PDw8PDw8PDw8PDw8PBoFfykgoeHh4eHh4eHh4eHh4eHR6vgJxU8PDw8PDw8PDw8PDw8PDxaBT+p4OHh4eHh4eHh4eHh4eHh0Sr4SQUPDw8PDw8PDw8PDw8PD49WwU8qeHh4eHh4eHh4eHh4eHh4tAp+UsHDw8PDw8PDw8PDw8PDw6NV8JMKHh4eHh4eHh4eHh4eHh4erYKfVPDw8PDw8PDw8PDw8PDw8GgV/KSCh4eHh4eHh4eHh4eHh4dHq+AnFTw8PDw8PDw8PDw8PDw8PFqFjGYifezxLwE1V0baPx8yeKWZv85viZapMnjQnMFY1vzuyvlSZTDOOSzCcwYEJ+mM0sc6CApRPB64HF2wx4UjoJmRVhDNX0p7XbUwF3LJEFREfoDg/LUu++9Z1muFv1udX55pIJ/yPVoPR9mg7yMtTd50IaB3mr4vOfX4F0fQlq7h0zhPYND30vcscPEwHUK0o++oSuqdozucB57Q//po2X7W1kGAdEP+puXKj18Xh7NUTCMtX+Yb0lctzIW0CkEh8gME5xeTr8/nr+M1ycclaGnDvcx+03X2u83Uay6VyPlJhX8oHBNcONdcHBecYSy6lsdnIeYLmND5LWMYa1qQrqXzSEexWGQdC7PDZmSKSy8Vp3o4kM4pL7KvW0i6MjIzAzH0eK1gfZnr56yTSw/Gfnh8/UIKmTd2XkNQlDRHJ4qmUikX5vG6RKYfwy4NvH74usY/w5jlJxX+oQi61QttgguJe3aKIIh7vlKClQrqhM5eaxkrrWBb0LmTBw68oH8xcTrEXeGvDoyxzzdV4XEhCGjmaEqI7unOwtPy9Q0pDXpvzYmZM3698fPq4MQr6OdIS09TD+LMeCdecExypl/23HHhMDqSYMHiBC9br2/YmCU/+PX8cFEI+h/5hnTfJHhKvn5hfEFeCPgi0A/PguOXX6ngcS6MbeiCmf7gXL7bIsNalEHyHXup685AZjosxfNMnitU88XNzUwnRmOWbkoinYrxbVIgnU8kFFL2hgRdI11TvBnlp6tQW1mJIf26M04mQkyYsrSqkXJ0xx4XjoBmamXRPtMCMtCQSGDd1t1o4oWUGpTtZtcYWwqb0BwcvBoEFZCX7phaDvzB+Znuo0X8i8bfs6zXCn/POist2zoej6NLYRuM6NuDYWSAzMy0fJ1btsfFw3q8dFNJ5tQvVjU0Yu2OvUAognCazslA3jLYZ1oH+dKGVT5BeDpDux4cCy3PeezzoQuOhZbnPL6U+Ug+09EkqwlFSTajIJKJ8UP6IyS50nXJMv80HirIkinc44LQnKLWQZkRFVPsu1btOoDaxiaeM4zElOaSsqsZlLWkETdFp2s6tmYTRPP0sXnBuW+Lf06wbZzYsWVTmYinEijKz8bY/r2tj22mTpmR4jXpMh4XjIDlL4l+GGQuj3m2Wrfx+aQD6F7zfM7NUDygvymD+yEvGkYqlaR6SNlin6v0zexz1dcygP86d+PYpYCfVPiHIuAS+eoeglZ+aZPoXMOuXMtrYiMxCxmvRRwda/hWjhyeDcrZOnYrgj6ZzA3lOna5qPcPWUek/FxJSi+/NgFUVtegprYep6sacLKiCifLK3G6poHGTgrhVAM+9s4bkJ+VxVthyba8LYUQy1A9VJLHhSOgmehvTUaaaslgVVMM3/rlU6iJk77hEONp0GDrNUs5U0xSne3H8Zvn6cSWQQsE4X8FzS0G+gvp8FrGvygwueX1Wpflov7N+2wVXqs6X0gdmZ4p3YRgfRXGD+yMd958JZJUHkLkB70KoaXE4g2P1iNoJyGeYH8WCWHP8TL8+L5ngGhbZNDaTFGgkqahyWmC1fWfl4bJLhD/4OL/5SH5Iv3UrJHmJFJhHsSb0CG3GR9/963ICUspI4k1nqmflWHMczOU0ll4/G1odZXoJTlrYr/4jd8/g6MVjaRvxNogqUkH0ZixQs1UNjKpGPNYuolWVKp9LD1dQH8b7jz+uXGm/VLIYuvFEk3o3SELH7vzZmQkk06uGM1enfW4YFxK/fC10v18PpcgH10/E4UHbFsX0Ixoohafesd16NquEAnKVmYGrS/mL/3w7KRCJsNSDJNvmbzm8JMK/0AESoprAs3Os5WtNfhjfOKaRnzkVhPYgULSjkxmv+5MsFnIdIBmo3Qss0RB1qckm00d1o8mFdSZn0lL18hqVNbVoaoxhsqaBpwoq8Cp8krU1DWjurYJNY1NZFjlx1ThMKtsGaEgmsInb78chVkR43Mri06rFnQclOFxYUg3oQ0eOnMDQAaqYzF8/4HFqIpTGQuFeCV9TbGNNzSI09BkXJuNVE7im4tFUIG01+LUEJzLN7w0wsXgPGUJQXavaVmvFV6hDq95ndmmShrm4NBcV4Ex/Ypwx5yplEEavhQ9quCKxCb+RxPkXxvBKyWStyQ7sEzK0O5Tp/HzvyxCc3Z7ZCYpayRxUkqAdW5JUt3MHiU/F4HVY9fkXtr4wbl8ujPxX4LW5hNEUbDwj67PS/HPlI+CaLFmpDKQ1cyxi8fNVM465MZwz1vnoDCsSTsmlXyRR84odUHWHhcE03GsL8tAI2Xouw8vwdHTKZtUkB4kvSUpXYjXw5rcMV0o/biENFfTCYGvZpSzc98O/7xIt7naMcx2SsQb0LtdJj5wyyy2s9rWPf4yPTid5KVQ8/pmPhcBPS6JfhhknvYsORHECi4H4S3jn4NXCPf5pPFa5JNiIPtTPSTOjtfgQ2+ehq5FeWajhTLCyAyxvWWP8UcypvRqbrHCpdIZ/aTC3wsBQ7SktqTdRka1uuse0r0Dz81iIMgUEn47bpmBDbf0z54Hh2ealL66DdOWmYEdK5iuia6eHVB9YxJlFXU4fqoc5ZVaidCE8vo6VDbUIxbXE4QQeTaMjFDU0kUimm9Wh6TOyfmgElAQSeCTb7sMRVHGs2uKreXZruOT73HhEPXUWo4r2CGQB0Tv6lgTvn//QlTFwhw06AS7lp6cknPN/H8DuhcRoyWC+wuIFCA4f2l8IQh/pfgtw1vifHn9LZyvDucLa4mW9WhZH8kST0IUoGTjaYzuW4y3XzMDqUQC4ZCmFNJPIy7RAPF6gZsg0KqqFPu8JCKZEew+VYGfPLoAyax2yEg6gyepflT9Mfs8N1D/Lbq/rEHT/qtBy7yC/NPe36rOa1afS5WPEJxfTJ6trI9Fk4xprIoilUk/UYdOeQ344FvnoEDLsxVJ4zQ96WUGpfOD2gUj0En0K93jBw8vxJFyKr5hEVFt5mRLMqZJBUduyZnTM5xhxFhp367TBerSq8KFpE+Xe0FQfq9Ur1ebT3B+Ifn8rXr8HfJxl9m7qs/MDCEea8CAThF84JaZiKTO9p+XysD5v4qA7H93/fCvtPVFwefz13Eh+VicdP9IHshK1uJDb56ObkUFSCaaEeZYFqywM11FD6AUl/amHlJfKpHzw+LfC0EDyk87G2fp6ymZ3tXVPgSaQFB4ig2vSSg3m0iWURzN4IuJeEHvzGjVAYNsPiLJsDi5UO+Eahmh7a5LhaiR1kgN8zhel8Dmw+VYuGUvHl2+FQ88vxa//sty/PShRfjDsyV4bs1erCg9ga3Ha3CyMYLGzCJAT+hyitGcVYCMaBbCkSy3TJEMbI51kK9KZKYSdlu6Jbsvq7du4Oyte7QWjoL6dbwgysqYlAvz2C1tcxR3sZxov4LTqheLIwTxz3XiOwf5ehquNPIDF5y7eC7+hTpBvquLrcI5J5zOOkr+pe8r+NO1gL/sXnXdBIe+6hBcU57K28pQHBcexLU46fQvy+e8cdLp0/nq/VCLY5BPd0F1dv7L8uGFV6yPrkvMXFLLUZMITG1hOvd4lRDd2UjWdsY3FsiuLYPKL4fjZIp9HKVOTwB0zAh6tSuTcUMtnJ1raWH6WEZRpuUpn2nNZ9q0765pebArV37IwhVH4e7YpQ985cNwlhNi3ZRGxxnNYfph+qxZcM38lvVRfoF/MfWRH9RH1/5WPqqri+/iML3VI/CD+ihO4OuaOw98d82le3X1eeX7Yqp0XhrHkrxOBYxtzctWeVPcTejSYQSje1wM2F+JdkY2/qQoR0ZSKb4WZq3AttDuJTw2jZfOnq7JZ7uZ02HaV4bkdbWreD5wru9Uv6qMz7bZS3EmnAdufHB5Bq5luJD2XhnpKiui8UeL9OfPJzhS5GBM1XE6MnnXas//lvVzg4m8IH4wJrvx2IUTjHfmPlq4v1c+lEJeV1+qdmXrUqYUQ/prOrnFDqBz3WZL53I+63ucD46K+iXnv2r98Gw7Cun4kjn9pfNxf+66xbd2dr7a/OJ0JHfd53Mx+TBcAsLwYGzTijrXj9IxH0tosqmXZAIEUnfpJIq18/h7IN3vmn/GnQlnI1OJ0rE6gmBiQT9SdPX0zE0qpJCg8Z5CnEnIQSEqR3Q2G0XXSIYqa2pG6cnTWLX3EF7cUIqH563FLx9dgJ/9eR7++OwqPLpwCxat348Ne07hcCVQl1GARFYBmrMLEMopBKJ5zF/vOYY58DNf1kuQEpA03uSAYcytuTGC9dTAovpK4VXsMwOPzsz3eC2RIPkTVHATmRn2jrec3vfWRFQykzyiMJ6/orPr7GrY8Tj/fE5x2MY81pJg5W9Lg9MuONd1l0+Q54W4oNygLqw3z21JHu9JedoxnTpZspqFy3fl0ZEOFo8+Wcx8OxZf6rrlG9BFcdL5Whzn//V8WsTRddbD5cM/yzPl6qXwC62zHZ/Nx9VN+amsNE1Uvl1v6Vh75WsGow0pGjYsTNd1yeNVwgiZ9o26JLc1Ivs70Z0KgCZ5zCmqKQQMYxzXX7/cKX0qg4pd2hdv8PAcp7Zu6Vy44zH7O3ONefDc4rAGVobF0Xk6Dqt0Tj66FviKY/GCfJQ+qI8rRy5If04+dl387nj+7PXz5KO6tbxuZZ2tZ0vn6nPWv6A45i6iPua3jOPcuflIvtKTRtTM7G1+Fi4npgj6giBfxwC65nFRECFJQPV1er1BDz1MBc0Ms++jnGRSRqjHJOmzNRjV6TVSlOVrFUky7Vt6c2rPoL0D53hAcSwfOvl2HriW4enjV3It49hxy3xaOvYHZ+IGxwzX8cvyOSet6uru4xw+JXWcDKXpxZs7Jx/Ft2st06TvPYjzV9ylzMdEh7D2YJhg0wzUXzMzkhaiu3HXXGz9ypmstfCFwPf423ipfpgyPU3uAvVDxWOzmFz9Vd3GXVOeSufKUJuqX3XlBfL413Ukn8/F5mPXTILk848BqRT7U/YT0lBMN1Qkxm0xmFlsnqT9SwOy3/8RtKTZ+ZzQ0n+Z0488F/C3/ixOEJf+WefysGv278LU/AqTby593aClBnauzpnMoxi0LiwftT8ZRTt5hjMjCIeiZK4s1LLnOFJVi82HTmDJ1v14ctEG/O6RefjdX+bj/qeW46HnVuP5pVuweudxHCiLozIWQiwjC6GcfISieYhm5SISzmAHz2FA9TCneqnzT0GbJYWQoIJFX3VT6JlB0GKwbmRgOg0sEgJzAj3H9OljC/RoLaxp3KGB3Qdd0tpIvGO8ZHRmO5CHXAIXbkboeR3VAPM108mO4IxLnzNDXXdlybU8bnmezo9HZ9MH7nzngWtRB1bXNhNSnrwmLpLPS3YrZFFzdkKnvOxPPp2ClafCXCSXr8uP+fL4bBzBSjhz7vJxKYO8z43jris/GSHieJePq5TVT7GVRzofZ4DqMq8w4GxZ8lvko4B0PoojWlh9XGwbHFwKHVuIsnN9g+6RJyrT49VBA7coLd8GfAXS1x+HfvZ5LlztdeZYbSDfWuclLghXGykrO2YZ5zgr4uy5K7LFedoPjoNzyy8dz47TvpWlctLXz/dn1/Sn+HIKC9xLwi4kzsvSBOHp4zN/jGP5Bcfpv5ZpXvJ3Jpbytz+lT+dxxr0krJVxzihgbG2jIR0D6PhLTzImZ1HSxx4XAfFmIDcBfRmmcydtZySNx67P1pNtrRjRZE/gjMfTvvpQ6AGL0tFQDZw759jI62ovtyJF+fE47dTXyrf2JNT85rdwQuBbPi3SnclHPou0qigPXres7CedWvzjjs7mw3sI0XLTPYao7MnYNp2L45Vb8aR1G24FTTpbSxzUU2Ov9DNpjJY+7eyc4bouuPiircvD1ePS5mMrfkyLpZ8+htpGYbwHC1eadPsHmej3fE4IfI+X42x7OKgtzuqHoq+LIY2DnJdO4GRMzuliLZxi/TV9TGHGFgpQeyuOy0v+WRkXFJHH9Hw+rz6fTKXlsdIrgcYuO6BT/6oy9Cdo3GJhZ53BAtP+pYH4518Tjm7OD2gU+OdzQkv/ZY4/TB8o8U75SPvncRbH0jj/rGOjK5xOjWvxGeaUVoYp3ByzUAwyiBkHmQywGXjnh8IcUkIh1HOAOVHXgP0VNSjZdRyPL92EPz67Gr9+dCnufWw5fv/EKjw6byNWbD6G/acSOFYdR3UiglR2MVI5RQhrBUI0l/lnIdUcIm9qSRq7HL06YXVMscz0sK46hRimOssokoGqJ3Q8V2ejyyYYdJqM0Oe2VN3AnUHQJoJomj70uHi0ZOmApJlSRhIh+mE71hJnc1JG+McQc7YkWj7DgzA7T4c5F4SYCtMiji3utjyQZJjyoq9juSA8k3xisbX0lL47c0fKT2euDHfF8j1T9pkQ+xO/mXPT5Ja3K5t5q1z5ik3flkerDMW3MOYgnrVQ5slzW2atP4uj6+l4OmNYyPJx9c5k/c2dycfl5ZZhq6NkKuXD63ryFBybfMhZ/YJjpm0ZxvqdUxbDzIl+cjq2slQHd+zui+mtLKZT41PuGKh/gmWkhe4c2fNoFayPNpqqf3M0Vr8nkptzsSyOYgZ9uJ0Hx+bSx0rbMtzy4DnbWGqbPb2U03F6YvbMOfkhOLfEZ8plWBD3nGPmqb695TWFmUunDfI5Jw4d+dv8C64PXcs4gXtJPhYnqLNoEeT10rxFozNxW8Snb/RvWecgTUv/lfJtUee/GYcugOrjVlKpXNfqAk+dnKWdHXtcONIEO9OmdEZTktgZMlKaqSxrOSQNUTYS/yU01EzMf7kzZZ2ZWJPoOHA6pwuUeYsv/6WOkXXdOED50T9bu7MuCLfM5Z/HWVzmEfypTFcvFx7kI/fyfFpAcipH3nSXNSYE0sS/FvV08Z33Utj9K1667Je5M/n8dVxsPgH9rVo80K24s0wktNKE7WU6rkF+cOxinc8Jge9xLkSXgIoBjZx+KN3Q6YemyyuMPCUdR3qF0210/nJHjnPH4kHFOUe3OetMN0vnE+haimNpeU3pda4xI9B3fD78fRX5WDzlwzRyannTD/VHuZIZGRybftiSQc7gnJPXHOwT2Cv8X0BAvFe6G9GX14zOQZxz4rNj5EUz8IM4wfWWfku0vHYG6QB6bgB1BntQqMqwc/rpbVQMjYzXEEugur4R5ZXVOFVRg4rKBpyua0J5RRVqahkjI4oE4yaUfVgbJ2YiHI6wKJaRZKB4TJMCPEgkOEjr1QjtvcCy9Gf3r2h0Wm4jBcoCVM/0TctjBkynH9VMP6pxembT0ii+7ku5spxkAm3CCXzijlko1EaN6bQBU2tgUS4eFw6S7QzlxUM2WJOe2t33f/+4ENXxKNs6YtdtULf20LMAi61uhx2Qa6eA/tbUyi9oZAtVoFJYAS7YrpzlU3duqpIdOQTpdUQe0JlFkNJggVYvl4eu6h4UQfVRvVRDnuupk/KxsnUHuhepmAzlZa2JsTQutt2L8a/O7VjcrhjuYnC/VjcGnhtHudhzE/I/w1wii+uUJleGS8tyrd5OfuzUaOHoYml5WXnqaZXK0X0rXGW4lnO5B3D1ElSeK1NQOpu91mk6juVj5yyBfigUQqKhEmP6tcE7rrmM1UqYfGtAUtufSejROpCEmlx1EwlsU/aPe06V48cPLQay21kbWBsbneUcv1jC9Jmui9ekNKttrY9M876tgJHRJAlVmEvGY8fhWn6vtnRxFeLa1OWrcnQmY0ulatm4AiQvvMaoKk98ZCmMH4KJKD211bJI8q1lybyVnbwzfMM0VqYzD4J89KsojuPduX6VX5BSKQwikN2DQl1sl487150pMJBBO+Uli6OkPFePoErakk/LT6FKEUBpVVcdu2uC6Ony0bnrV9z9EBZNF13dXR4urYvv2kuKntpeX/fITDWgQ24TPnjbtSikjAV1UarAKaV8jwuD0d7onYEGEu57Dy7EiSpysj5hQ/5KiD/FF2x/9dA2Rljs88FdUXtZjDN8HIDnds3JYBD/fAj4SfxjvJPmCSeJckE+LkTxFX4mP8Y39lII665XOHQnWoEgDd/GKR7a3TCS0lpKHlgVrSQ5yTJhmbnyFVGvTtmKPl5192I1tntXVJdGP7wiHk3XR2GB3Ab9h8Eu2oES8Ffn6QTmBwjO3T27m2h5PY10+EvzsTMenpVL1oY3lYzXoX/7CD70pisQ0f4l6puU2vJwqV1s54sOZ3P1CBDQI93CRutz9UN9/cHph0H7qenVHvKd/pE+ZpzzQ6U4T/GcbpNGOuwMb/3VODxoce7zSeNMHB60OP+r+RjUJ6jNW0YEwol6fPxt09GtMN/2vgu+7KdVW/aguFl6AP8Z7uzclnm+drC+618PojRd4L/M6VLab4GAhNYF8lqwjC7oEk15sERSxDhA8FzvvWiDRL1nlGLnnuKxVhc4A0g+hVXh2rRQmxgmGZ8GfkJfTlCcdCPahkR0Gjw1gXCyrhFbDp/Aku378MSKHbj/qbX49cOLcO8ji/DAs6vw9IpdWLbtKLYfOo2KxkzEowWIZ+UCdKHsPJtUyAzr7U/YRIObJKByJb2TdQix3Ezt3GEKZfqJFePYZ2Yyw4wrpZPXpEwxlwy96yafdda5vTtPGugejSJiQGNCN1AGb8VJeU0yD5FOdQngqOhxKeDaRC3KP7W52sP4UvwsoZZSo9Yh36VT2AZkCud1zVxrz4yktR3jMBE5kx0VOyLrfFwcpdbUl9QkmT5iH+Nl/tnGZgw3A4N1EO+L3+wpvz2RT+ejOIyZ0iZyrEmIgXonVu/76T60wafqGkYUEeapu0plRJBgfD1pzWzWEsyYi6saiz8lc6pRWtEzBU5X9U6uLbNUbF6xCtDZEkxHs1SG2xXZLYZQXEVkHmYQJRBnngnKiFg9wrTalC/CkwjlQTTI0Gd6KD+CZM3oybRS+tTRayLCGXGsO9Ppfo3SRjfRRdfZXiqf1Xdy6+ikPzsSHRgnmPizY1WTaXUtaFPnPF4LiFeMV+m7P0ddo7x4SOekvZRgqcHi/TM+L4svxCFqQZNI8Q75wvJMx9Sv+MF4hY2oz1Zam1JmpEhILPVuueqQlmrj8RRlIzMVoRLO7l9yzH6bkmxprV/XEXlZr8ip1qHmGPPTeKTPuLn8rSaatEhPXGRomTivxZsj7AMirJfSchxjnirRTWyIT3mmPJiGGZEnVZrOKAeU87CyYf6qt/JXjUSvkE14iZ6UFdZLkzQaqSSfGSRYs9VPZfAyk4Q5ZtoGmDq3vkrTeSqHTnRnHPVRGVSQdE09ht0LL1A8jJbqC23FH32Nc/a5Y5N3kzr2L6w185L0mlKmuhK6qlV8LmMXrjqpzDNoeezxquDaLw2eSD60yajCJS/iAdE+MHwUduZPYYwhnwf8ZwSL49qt5Tl/zol/zh8vK4KTPepsrIPJHuNqbAvzup7qGl8ofYryrTra+CMZZLDGUDKfVm2KvyxLQvlbf2KyymjWNyhfSSHZkXwepmxqrDUZYR3Um4iH4ybXrh9h4cxMowfrw4zCzM/xraORytQO7+5GKXvSZ3VGsTrbM1D2KSd2HyafZ1O7PWMYX+OW/HQac8E5fdXR0shv4c4NPxtfvsZUKz2dty6o79NTcN2dgpSF5a9Kp6HD9B2Z73HxMMobYdW/6pie+IS86kjtfP2e9YO/84SLxxVC37hDvvWzvMZiXBy1V8s4LNni8N/4RHF8Pq86H7WLZIsHph8y3Gwz+urH3IhKqE9RpH8A/kXl1kjrDuWTeGoEHVtDWFDaZ6iccNZnR3smjkuruNZkdq6OksThsTW4OmNrJA4eUoTUki4jDgjuVAqMXlfIDGv1AFkjkokYBbm8CdhVVoWSvUfx/Pp9eHDeWvzi4fn43V8W4YFn1uCxuZuxoGQ/tu6vxeGqMKqTbRALd0BmdltEcwoRjuZzFMpi/TS4UNFSmSo46DBYuE2MqN7m6xZ0Jy6WlNuWzipNZ2qmlF6mUbqWjj9nwh0D61j5O2c0SZdhvxzQLJw5G4y2riQ7tkCP1kA0DVotoK/a0ZQW/VlbuPZxnRNB3/ibf+IZxdQGV87XZRndMrITZHJNminMtidjOhne6pPsjHk6HnHLrdjp8di9c+lcuDlOQ0dKD1X1SJg8z/ykkat05qNDm2ygMWATcjJ0JE8J5suCZWxI908km2xiJCSDIBGjGSUFxN21HTHc1Y+Z2k26yS7Jry1VZm10ncLCMimDdPZuKi13mj72dZRMM3zUcYcQSYYQpXOvJLiN+GQuSiFzdCXtEnFbCZSIk3Y06tyyNSfwKimSoQ1N01LAMNXA6CPljr5TNenSBpftVM4/df7h5gSVRE3yKI3C3G3ZpI7l59xZmVOe8m3Ycdd0JCJ4vAZwhBRVxVtGY5Mz0V8n9uPoLhnRYG9x2GYMl0xo/5nAwIiojckHEQsX/9M0sLwiTE/JCQyYpPatYXmSC7JWmOn0yo3KkQmgz+tFU43MP860mpSOOn5XweIJlqlyJTaSrQzypEq0abQw5ZF5N1MmNWlsE4Ny4jkrM4Es1lf11GSJ+Ez8y6zo6KePWZsghHXLZH00AR23vkLGmGijeuiXd0E5Zx3ilB0mtnfEKUcZcck+42ZmIRZnjplROsqPSpBcGX15mJZRTVZEGCT5DVNuZODJiJNxp/q4e1DRolW6T1JZ6kN09zxW/6XJFfVhjGY0T1o/5yaArAcxMrqamwzr2JzyVngarnoerxYkqGhqdDXau2M3me3a0nz9tfQD95JwenbcEnau//PED5zFks//BPlCAmSTBXqqx7A46xGn3NicgsLJU5aHuE48yj9tt65xz716FDH5FqME9yQNTXzkNickNzKeJu9sKOC5rqmfkMQiFSeDxpBty95YrsYhXtdEWpiZJdknJCgLeoBjQxDT6GGWPn+bqVdlrTTnxMuqhJsQVD9DXqdvUq9Lus7yTb+VUz3T9Tnj9Bf4/FN881u4luH21zKdu0Tn+tCzMqVjxdKx0xFUHcHCzuOEwPc4F6KLyCd3hlZGc/Vd+nP0d23gnLNl5Bj3jB+4luHncS3yMae/l+bDipw9D+K8xPl8zoZfbD5q43S4Wtl0xCAPxwIW10W0078rNC7/80MECnw6M35JNXXetntzJjt8OnsKImNIjcbrLZ0Zy/KDPx5LqUjyV76u2+ca2TA8Vcau8+ax5hFS6o3VgIFjJ60nQ/aKQSiEOhpJR6tqsOXYaSzcehCPLNqIXz+6GL/881z84YkVePC5tXhq6TaUlFbgUGUKZQ2ZaEAumrOLkZHbFomsXKQiuTTIsjmQZbFcN3g49U8KnaqvklW3dF3Mc5xjilGagRTsYmog00SE7o150Tfatfwz+pAZGd35dmBpg2Nj1jQd5YyO6TytXDqFnYEOFZQ+Nt+jVRApXWu4Y8G1rXy1X/rcIlmInVu4ztPX9WTTDA1FY7g2VcqPhJCriTAq66nmKK9lMY6e40nJYpunUyoPKSg6kNJtGo+uUVmKyijhcURP//W0kenS6jqdU75MqacRkkErIzNEYyLBshkhmzKkLihGw4rWFQ018jmz1ks+OWikMpWwcmWouHvisT0tUg1pPCiyKsdrVh/xIoPsCRHrZqtv6GwVBVNo3yKrS9ytjnCfkXPpdUfRSBjRTJaZbESSVZMN1KRrkRyWm4ksrSjMbOI9xnkfVOjox3kPSamFZqxIgWM9SSoZfqq7ridYhkwu9TiSaJ25FRhUJlkf2wXY7kBObcYjOR5bG1gV+cN/a1NdcafpH49Xj4CQ8t3xmSd5xvvy023DcPMYz77Kw7axJ+80nuOUgRibVX5CtkKS4TQWdC3JMSJOhU5Or46nZJTwWijZRH5g/um+NMHyEplh4x2VIWNHPBKn4RKjIS4+ymymPInjJI+8JrmMku+bNVnHMUSmtbgtM6Qpszii5DNnGDFUaXgPWhybTx7OFR/HYm5S3G5M/YSMd00AOgNdEwqa0LJPZ7LeGTSCjKs5CGhCJGQyx7RJ0YKlUB4SvE+GsD4ak1U+BSoRYp+RiWzVQ4YUaZdiHeO8FGf/oEkQETdKgkQouxF7dkv6sI7qSzRhoVVPqo97+qqJBt4/+xDJvVY5BM71A3RGbLYd71t/Cd2f9T2kL8NUS036qK5OAZevtg54gmhx6PEqIPZynv04Eju5Cmju2kEt1TL8/I4/zrcGcq5l+Cs7yRUlib5bZSNe12RZkvoS5SoSQVjWvPpqxhf/6Zry15N/zSnmkIUyYuJLjVH65bkVLSljGPPVih0bdRkWp14XZ73ilI24pI8DjPoAfZpby94ytMIooQlEfeGL55QB1zfojDyv1akcI3Oi4ntmSf1TfZSWOmtSUDJ3ZsJMkx1GC1aUzuhqx2kyMX0wgSZ+d/7ZeAGNAnqpzzC/hWsZ7lyLdCpEbRAUlg7jVXcuqFy75sLO/gVnZ2Ke8T3OhegiCqepbHA2jFGWTsdBO7/UKVrgB65l+MvdGT5gzmfDW6azS3YunI1zrvP5vJp8eJC+1tIus7zTCMox93fGv8akQkAs+aKniKhDHYuwpvQoTL/SH6R2acJAA4DFYFxG5nEwm2O76jKy27mXB8zDPUnVwBE0IOOwE4/Y6gN21FT0aqnEnGpIYNfJWiwrPYrHV2zBH59fhT88sRS/engRfvHnxfjLws1Yuf0ESo834ERdBuqas5DKKkA4Nx+h7CwWygGFTp9JUk31ichURoytwQGKRg1SVELFJKpJmlkcI8l3x7pmkwD09WP3Z2eOCjaLpbRGG96X7k1U0XkL53JifEvfAi1P7fhs/nI2OyayyakeOlc0gVHOZEf/TLjHRSMgo3CGpCS68bE5Hcvxgs7VFjyxJ3kMd4azDAGGU9ztqTj5XU9Eaw7tR6zsFA0OGejKXd2BnrsqnRyV8/STGxn0jsV4lcdS6GW0pBJNqK8tQ3VNuaXWjta2lDnd6FrmL5tMT0VkXMdpaWkZcqKhGs2xeubD6zRmdHeaVJCiL6UqXl9JY6zJzu1JEHN3CqBMIylhenLr+NreQ6Bxpic+OZTT7GgmotEMZNGXi2bRp9xFImE6Git6JExZ00QHtUL6jQhHgKryo8hJ1COHdeYtsD504l4aJTmkQ/WpowjJQFK5tqcB62XKnCgm5VEGnNQ6GkIy9GRIGe2cAeNeh5BpJaLolin/VAwtDwaoDU2W3EX+p53qkHbpK3RBmBD4Hq1FQGUh6MnIphaebkQLc+fqk2WQyJcBQSOYvNUmLxf5eXnIy88zP5/nBbkRFOWEUZwTQVseF+bqOIQOuZnm2uZFkZeXRRlwY0GGDBvyjfhBNdJxcyY5WwYELRnJZCSjiTJEY0MlM5qMIL2ekxVJITeLxgSHkAjTZGlioIkGSrxJXx+2ekp+3NNLXtNkXuNpyuJphCmwkmfduZ6dpszsZzyblNMqI6amsGqSJMb0ERo4eeEw8ilb2RSeLJ7naJKS8pUfSSKPcpfNc9Ey+Cyx+qWoxlIaTo0Vh9A2yhISDbwP9TGsIMvIYvwQx79Y3WnmoTZo4v3Hef90Rm/1JZQDDtxuskL5Ojmy1RYtnPoyhWtZufoc281esss7E30VovYTHa0PVV4MdTqC/lgec3mpEwLf4yJhNHbO/QgBvfln7aB+jn9skL/15/7PZGRoGf5Kf0LQnipPE9Q2Dmqij9djNVVorq1FhAOBTSpm6CsT7jU8GfvxWB0aK8ssjfTPlD0BEn9JitykArkL8YYak01NKmpssJVMLF5yIHnJzoogLyuKttnZKMzJQmFeiC7q5DGdV4Jy51YaqhqNqDl2iPmxLpRFG+c5/mlVnfQ5vYYr7k6xE9BkmibWtdLCJgJ1XTLEjGxCwSb96MjvcqLKWRecp4/SbfGyGOe00ZlQc/oJwhyd5Xgsp+vpq4E7+xecuStC4Huci5Z0OUMrHpgjkc2lA17+x+AzfuBahr/8L8jn3PxapnM/dpb2z/fn87Ef88/397fycYldSOBcuIMdB5f+zgh9iUgf//PCeiR66gjVAVqYqKVBX0qSLsogUYgzPhTJ6Gnp7NSc/ZpyFCgkLkzviuqTjZoJVqcXp2tgR1xRF8eeoyex48AxrCk9jhWb9mD5hl1YvWUvtuw5iv3Hq3Gkoh7lDRxAMnIQirZBZjiX3TqHpnAWe28qhHqiwpFEVXZPTdOsYfeiQUtVULipOa7eusIewQ0lLsxW3DKN+Rai9C2Y7CUI7k8xbKmb/szXRXfNgfkw37PnZxHEFURhS82IVjc6u8SBLItK3tSRfZAtA9ER2pWlYyVxQR4XgYBmaRIaPZuoKCzfvBeNqTAbhAYEL0hREKQcCVKoZbpKXkwqGMm+Aa72YG4RbeZJZefHX/o4yqmgTJw2DU0xKk3SndSu8qWAUwFyra6VDJaRKTFqdT3d0URbfdUp/PTLn0VNdSVGjp+IxoSe9qgULTVW0aoDeZvyqeXP2UyTqDqO33/3m6iqq0O/EWORYES9b6lXFGQUbVkxH0/+/lfo1LM3ijv3QEwWvpiTTrUppNWfQwMqi5ZSNoUhJ0yXzVLiDTi5fw8aq06j4XQ56k+XoaH8BP1y1FVWoKGqDNWnjhhdsmjwxVWm7o48e/zIfvzum19lupMYPmo0FTnesxQx6mRtIhmoPrIb937nGzh0+BgGjRzL+9IURsQUtWiGlqjHqKQ1INzcSEW00Z5AR5vjiDBcT3v1FCzSrONGKoH0RU5SyXaiN5nWPbI8/enYIAI6X/LbHI+ha3E2Rg/oyTQMtUkYxU/H9Wg1RGbR3o55IkO0or4BJdsOIBXJU9MwgniQNGd7Se6UQnFzyB9Hd23AtjWLcfLQfh7vwNHd23FkXymO7tuGYzw+tmcHjuzZzXOF8Xz3Vrqd2L/vIPbv34eCwiLkkCdlYIfI71qtk0UjRsv3NfEVQRPD4uQ1GQsMp/xpXJG0taFBsmfDesx75AF06NkLBW0Kad/EkBsNYcXzT+LFP/0Onfv0R1HHzoiz/5D8Sj6zMpP43Q+/gQOsx/CJU9EY16sUmiTTmEVDPJRCm6wM5FK+csNh5EbcJJ2WWzeUHUXFwd1oqK6gbFWigfJVV3EU8cqTqKMM1VWUmdzl5+ZxCMxJl0tZocw+/+cH8ML9P0Fv1qljl+5oaNIkHUdMjiNtmf/cxx/CE7/7FYq7dEW7rr3QEKcxFJa8acKRfUlSctZAmlDOUk0mW1piHk5pVQOPNTFjvs7jpKFoRqcxWG2sCQd5zNH1iMGIrHblMePnsX+ZMLw/+xddU1w37rpjh8D3uAhQhtTnrtyyH7VNpGm6D5PTWCFJlM6jsUphl6xvsw40XTLlTTv+pLkDEfLao7/9NXasXYVJ02eirkmr09gnaPUQ+4HcgjysfOEJPPmbn2PKlMloU5Bv+UU5doHjbJw3mBWJoOrQLjz84//lABNBv759kdFYybGhDuFYHRIcL+sqjqHy5EGcPnYYx9gHHNqzDbu2bcT+0l3ozHEvLycXYY0tWVk2MVeYnYHDW1bht9/8PHLatsXIkUNZbpOtoIuGtLqH5VJW5UfDzciO8L5IU00Eio6O1urbdOOit526+7Ywd/7aw+VtFKYctsvNxIShvXmu8U6XHd3V9g4607EL9Tg/AuoElDqrH+6nfqg+TjofrzNcf2fhziyEPy2vePwLwtqX3Qz1ykkjelEf0Gb5DA4GLMqZDkx7VpBkXSFp/7VGBhXsQJL/aWH9v+6fvqttOsBOZJa7TknKuSOajhlKJUWEtCcueuLD8BA7Vvf8xHKxAU6uvLYRpyurUVlbj4pKutM1OEVXWx9DE+2tJio9cXWCIapdIfbiejJi+aqjVmPxmEf2Xh7jqWpWM1ZGEyEq3FWPgyaNJ9VYT0LlKwfN0KviamhbRcBa6VcdsR706LmL2MLK4K/SWR50buKBkV4JwWX58qwTVzn0RaxXgCXjj1Wfx3p6bemYJkWFVKF2b1RGC6IxfPqOK9zXH8wI5L+YOrBLPS4KRvu0b2Y8D6QMVMVi+J/756IqrqWQ2YwkJY0XSWctxBc/mMHLdpGikYo3WhtTpWa4eJ/GeCaV9JpyfO+z70W/wSPx7o9+HmUNScSpNGnVgOIn9SSe7RZuDiMZyqLhr1cdZBhraSaVK8qAJieaTh3Ajz5zD/qPn4p3fuLzOFVTz3pG6GgWMX2Syr7qlZGKmEwUZAE7Vr6IR372DYyacweufcf7UVPdaHlrT4Xc/GysfPJBLPzTH/Dmj34BfcZOR22jnt5KNprN0Fo79zEz/kPRLLIWc6fxz2pSEeuCJx94EAnyo707xHJDNIzYDaA5U489mU+yCeOuvglX3HY3qmN675vKGrWyZG05Hvvtz7CddZt0zW2Y85Z3QDvBa5PGcLwe9373m9i7fSOuuv0eTL76Bg7aGaiLywSLIYcKXPWJo7j3x99Doq7aypGcGCQfgnnp1uSx7XpNAhX1HoC7Pvxx1Fu/L4OGfqb9OEei6Uz9VrK+FuP6tcE7r53iJkX1+JkXWUWPV4mgrxW1E+SnCPv30lNl+MmfFtGK6OweVIrcbLdgZZzaJcF261AYxvO//xFWPvNHCkxHBuqKJulkZJAXOdhbJ45cOoZlaAWOGk69OvmS19/66S9j8KgxeOC3v8DhHTuQlx3m+NWAxqSkJ4488rHGnboYKxHNx+13vRdtO3RGNg2ObauW4pFf/tD63bd99nPo1X8wmmio50XC+NlX/h/K9m/H3f/9Y7ShodLA/kN7hyBMgyVZi+996t/QsX1H3PWF76A2JvnWOhutzMvCsQPbsXftMtaYEk/DSE9OE/EY2rTrYBMlW1YvpbGf4+6BPB8Kp5CU1UX5F0Ks2zs++Tm06zscMcpkNg2ggtxs7N2wCg///L8t7Vs/8nn0HjwaDZSborxsbCtZit/96Bvo2LkP3vbBT6G4cz/2dQk0qt8hyQporK147kksZx+Rmc3eTHLgGsbKDMTO+fwx7YpjcyqMG+98N4ZNmIIq9ie2B5K1oEsqudPqKq2Wykw0oGNeDB+4bQ4Kw5r0Uzz1PxbdoxUwSouOJKK4/7sPLsTxampQYfIiG0DXtRm24ujVNNuETDS3K6894bXqRmxjk4UsQ6tQNUqC/K3Js3u//VXyQRPu+cLXUVbdZPyvjbGbKGNtCvOw6P6fY8UTv8e7PvbvyC/qSDkFYuT7SHYB8os7IZ9jyvMP/Bwlzz+EWz/23xg4fCQe/OV3cLx0m0ZDyifvk7TQarxUk+5bfQH7Cc0IhNvgfZ//GssMo6b8iNFM0x5tslJY8Ph92L5hBWbf+h4MGjES9Y1NTEo50KoDOtPnjGTSIJsRzc1H+6690Jggv1N3ddqi0/u0oleU1YMuN0F9KUDasn01aS6JS8Ya0b99GPe8+XKb9NP6PqePCvqVU13UMJeqTv/6CKRC/sv0w/sWoCoRYZuqz2YEypJo73QJa31HaV6zvo/HHv+iUJuy3bXyKCteiw/fPgPdC/ORog6iVx/VyNRoGI1trj5GQepPJPvqKy4BWr9SoSVXy3P1T5/yVxVmxQWLFlxPhytMcDEcgpt9GSyD9KH6GR1bBhp9qCCYkudAE8KKVidpu0Gzww1RqHQuo6qKvf+ximrsP1GLLftPYNW2A1i0odRWHqzbeQibdh3DnqPlOFbZRKMhyoEiG3EaSKACFM6iIceOWUqKunl1k7a+IGgcGkUpGTE8VX3U0OrCbUkfYzqjnHFkILAuimerKtLx7UA0EKHoJPqWtRHPDtIkVdmCwvTrGEvJBEuvY3eZSV1tjYnsv8V5Gq/EZBaSDnae6qf0DlpOr7TaYGhKsFKBUJVVZ3lWfQv1uBgY7dyhox/pqZnoFZv20g9zrNB7k+6qLdllG+hYaratd6bCUkDFO5s6fg7ZNkKtWe+B5oVpKKcasZjKefuOXTFt5hwOPiHydxbCLENfPciJZjMv8rd4mmG2bDNWg3CiDtqnQMstQ6k4EjWnsHr+U2jXqQNGjxqLeEMD86aBEatHoqnOXjmw1xqoxKeScbTNasayuY/jxME9uPm2O9GpcxfKRRL5VORst3yWfWTvTuzbthUjJs9AcZfuLIvKVprnsptjeOEvD+HAzm3Yt3MHDm5fixMnTuHkoUPoVFyM3VvWY9zkKbj+TW9Ez55dsX39SowYPx7Xv+Wt6DugH0pLt6Jjly5U8iY64tKY2bVyMRrLjqCAxNm3ZzcO7tiEnKwQqk4eRfmRPShZ8Cw2r56LTt36YfCwETi6ZweqK46jsGMnU35F7iYqS2XHTiKfSlxRUTHatC1CfmEb+oVoWyjXFoU8blNYhKK2xWhbVIQ8hnXu2QsDhgxlt289hW7T5Esrr/jr6kia6Ml0MxWGrsVRjB7QgzInRVAxlMYiKbbHq4KjofpYKWhl9Q1Yy/EhI5wvi4dNor7PorBZ3JijwVqraw5sWoND+w7jzk/+O6Zf9wZcNns2ho8cTn7bgOlXX4m33fNRjL38Wky8+ipMueoqTLjyGky55noUUAHYt3UNxl92Bdq264hDu3cAteU4vn8nmupOo1PXHijMycbpw7tQeeIYunTvj6ycfEwcOxLFuSGULHwOj/7ih8jOycWdn/gsevbvZ58mjkSyUXP8EJY//RB69e+NK258E/kkE7kUxVwacs0pqfNxrH7xceTnF7BuV9lKBY1PGk9zs6PYu30zVrOPOLp/N/ZsWoaDlI3yo0doEDXS/mlEfX0d3vj2t2PC5MmU9XqcOnEU19/2Nt7fNdZfaLXG2MuuQlb7bmY8nT6wHfs2rGIf04T6uioc3bcFJ0+WIycjiVMHd+Dorq14nrLdUHUc4ydNsb7j0O5S+iHk5uWL0xEl/WtOnEBjQx3aFHdAcVEHyhhlq6gtZaoYhcVFPHaujXzKYSHDC9p2QL+BQ0jj9khoooH9kRuYJD9SKlybWxCNnbxIEhOG90OW9Aa7qgt2YJ6XuFaCNNbjiJevVFBzkKpsABmgrg90/eGlobRakGWrzLAmEsUSGSjMy0ZRVgZKFj8LqnuYRRnVQ6lg81HpeHk5WTi4tYTjRAk2rNuE1UsXYt2Kxdg49wUcPXIc06ZPRk3ZMTx+373oM3QULr/xjYhk56Cp+jS2b1iDLt16YPzU6ZZXzalTuP7WWzHlhutR3LEYicZavPGd/4aufQbgvt//Bsv+9FtsXLoUm5bOw5olc1F+/DBrnom927ajZNEibFiyBBsWL2KcZYyzhD7rIbdiBTYvXoyyqlqMmTwVMd0fed7xsoOR2w70bz+XCC5jiVmKukFxXgjjh/Zm+RrxnOw53V/trbhBRS5Zhf5PQNQJ2tMoRdqZfrh5P5pSslHY3rwgmroHmxbVZEvxXZq0fxFQNmo7k1ELYEiQGa86MXbXdGwp7JL6VwtIh/NcvzwRJ5xJy+N09DNw4ekUDLc4KjcNS2//yktQJJdrAKOFy8SqbAf2m84nCG8RT5dcfdJxCFdWEEEB7pq75XRYC7i7e3n4a4Z0e2rV3tmVCqyTujcr1tkFJms8D+y889l7rwXYLi1a5lUjyEqV5bFOW1TcTlv8OrhzF8Cf4IbdmUOaOWxmlddtcxuLqtle6y151RlYcnqoVE/FqrYhhrrGOI6VVeBEeSUqqxpQWxdHdW0TGhoSiDETPcHU0nB7gERDLJKp5zJUGZmtNqWSgWbKO+PaO24yrqw+Uit1XWXb1ILxmZ5uqjWtw1QdeWZocUPuXW3mwAjKSQ8m7eGknSmiWwXg3jPlIeMpVPlZh6B609el4PlaUJId81+00hJeBYtmL500CM6D5hdNg+VxAcSKslPdigqNvUxjHQMVA73TqtK1fJvKaJtIDJ96+yy3UkEMnS63RdU8LgIB2eTbgmUe6MmGW6nwIqrjWWyvHLaFayfqJzyX0qMnm2rHDGRnNOI4FfV4baUt8dcTA3Usel8z0VCDB2mMdO7VHze88XbUxZ2ZZE3F9tNqh/xO3dC2SyfoM4tafDz3T7/B0S1r0aiFAKFc985mvAa1pw8jlJWDvCIa2dqdnZlo7wHxxlV3vAd9xkxBFQ20bDJ5pLECv/n2F3Fq/x5cNudmRPOKmTMTJOPo0L0vxkyfjhceux8LHvoj3vax/0Cf0VNQ39hgqyVSGVGEGS/VVGaTJXMfeBAlSxfhw1/8AvLad0bFkSP4+Vc+h9s/+ClcedPNOFi6GV/6yPtx7Vvejtve+wEc2bsbX/5/n8KIsRNx4+3vYz+RgUOkz+++9kneNPuASA4iUdafik+siQRN1YsYQFY2IuEsJBIcpHnvSJ5CTruu+OC3foUGaBPHpL03m6PNvdhHaFpN7SaInuYoO6Ku6G/9GPubGM/izWE0NOrZnU0FWezgtROTbfV1Rs8wknW1GNe/IL1SgVSzlQqKbwk9XgXE/Wob+dqUN8QxofRUBX7+50VIRjsgg22vR6i2UiGlXT0S1j5Jdo7tC7Iw748/xPK5z+PD3/oBOnTqjlBjFf7wvW9ix6ZFGDxmKoaOnor6pBQ9yoU2FCY/j5gwDbu2rMeff/xV/Nv/+wa6Dp1gE2wFmTH896c/iI7ti/Hez3/D+uj7fvjf2LVzBz7z9Z8jv7AdTu7djqcfvh9b1y9FUZe+uPW9H0b3AUNRWVPLMSgbObl5KF3xPB79yRfRs88wDBg3g+NdhvGnVhENmTITeYV5+PYn3oNO7dvjXV/6NqrJ8xozNPqwl6BsNyEr3oB4xVH8+LvfxKjxk3DVG9/CMTOER3/7Kxw7ehj/9Z3vIT+/EA/88mdYOP8Z/Od3vouuvYbiqYcfxuO/+D7u/sp3UNB7JDJjdXjql/+DHSufBaLF9oRak/3sdtBc38gfOg3CkXzb30QrIvQVGA4uuPKt92DqdbegimO5ZCePY0xUqwXJ+Hoeq1en1IIGhunUjZX6URhFlvfe0BS3TTKbQ/q2DNtSg7wJj+tfNamgz2dmJuvRMVcrFa7xKxVeI4iCJKTR+/wrFahTqN9jHD18cfvUqL9MN+BrjEDvUc30JC8UyUbZqSNY+fjD7PbLcGTXJsp5JnoMGs3+vwCzbrkTHdq3RYzjryaL5z90LxY/+ke84Y73UY7akF/jNlGXW9wJI0aMwFOP3I9Fjz+A9372q4i0LcJTf34IV113DR77w73I51j54f/8CtYvW4w//uR/8LYPfQYTLr8CP/jSF3Bw5ybK/H+jY/9R2LJhE1KnT3BsT9gk9+bVi7B13RKMn30LBgwYzDFKk+2kH2nlvt6i+yGteC5dLsFxLLuoPXoOHolGmxQ9q9+Jl52eRp5nQvH+pQHpa2OUdHW2cbBS4VatVNBUOuWL11w7O73FuUvT7v9XEFBH/sv0w/sWoPolKxX05xgkaA+m5ykPW0Vl5aT0dqTMWhzbNf3qX9fSCMLsKB0sz+KrbhbmLlhYEJ9BznN568eKTF8TWpb3khzOwOqri4GfviruSx9YvsH1M9F4dCYOYUeW1KV3iXhmCdJhaTi628GlAQvVPdtKhVgNPnTHDPQoLKA6TXmzjWZ1/f/ESgVC11RpVZ6HxkSWxoUJFkV/TKhgO07noGa0eHTOAGegPSniQMTOUZ2mOskGduT68sLxynqUHj6B9bsOo2QrB4dNu7HC3B5sOViGg6cacKKqkcYTaCSxA6YBkBHNohJD5YQDWwaVdnu/WX9UvKTMO2VFG1XFWJ4Wx+m6nCojqLZux2yrnhyT2FNjq7NbjSBfMWxJn5RSu854rLv5TKm941Scjs9QgRdN2BTK+3ZGumjFMIugyQtd1Q+v85rKCZgl7SkbwhL8VZyPySykZT6ME3QUytFIxHKzQolz91RglDP5pT2Pi4PIFrSakZD0dCsV9qFJeyrYSgX+ida87LjXItL4TiI/1Iw///InWP3cI9iyag22rl6NLXSbVi7DlrUrGC+O2poarFuxHFvWLMfWVUttSfOWEh6XLKSBnY9Bo0ehKZ5ku2Zi7YtP4eieLRgzcRLad+6Kjp062ZOdE0ePoLB9JwwZMxoFndqjS4/OlINGHNm9DsNHT0PHHgNQ09SI/JwwTh85gGXPPsV6ZuLA3sPYW1qK/bu3Yf/WxdSP8jF68hTs2rwB+7dvweip09CpWw92kDHbsT2pQZL3rFVHbQoKULppE44c2I/p192AaLvOqKyowoZF81BZW4OtpTuwYfUylB3aa5OLO3ftweY1q3CcxlhX5jlgxGgtNkVjfTXTPI9Z19+It979QQwdNxlTZl2J0dNmYN2qVeg3cjje9YlPY9S0KzBqymzMue5aHD+4D/Ws0+jZ15OCes+bUkdDMxZvRJzh8VgcjeyTYrGU0U5PgBvMh70f3pgg3RvrbdPKeIy9CvsHtzu+g2RY9DEV0GRI8s/wRBO6FmelVyowNK0kWn9wJrVHa+F6ZZtTs/62rK4ea7YdMENXgqV+zyZ6ZXazvWwsYAeflx3Bvk0rcGjXdky/+nr2iZl4+He/wvaSBSho1xV1zGfj+k04tH83DmzfhG2rFqN0/Sr0HTHOXkfYUbIMI2fMoez0RnVdExXvOFYvnotodh76jr8MdbEk5XElqsoqaHxcgx279+DX3/4G+XAHRky7Dm949z1o26Mn6hviyM7KY57ajDSJtQueJr/vQE1dAnt37MBBysT+bRuwb9tm9B89Fp06d8Cipx9DAZWQCbPmkI/16VXSwJRRyVkEkaxsEiSJVYsXonvfgeg/djIyeL9b2V+c2r/dJuxLVq9H6dbNqK86jpM0zLZs3ITt6zeg9vRJjJl+OQ2bjmZA7Fm3AnXV1Xjfpz+HSbOvwZhpUzHtyiuRk5uLA6W7cPt7Poir3/Q2jGT/MuvKq9B36EBsZj4DR41F135DUEuZSoXClJtmyhnli+cNTQnUk4aiYyPpVt8Ut5UaOtckQgONvUYaX3G9wygxocwkeIvah8aWuzNQr0bKtwlyXpMs50W1p0I/21PBQeNq+tCj9SARNWn1ynsqaBxzsmY0t5DXnvCmM7Ek+drEMCscQXXlMSz+/c+QoHKuVXVIhtHU2IhjpRsx6vKZyI42I9FUSwM/ij0b1uLQnn246Y5/Q58Bw9G2Yyd0pHwUd+uFk0cP4onf/hyjZlyOa2+4AY/87hcoXf08hk+Yio7ti7Bq3lx06NUPA/v1xtoVS5AZjaK2uhbLn3kIV9x4M0Yx3umGZrTv2hMde/en3A1A++IizHvuSeqqObjtrg+iRz+Gde2GzpT7jt17onP3HnTdOV52RYfOndCuSxd07tMXRR27ctzhvUpXsL7L0VjtoKOAspfKwHBw7agiUgntqRDC+GFaqXB2zFP5fqXCxUHUSbemoxRpd85KBdk5vOCMTtKWkRVf54rv0qT9i4BpmWnmMTk1ZUTn6eMzUDnqZ3WJqdi/uhP+t4imoEDeg/RBmMtf+QT8yvwUpBBmImNaCGxEnSvElapfG6UtTstfB8VxOVscjem6zGDVz+UgnFuW/fLi2fqlYymd/tJ8rD9BNbqk8mVlsWtIxc+sVLA6qT42fGl8UxxH/6Aul6pOVmRrkKYjfTGLC5CvjsGGaLWwngRwgJaRTu1Loel4JLIOqb3pO7txKgeJZLPNmGqzNvdNeTfgyGmlQIzntckMHK5uxLqDJ/DCxt14ZPEW/PbJ1fjRQwvwy0cW4JH5GzB37UGs3XkC+8sbUJGgkpRVgFB2LsLZBYhkt0U4HKWCw6qoajTq9QRD0PCip1MivJR8LTfWdXGqXnnQwlC3oz6d7iPdINodX0ypP232qM9a6vNfCdbbdthu1mZuiq4b1lNKvfqgttVVxZcgpKDNpjLsxV3lpMZXWpWhyrKuPLZZRxHZERiaiKIJ75zCeWTvait3m8DgIeHSuePWQlmlW/DMyavM0qPVkNi6RhC36EitLqVYV+yqBWaQR+KI5hbj7R/5NN788c/ilo99Em/7xGfw1vd+hBGi6E7l5t2f+ize+sGP4rYPfwzv+uTn8YY73mEZ6HWJpESAJWiTKk3vFXbsjpvefhfmUJma867346q3vpP5hNG1/2C88a4P48o77qaR8wFMv5LGVUY22ZQVadbu00n7YOXODSVINdVh9s134ONf/y4+/l/fxDvufj/jRlDQttAMZX2GC5lJzH/yz3j2gd8gQmO9kIqcVsooL3fHBGWNmbnJP5ZjT+4zUzhxbD/2rF+HQ6W77T4qTh7DTp7vpmGVbGpwcsc8tCFdBvue5lQjs6Jc2yoLrVRSL8C7TdXbqxdSfpoSjbS1MhHTpEH6Kapef5VCmhvJQE5mHAWscxu6fBp0+TRKssMpHqdQEIG93qH34nNCjWgbaUYR7yeX1wrDTSgOJWwJuO1OrzYNaV2IakCX7mdM2sz4CaDjlucerxUCiutA5Bd76VieOMe1ifhH40TSBnOekHdDqCevPfjj/8XWpfMRzmqLonad8KHP/Du+9qPv4z+/9HkMHTKIaZMYOfN6e5UmrlcJlDPlQ68jmMmlcY9/KX1+VX8aS8IMMX5rQlFRG3TqNwhzbv8A3vjOu1DUqSsqTpzEoz/9HjatWoGC3Cjipw5j+6rlKO7YDx/83JfxgS9+hbL2dQwaPgJhGjHFbQooSklEs7Nw+lQZ7v/ed7Bv/Rq0i4Z4P0kzrE1GOI7YVxbE/836YgpDmS6LfUusoRalGzdj19ZtqCw7gVSsEXu3l6J07SqUH95HOunzrBozY7wb6QFyjWimPMu40LYnmpRJJhro66mrAvSeNcVLh5JUDpasipEoTHrnkg5tKE+FkRjlKoYcypJeP8mnMLbNzkABXX4OKJMJOy7gtULqWEXZIR6nkJetXVg0Ge9GTtHXwY3iVpA1uJet/8sQb6uV1f4ao6STZmlfhawIbr7lTejVazC69uiH297+dvJ/s9aj4ZE/3Iuffek/8N8f+QiWvvgiefY0/pfnX/7ER/D1//dxPPTrXxu/P//0k2ioPcG+I47H/vQbbF45F6OnXYOtGzbiyYceQkYkG0/d/wd847/+C7Vk+w3r1uDhX/2UtQlh+bLl+K9P/T/s3ryR8pO0CfJUPI5Fzz2DisOlmDJ7Dp54+AF8/u678OVPfgRf/MiHbTXeFz7+XnzhQ//GutyNb/37B/D1T74PT/35sTPjtsZKPXTKoDyZXmnKoZyoIAT+pcVLS3Ey53EpEbS0+lW5Vwub/GGzmdykw2S72YbhLMi+sMMx0n22VyVLo9J6VLa2ElCfkp5jsscaaVJXo434VDzqJkBkKzEVk+uLRcrarRCX4a+4jMeBQZPVCtMnV6VB2ZjDm7RPoDOO7KowdTS3EoJjrNlZVpI5s9E4BmlDZG3QaxPNrJ9i2Aoau8d0WakE4ykvppUd52pj5diZ1VEPiJSfLErdO5H2Lj00Zqk+/GWZcunTvytavVLB6MQfEc7pWI6EOrbOS4/s2QDuqY674JZc6D7VKGJCpglxiJcSpUdxOqffRL+stgGHyitReqQMm/cexcoNu7B49U6s2XoAG3cewY69ZTh4ohZldQk0pEK2PLo5rJ2m6cLUIqj0JNmhalM5MY52q5cSKN6yGSdVxGbypGDoHuRrwkDMlGL9xKRMr3DVS2nsbgXdgcLFdIrPK7pdXrF74omYz+2h4IRNTKdd4FkLMqiuO/FO0HAzhiTDJymDwWy9ctNDI0Uz1mWdtMpBi6u1NFWCp7qRYFamKX+8Ygqvle/Ktl/driY8gqwJ3ZNrD3dHgd8SFqLsgmOB8SQuVjedpsuxlQoj+vqVCq8hRDZJkHw5tW3MVirsR6MxRpqfeVFGSJrs5utr9hG2yZoFz9gq4lvuvBtF3bqjsHNXtO/eC0XFRVjyzKPo0rMnrn7zncgu7oyi7r1R3LWnfQpu1fxn0KN3fwwcNgpN9o52CJuXL0R1TRUVpMuh/ejj7L0bT5ehZMHjzLsnBo2egrIadrw0ho4e2E+jZiWGTbgMHVieGRXVJ/H0/feisb4Os66/BR36DEBu2zY4dnAXtpasxqjZN6BL3z7Yt2Mz9m3dRMMihH2b1mD31h3o2a0HOnbuRLmMc5CoQ34oie1rV7KcvZh5xWxEozmoqTiJdQufwfVvvh3vvOcj6D1wMFYvmI8ZV9+Auz/yaQwbPgrr1mxCcace9lqFPvLVWHkS6xe9gH27d2HpvIVYs3geVi14HiVL5rLriqGyvALLX5iLdYuXYC3zWjH/BVRVHEBumw72jnwu+67H/vArzPvLg1i3bDFWLVlgT5k3LF/E84VYsfAFrFr0PN0LVC7nm1s+7xmsXLgAJTQ81y5+EcvmPo/mnAL0HzwEjU3abFP7S0ieOYCZDKmPoJRRuXQrFfT1B/YZanhdsT5Dxx6tR9C3u/7SVio01GPd9kPsg93u7hbBxgn1m1Rk2B9nUmGRQVu6aZ29DpBbmI/1Sxfj2rfchhvecAtWLl+OLRs3Ijc3hwbFAyjdugHTr30b5lDmmmnQH9xdij0bVmP0ZVejsFMn0GZGG+a3bO4zyKN1PHXGLOTkZGFLyRJUnTqJmbOvRtuO3TBc+41070NLO4KKU4fwyE+/hyPb16Ooz1AMGTkM65c8j51rXkT3vsMx49pbkMpui+Kidpj75BOI5ORg5s1vRCzWiJL5zyHRWIOTJ05iy/IlklL07NuL8s6bTTTRmEogUXsKK5c9j849uqH/oGG8/0xsXrUCsYYEPvGfX8XlV1+HuqoK3v8xfPizX8KNt94uLdNWHI2ZdQNlvDNCNLb2blqNQ7s3oGT5asrIEqxZuAgr587FgZ0bSdcENq/bSHlZhJJFCygflJU1qyiDCQwcPg59+w/GwQO78ccffZty+CzWUKZWL3wea5fOZV0WM6+5WLHgBZQspkxJ1lYtpMxRlpnPmiXzsIJyvZyyu3HDBgwePgI57C+0h2YG+wA0RyhFJmHsYxUWR24kiYnDB9rXZRw0rqcPPVoPEvGfY6WCelWXv4oNU3+MVVaSt+Zh+KgROHz4qK3a6dtvMNatWMkx5mrr3xsqqzBu+pWUkd4YNmok2nXsii49enIM2005jWLi9JnYWLICjZQHTbRtW7ME0eIueOv7PoqcvLboxrhlp05Q9uKYfcMt6DdkKAYM7G8yO2DMRPQYMAh9+/ZH7yGjAfJoPsfdprID+MtvfoQcytFNb7sTtQ0NKCxui069eqNzn0Fo34N+984YNGgAstgvnWBd9CWkviOnM5+hqI9pry+tbBSHp29e+rmBJ9afieqXCqSzimOZmkxsn16pYA8d063g9FFV0VpEiVr4HueDqHNe/TD99QdbqaBrDHd7n6Xj8Vdk1rF+zL8YpPUNcZO0TqedsAdVASqRvCRukrVim3prso7hsn+craNouqrP6is7hTHQMYDlZfYFednOGO56Z2fzyFcvoTB12HbOdMpLEwqqg9lZsplkx2VohatyVTTZRjpWHgpQ3jxjfVw+epjrHi7zhP+uDronjfdmL6ZlRQ8UVI50Aad985dxDKqPHfCX9Xd8fYlgNGMf1tyIybZSQY/vWC9WU/dqk/V2FwzQaboul6pOjjoXBJHIkUm+GwDEUOljEs5WGvDcZpeoVCR4bvNIrLzIrs2RxOg2kND4bKJf0RjDwdPV2HzoJOau24n7X1iO3z62EL95fDF+/3QJ/jxvM+au3ofNB6pwsi4Dpxu183w+wrnFCOUX2/tuiYws51IRe/pBVnLlUbCaqTA0N7svEugdM7FBnEymOlpjq96Mq5knmwQRE7EhdN0Z9frRHAUbRYc8Np/37Gbq0k7nyseYUgKmBlWYrqktdZT+zJXNioluqoMmC5IsjzGYTqscpGBp6NV10U558wqjsq6slPu2vSY9yOisnzoTlSTq20samrxI6QmazlVuUG/dg3NCS6bSBMNLYSH8kR9ctabmj1Kaa5lH2hdapmkZ7nFxEHUDWgaUNnnjmf2R/sZjbD/jgjSx9SUFdem6nmD86oZaVNVV069DRV09TjfoCSnsPevK+jiqY0BlQ7NtZFqvXZ0oJ0xsnVJElg5Ptal9OBJFmOdZlONsKioRyYfqQOU/i+c5HEAiHEhCmRHLQ6uU9AnF/GgY29esQOXJQ7yBOuwv3cJkKQ6CMezatYNRo+jUsxfiugHJIfO45W3/hpk33I5jB0rx6+98iwbQ07Ya4On7fodvfOwj2Lx6JQUkiR9981v49n/8O07s38cxIYp4QxPi8UYkqFiRKOwTmkizJBr1RJTpjX68pbBk3YyGMMbOuAJ3fvQTeNPdH8Jt93wcb7nrI7bsvSeVyvd8/DO2J8Ob3/cBvPtjn0SnHkMQZ98SogzqCzNa2ZQdzkKESmCEymk28ztJY/HUnh1GpyjLyM0K4dTBvTi6czvjaPPMEHJ4z1Gmy9Y+JKEImrQa25RsVTuQW9fWNkIowP2k/ZbHHq8OacEx3x27J3psB/GL9XPOWV+vIP4ET2vEA4lYEyZPnYz//J//wZwbbkBxlw4YN2Eiju3Zhvt//D/Yu2MNhgwbjwnTZqC6uso2Tc3Vfqh6yzwzhZMnD+LR3/+SBsRPUV9/CscOleIvv/4xHv31T3B01zbE6yrxxEMP4P6f/BAr581F29wcVB8/jL/85Ds4tXcLrnn7+3DNzTejpuoU1q9aynzDOHbsGN1xDr1ZOFVWhqrTVWjfuw8SUSl0mYg1xMwo+tB//geKu3XFosfuxSM//x5SNSdRe+wAvvf5z+Fn3/w64o31WLd8Cb73mU/jiQce4L1r1OQ41dzEMUl7IiSsD4g36WtJKcqHCJTFciOkGFUvKndNCfYP+Z1w+13vxx2Upbe89/1450c+hXGXXcX7z8E1t96Gd370k3gzZe3tH/4Y5rz5rXYPtnu89SuUI8pNVpQ5RjIRiXA8bCjDyZ1r0VB9mnKUa3KYqq3B8dL1aKysQJSyJX0jFAnbPgzZlFGNrvrXuKmPaCY5nmplIXsDBZqztj/DEwF0fj4nBL7HvwJMh5H80teXrNwnSDXdwXFTOplsA45z9uAGUVvRliGDWKsX3vM+DB43Hnt378Vl192IN//bXfYqQnOCvN/YRBl8Cz7yn1/H5Vdfz7Q5mDznbRxKOiFRV4fOHTva15dyoiF0atce7YuK0aGwLdoXtEVRfgHatS1C+7ZtKafViLDsrFQcz//lATTVHceoCZORV9QVU2bfiJvf9X5c/867cf3t78atd74X73zXPRgyZATKT1bZa4Qz3nQXps6ahRqW2RymTsqxRqt/jMXJ6RRW3r/TD90EzqXkX5WRPjTx4rkOeWz6Y/qaVcPjoiCSBb1QQL6XtqRdF5np0t3bq4KGw6A8HetEuqhsHrtmMiP5km2jtiaXaRLB6mC9LI8D/VK2TTNlz+mqZrzbdWVMtZCerSxP52N2nU4ZVbKpr7aoPK1AkFNuVi/lwnQJ6mhx2UtWirg90K/0eNbJfZLyH2P/r8mH9DQB49FWNaIxMvPRhEJCkxMWoFowpsmQcmUI47ojRnb/prs5Z1LGkNcCQT5WwrnOynGwB+VB/f/OuIiVCqqdq6FrHFdpTSS4p/0K5x8bR8whJUuvE2giQRu91SWSON0Yw5HKBmzefwwluw5g7bb9WL1xD5av24XV2/Zh19HTOHK6EeV1KdQno2zIPGRECmy5WCaNGVs1oJ2rqaRbuWxYTSCImfQkVQyq5ciaylD9tNGiFBp9ISKXnKnvbUvXUVeqO7BvwxvhxUBiUmr1eqJPlgnzPmQ8pbTLPe/H7o1xjPGVnr6UTTkGG6sak0tYTOESPdwKCRvArCx151pSzhoyrr16YRMIKlbPlt096FxfKtenlUzYlFtSSzcjyKFLJuPQQlQzNOhnMA9bmmrla1KDYZp8YB1NQBhuomR1Pz/cfZ0LC+GP/OCqu+80PXhPNkNHmmugnBbsqcB6WxrlaTRzaT0uDiKbeMtoaQFn35l72Uz0mRZiGspHnAqQvim/fsl829DpDW+8BdnZUWRnRVCYRz6ijCx68lF06t4LM+fcQAM7AwU0NNrmZSNZdxor5j6LbgMGo/+I0WiisZSZEcO2VfPRUFOJ6TTA9ZpAjDwZqynH6gXPoFO3XhhDpSfGuDnkx8oj+7BlzRIMGzcZHbt1Q1NtPZ584PdoqKWyROU/Fk9i7JRpEkYse/5pNJBnZ157k3027zAN731bN2P0lMttJ3m9l75j63qUlsxH2259UdSmrT1pbGpqQB3zGzJqDDrSMOrUqSPLXIl9e/dg2YL5WEsjqDleb/suLHrxBaxasRSx0yfQvW9/DBwxhvcENFZXYM3CZzBm2hWYPPNqtKGS140KYocO7bDg+SfQtXdPXHfzLSho3xHtunRDl+7dsHHdWtTX1rJu16IumYFR4yZg0qwrMXbGLNtwa8r0y7Bh9QpECvLx/77+vxh12SzMvOo6bN+wwfZa+PevfwcTZl6HKTOuxvjLZmMUr3XQZ79iNqtg7WxyLUGyIzdz3pxoRNei7PN8/UGxzra/R2ugMcH56ue1UqG8oQFrtx9kJ5zPPk0dWTqe9eeaCFZfq9dbQti9ZQ0O7d9jq2MO792PZ/7yZzz++J9xZHcp+gwcikmXX4lkNA97d+7G0uefxaZ1q7CPafQe94mDBzB25lVIxDOw5IlHcfLgXsTraziMxFF2ohzHDx1GY10F+32gorwap48eQ7uiQvbxdfjj97+NyhOHMOftd2HC7Gsok83Yvnol1r/4JLLyCihv9ejVdwD6DhqE0u1rsGXJixhzxSx07j8YKfLbqnkv2nfwL3/LHbYioIr5l66fj70HTmDoqHFobGhCYWE2Th47iHYdO6PXoJHo1qsP6iuPY/+udVixdBmWLFyCg7t2IBmvw7o167Fk7lzs2boJKY6fY6bOQG5xO4RDGdi+ZhlqKspw0213omPPXiimTPXs1RvlJ46idPMmXH3jLRgwfCSKO3RAt+7dpTqgZNFC9Bs1AR36DkYkNw/TWPfxpNUYutnXvQHRCPMlLa9529245a4PY8YVV6JjURvK3ypc9abbcfs9H8OoKdMpl1cx3ZUYNmk668U+jjqB3m6Ms14a90MZ7OPYuhozNdWQF0lgwstWKuj4fE4IfI+/CtJQRsM/eqWCybjKZB+bzIwhGsrkWHDaVrkMGTscR44fYawUevfrhw0rV1C2rqbMrqaqyP53+kxs21SCVc8+hEFjL0N2YXusWjQfWeEoRkydjUh+PlLJJjzwy1+iXbcBuPWuD+H06Qr84YffsHGhpuIUx644x5Gt2LxuPTasWYONG7Zhy/oN2LppHTatWoMmRDBzyiTMfepPWP3Co6xLBvqPHIU+I8ejvlEbnGahyR7NUsuM1eCZP/0Sj/3u58jKb4873vdRTJw9x+4tI+xe3dWiAKcvqB+jfiodlX2YGUnUD0WJS0FnQUaVxEh9ajPtAK1UmGB7KkgTV72cE5yvn0tXn/8raEklR7YL1A95fjZN2r8ISDM5wy/8l3YiXUUb30pXCRpTkwgy2sNp28Ram+Oo4mh/LL26oE9ya5U1LRdetekFi6tVClrp7ewf5adXHHjMvG0VAmOa9cG4qpFeQ9eRReW5qqCJDNOd2K/QCiW/6WGxJiJEA+WrSQWtOExSZ9a5cmQtea5XJVxe/En7Jk9WH8mOqKAyXCrZfbbanQWrZipf9TZSyB6zer4WsMqk/fQxC9FRuLkJk0f0tpUK9kCRRbqJBemRiqMARXfpAv+1xkVMKoiJHBE122RP0FQnVVpkJZFlVDcwsC6ewvHT9dhx5AS27D2KjaVHsGz9DixdU4qSrQexdV8Z9h6vxvHKOGoSITRkZKE5WoBQVj6aQzls4Ciz1fukbAwynn11QU4EEUOwI7VeSkySbLTvxB/ctZl80IjcnBzXgGQSsTiomOVlhVF38gAqDpaiXYdikdsxnGWjSYD0vWhCgXnappkNVag5edBmkZvjzfbNfRXOmGwaxhNT6sQayi6aU7VytPejGJV5BQIiJg2HQxx49KQFVIaidJnICSUQZR2SKSYKUUlVjuwQNMkgaDpAClBhdgS7N5Zg9+YSdO7SEZk52YyruqaYvtlmtTWhEGNa0DDTQGJNQycvYLxXCzGieFEiJWedFemg1x/8JyVfWxjt3KGjH+n5NwcNegrTV0yyyMibli5AXdlJNNTUoXTTeuzZuB576XZvXEsjaBd5NIXK4yewe0MJ9m5agz2b12H31jU4emgHegwchsHDx+J3P/0+ljx+P07t24ZYXSWVoW1YvWQpSpj3ltUL0NRQg9qqSqzW8v/F87FqwQvYVrIC8aZy7Nt3EKvmz0dlQwwHD+zFoDETMHjIEGxcuRCjJ01FVUU5Fjz2IIZPvhzDxkyi7IdwdNdO7N26GUMmzkB2557o1n8AOnbvwmuZGDlpBvoMG4nx06bi+OH9OHTgEN71qX+3VzL0ze51CxbZRMiw0RPs83JH9+9Frz79MWrsZLTv1A0naaS1790f/YePJp0SqDl9AuuXLMD+vXuwkAbWsnnPYcmLT2Pp3GeRaKhGxakTWLhgIRbPm8fwZ7GIruzwQbRpW0wjZTYVOypt7EsakynUxpM2m62l4CtffAa5+QUYNu0K1MQ1Sx/C2gVzUcd2GH/5dahLZKE+loEGdiw1ibi9i2s7oVsTpodX9Xmkh618knzHG9ClKHj9QYOG2tzJozW8x6tCQEE3LmSg3D4pqUmFXBdo5NaPxiONAQyjIqWJ3t2UnSP79uBkWTXW0Mhu5iDQpXMXtGtfjIlTJqPv4OGYNPUy8qUmwHog2dSIsrIT6NCxK9Ptx8ipV6PnwNGYePkszJgxFetWLUe3PoPwUb1ecM31OEkjp4b1+dRXv4lxl12OfTs34ekHfo7M7Fy88b00nKfOsm/lF+TmUL7Xmvy8+V3vwe5du+zzjZOmTcYLj/wJp44exqw3vAUF7TpxXEtgxdwXkVfQBsOYPiOShzETJqAqFqbMDcLg0eMxcMxo9B/YjzK9AMPGTsRNd70fXXoOwPq1a1B9uhoTKQM9e/VDsrEB1TWVGDt9NnoPGEzyNKOyrAKjZ81CbmEbGj8N2LdtDQ7v2IwVq0qwdMF8ytgLWPDcM9i9pQTJeC02rd9MGZyH5ZTDhc8/h7UrlyPVVI8+I8agc/8hvL8kYjGgPknZ0Xf32RZbtWHethIMnHg58jr1RpwyWHb0gK1i6jV0DNr1GoiqpgSaKGfaQDVBOdPqvkyOU1L+NAGrFyQjsrrs8bQ2TdakQhITR/R/yUaN6llf6gTxhI69DP5NsM3+KSYVmKVyleGjhzvRcBSxmtNYy/Fr2JgxOEI5SVHv69Onn00ETLpyDse9lTaReNlV1+DI3h0oXb+effm1KCrqhJLFCyg/mRhBGddGq3/57c9Rtn837nzP+5DNvqCq4hSuufF6DB89AmuWL8WV112H93z4w5h02XRMv/pqTJp9FaZfcTmmXHEZxl91LcaOnYSd61bhqft+Q1kixeh6DOiDtm3bouJEGRoqq+3VvURNOWrKDuDph+9FG8rxm97+b2hb1B4njhzi2HYaDQ3Uj/MKNPdAOB5Ok9loIGrr3BkYFnDJoLJTyQSK8zMwfmif9AM0GWLOuTgt63Fp6/OvDlEn3ZSOUqTd32NSwfpBtR3zseX+tLFk/2Vl5yBkmWm1D4PZt0Yy4rRRtH9OM+2fCHKysnnN2TSUOOMBNzEge00+62z1lanuyhL/Z9I2y6EdZ6shyENmF0n3Yvn6AmCY8aQnqV76dKq+4KSHq1KRNAmgfbfMHtRDbgsnfRSivRJUjqjAcLcoN0ndyqYQeA+KxzDaobmRFHKjHCc4VuihsGYnmmmzpTiWKC4ra/V2RrxlepZOOqX/6mE5pf20U9H09WU0t1FjVnoSUfKu6KqP7pB1Vtx0PV6b+rwcFz2p4AikOSeRkb8kri1xpl9R14g/PbcYC0pKqYwdwubdx7Hr0GkcpqJV1dBMBVzLfHNp8+YhM5rrvr5AJdwZ08zXaMTGFEeyFM0aiUGNsVSeGpKMY8v/08ynOZl4UzUe+On/orG2igPCRMSpXWVEMxEjkQuo8J0+dgj3ff+bKHn+L8gkYw8bPsJ2jdYXH8RoxnTag0E0ZtG5tPqXvvAEnqIxpY2s+g0cTOXfKfGOPcQogTCoQ6Tn7sCWtOpb2ztKlmP40EGI0FCIJZK2kuLEvt1YP49K1PpVNOq2YC8NuIMbV+DUoaPo1LMPOLLx9hMUEDW+ltvQ8bwwO4QDW9biwR99DTUnj2P82LHsnJNorqtHRmO1fWtfS75tZpA0TehGTJoojKyuaqlavxZM5BhV7aF2J5sqS7ZXVmbSJhVy0pMKJIaoZNetbBfqcREQzUQ7wehH2v/NQUNCRP7RO8zq0NcvfRGVJw5j//4TOLh3Fw7t3Y2Du/fh0L697HSb0FBbh/00ag7y/OCefTiwdx+OHj4Aaivo3m8Uje9xNNx3oyArhK49eqJz76E0EjoiPz8Xndtmo6rsIOpry5GIN6JXzx7o2KkL2uQXo6hjB3SlMV/UviMK8tpgwNhxGDt5CroPHE7jvivWLX4ByVAmDuwuxYlDR3D92+5Gdtv2yAhn4PDOrbZD/dCps1HcvTeqa2vRsXNnDB05FpH8QlQ0xBGKRlG6bjWOHjiIcbOu4UARRVZeHiZMnojps6/GxBkz0KN3dyx46nHMuPoa3PG+D6PHoBEYOn4SBgwfjQRlX4JRXXESGxa9iHY9+poxVFRUhHYdOrLeHXDy2DH7/v2gESPRpqgd2tNA7NCpM06dOGX7PUy54mrEqWTq85sUcfZrWbbEuqn8OI0w5tmxM0ZPvRwNyRCyOCBuWPAclbxaTLn6eiTD2UzACoRSyM5W67H30Ey/mo9/GsokrjrWgfacsZUKxemVCozrJxVeWwQUVBu8bFJBYxKbS3qLYHH1Kg2DpSjJkD+0eyduf98HMeWa63D9W25BM9t44ZNPYlPJShrKS7Bw7gLs3rMbIybPwIwb34xJs65GQ00Ttq9bihGXXYOCDr05ZgGxhtNYsXA+OncfiAETpiPFsWPzmuWoLC/H1GtuwLGKKjx9/33o2q8fbvvwJ9Ft4EgaxRFsXL4c61cswdRpk9G+zyCMnDQd+ynvuzeuRn5BPhY/NxcDRk3DlDlvQAPHyAjvafkLzyGPyuCkmXPQGNOrixHGGY/OlN3GGA1w3nBjXS3WLFqEbj37UYZGopbxeg8ciMms//jLr8KEqZNpyO/DvoP78b5Pfx7jp1+GQSNHYyRlraBzDzTROJPhvon3UHHkGAaNnoB27TqgqF17dOzShfZSE4ewGvQZMgJdevVD2+L26NClK42xbJw+vh89ho9Bt74DbaWG9pBozqTeQMK3YZ9Uum4FjuzagLGXX4fCTj3s07lVxw5i8+ol6DN0NLoOGW40baa852a5SXg9n9L4JalTc4Z5j/ryRbO+qMOATCq8+ZEkJozox3Et3eAmZ2xs63HlBPlOBs8ee/xVUK7UjP/oSYWgCcUBej02ynokOI5pb44R5N1jh0/ouRQGDxiENSUrMOOK2di8roQynYVps67E3u1bsGvzFoyhDLRpU4g1S+caf0y+4kqsX74Sq576vRWxc8c2vPj4o9i+ZRumz7ke+/eUYnvJYpw+rX1KlmDlylVYvmIl1rKM9dQZN27eiuFTZ9mKvQd+/kPUV57A5Te9CceOHEXbogIseX4+Vjz1FDYsXYINS57H2iULsW7ZAvJuPfXMZqxbvwUrXpyHdUsXYv2S5Th4/ARGjJuATH3ljPWToWX0NN3VRhnWO6DvJaAz4eTGtW+KBmhxXibGD+1L3VQ2hPSYs3W41HX5vwRRKM3Gjlqk3d9lpUKLp4TS8cVTYY6F+3ftsAdMhYUFbri0cpxek03bpr78BA7t2IIwdTw9/E2xn9WKV5uYoPxpo2NGZp7kC9kWTCubRg9jG2srUXX0sOUZzYpwXKJwUkbs1TjylCYz9CpbBm1JTVDkRDJtA+3MRJPF1eulUpeyMzU5EEEO60ATka6ZOluIdppWwiulbo20Y320yly10CRDQTjFsWY5duihLvW6SEQPrzWZoCo322vAmbQ3Q6kYbXjpBaqfm65wbaAj/rxqOFlyvkonLG9NKiQwaaT7+sOZSQUbvtxd6V4sriqjkLT/WuMiN2pk1e2e9ENwMNYTfNFPg0NlTR2eWbEF9c2FaJK5r1UH4Vx2aGwAdsaaQTLmJiOIcUQY3bOGeHtHU0tOGK4lKa4pRAQ1TDoWiaCGVxaWDZmpc2Euqk4cYkf7MKbPnIXBg/UEksoRmalNdsQ2kvvd9/8bicY6DBw2AmvmPY2cgkIMHjoYDU2NKplMw+zU4VmpzJhM0bm4LcoOH8K6BU+joGsXdO9NhS8uIVBdBNdIqorK0z3pWLvtH9q2CZteeNQ2kdNmPuGsPGRTGdq9biUW//nnqDxVhdOnTqPy5GHs2bQah48cphE0C5GcLCR5T1oJor0U4s0JFBVmoeLQTjzww/+xDbPq6+JYt2I1Vsydi5L5z6JkwbPYtHoZ6/k8ahvqbWO9Zr2yQUEIZaSXU6ueGlCshheOoKnVhwRQHmJGXVO42k4MEKxU0KSCeEQ0MZ4VXVpR9v9l6Cme0dCE6RXA6+qsxfNBLKW5sEGDYeywtV/pzs3rEckrxj3/7z8w6UoaAbOvwlQa2ZOmT8PK+S+i7+BheP/nvoLRM67EpKuvw7Q5N2Iwlaq9Ow+ix1AtOx6AgaNHu5UEk2gsjJ+JwRMmM/0UDB820FYr6BNvSfZiQ8dMwrs/9Cn0HjWJ8WdiyPgpNOKnYeiUWWjbviMKi9shq6AI+XltcIQ8v7NkKY7t24MBND6mXnUjauJxDhiZOLprK/Zt3YYhzKO4cxekYnpvG2bw6NOMiOYhGgnbBndH9+3GzGuvR35hEfYxr2N7S3GIbvumDdi1ZR32l24le+p99XLs3L6dsncc5WWnbLO7wvwCGhoRtO/aC1ff9BZcfu2NGD1xCiZdNgvjJkzCc48/gqGjRuGj//5lDB8/FROnz8KkaTPRuWcfDB44xCZNNJOdIMH1zncqmaIx0owD29Zi26oXSasZGEgDrSkW46AawvpFz6Oeg+70a25EIxsukwNbMl6PU0f3IpsDXSTCBmP/0pypfWDSPML2tM/fqX+KN73CSoUzHEJnHGFnr1dckHy9AlwKPcnIQHmdJhUOcJR0n5RkpvrhH9sioDn5Mjs7C/uobBzevR0z3nATijt1xm4qWHk5ebjsqqswacp09KBRXNShIxrr62kkj0VW+262lFr8X7p+MUZMn4027brZE5HKE/uxhrI5fPRkdB06EjGWt32VXh04jTHTZiO3Y0/0HTMe42ZcjjYdutqYqFcenrj3Jzh1qhwjp0xFrxHj0IgI2uRlYTuN+e2bNvIeMnDdbXeigMZ3IpmJCMta/uJTyM/OwYSZVyOW4nhO47qetxaj054hEbp4vSYV5qFL9+4YNW6i7Z2gVU/HD+zBru2bKWcbsX3jatRUlqE5nsIeKo6H9+1HdUUlkplRFBd3QpvcXLSnjA4aOQ43vOVtlKUZmEC6zLxiDpoaa23p990f/yyuuvlNGEnZm8LxcOjYsaRZBwwYOop9RyckElQOKR9SO6McZyNNNVjy3FOorqzCjOtvQTS/LdsmaQ8R9GncvsNGo/vAYfZAIDMaQVXZEcQb6pCV04b14qhv45JbAq49jbR/jMlScxx50QQmjhhgxmYA8ZTxgTtJH+h6cBz4rw9cjJxZjHQ80fofv1Gj8lR5Gjszqb8ADdWnsH7pPMrdKJzg+JQgr7RrX4St60swZeZVlKHNNgbNuPwKbOPYs3/nVkyefQ3yCvJQsnyB6XjjpszA6YoKHDt4AB17dEebjj0wePQE+zxyl+5dMP+JR1F2ZBdiDXGMHMvxtVtfdOnaA53b5GEXy0k2Z2P85VcjLzcLiaZ69KT8j+WYpK9N9Bs0GONnXIGe/YdjxNhxGDhmBIYw7/6DB2Ev+572lOsr3ngn+lP2NRE+YMxY9B8+Eu04hkrT1opfp7+K78XrOiIN+G+8fQngmtxR28pLuE9KTtBKBRpjCguc1ct8/bi2eT3iQuQquOJ8/vJfaRoT0g/3XeJJBXKTHnJY/bRJO4fB+kr84QffZJ9fhuFjJyERj9nqgCTHlAhtv7qyY3iYNsy6Fx62z5hPmDyJvB6yV3ik72iVgV6HyQ5lUBcSb2bYqjK95p6XE+UYthqP/eS7yOMY2qNfP3vYqkfbek09nzqj1nU3sZ9PZDabrrVl5VKseu5xDBs8AJHsfMQ43mk/ntI1i7F58bPYQ724lDrifo5Vu7Zuwv4tGzh+VdirfQmtQKAT/fRVsHzmefrwLtz/46/j0K49mHzZZdRhc20lqeqrzVGzknFkc0zS6gtNUmh/POmFZ+icRtCu8luPc3JUphYSTsU4ZvV0KxVUBkXdYv7zrlQQ2AWRWFrqYjMxrJTMVi1c0SZKlfq+9o4jSEXyGNNNABjbyQ9uxK6kw3WufAQRgca8rp29rp2ZJRgacNIUooGglQX2xIHKyAM//i42LXkRdadP4cTRk1i/YiVKFukpTzvkZjbhvh9/B7U0JN7/yU/jyuuvx9Fjx7Hs2UftCWT//oPsc5aqnyuRzMTyUmRYKUGjaVxt27bZvts/kspUhEpLgh2hdHnVR6sAlI4kYZ2syZhFAmPYkefm6nvET2D/yVMYwrQ5HHCO7qaxtGMz7vrUZ3HZG2jEXHMVyo4fRBmVxelX3YBkOIeMKGWODE2jsCg7jP2bVuGhn3wHDeWHMPmKGzF99hx07dUXg4YOw9CRw3gPvXF4zy5UVZ7E+MuuRtfe/XlPbubOPrXHvGw2zwZsu9ELhsXmj/wzKdMMrFZQqN0z2y4rlMTUkb1t8z4LsvZWuaKQS+NxFoFAuw5aHdhZColaNtgzzHVACnM0fcXdfVtQmP0hGz+EGP3+Awdi9OTLEGnbEZl5BQjn5iMrv8j2O1n23LPo0LkHplx9E2KRXGTktUUzDf78wvYYNmEKOvYZhFQ0jMbGBGobUqiLAzVUhqSIx+sr8OBvfoV929bjhjvfj5zcNlg1/1lk5LRHp179UVHfZN/Lb9AS/6Zm+1heEzsEyZsGiQ55UaxdvtgGkhvecjs6dO+JOvvKBOWEBtn+7TsxbPJkFHfuyAGKfUQkyz4rq8kEkgSF0Uwc2LKSnfw2TJ42g/xfjiUvvoDVdHt2bKdRtwcHSrdRRmmklZWjdMce7GVY6YZ1OHjoMMZOvwxPPPAHrJ/3HMo5mGxetwZL5r2IlYvnY/mCeVi+aC4qTx3kQFOONWs3YtG8xQxfgKUL5+PwgQM4RsNl9bx5NsnRs19/281bK6vyMxux4PEHUXaU8jrnTVQaeyDexMGH97V+IfupukabQNFAGo5korHiFH79lS+wW8ugTI+gr1zYrpRb6zf1pz6PnY0mVzprUmFgT7VymmfILdb0Qfuf5YPXK0SXYOAOjoNwRzOHlseSLU0kiH4akXRclt5ToTmUJ3KbtaMnGIKb3Ga+SW3CGaGSsob98E5Mu4ZjzPGT+O1X/hvrSlZj3/ZtOMIxR/zbqWtnTJg+DTkcR5qaYijIjuLowb0oXb8ao9h35xd3pBEbw76tq7Bz7UJ7+t6hdz/WPwM715WQxysxYdYcjhN5yC0stqePYcrn5tXL8cQvfsD0bXDnhz+Gdj374XR9AvFkM/rSkDl5cBeOH9yGXjRKrrnpVpNjVV0T4CsWPUcDJh9jL7vSFC/t1E0t0FbuaTVcFhW8ULIOq6iIde5cjB40lPZt24ZnHn4AO9aswQHK357tm2iwHyV/xrB/7xHs3bEVe3Zux871a9G+a1fKbxyP3/sL+9LF8cOHsHTJQiydP5fyNB9L571AY60EDTWnsXfvAaxctox1WoAlLzyP9SuXoaKiEjs2b8O6lSXo0rMXCtq2Q5z5FWQBJ/ZsxcInHkCnfsNspUUqM4pINIpTlL1tq5ahLw2yHgNG2nf686JZWPLEQ5h3/33oOXgk2nTogmSSiq9NKqgZ9dqDHi+wmW2lgvZU6MdxzbW3+MKxBwlnY6kg3/HM2ePXDwLZailXLcezlo4/jlL0/ylWKjBL9a2WM3XQSIjjW2051r7wNAaOGo2q8jKUbl2LrZu2IbtTJ1x27U1YvHixrUabMW0Knn74D5S/TFx9zc32dHQZx4ZM6m9jp2qirwvGTZ2O2dfegEkzZqFH/z5o16mYcrgPzz9yPwYMG89xNGmv47313Xdj6LCh2LByCY4c2Ic3vffjaN+9D2obm9C3f3/0GTiIY1AtSuYvQN8hwzD12pvRttcAdOzdB+1790XXPkNsUmL5/PmUzf644e3vR37XXujGtF0Zp4hlkP1Jc96p9MqAljo1L90+l4h/LWujs2vfFI2vdvmZmKCVCqZFuvJdHRQ/qMNrX5d/FZxDC/2nz1vKFn9a+Iom+lI/ZN+1YvOBSzqp4NpT+cjGSKFTYQ5qj+/H8icfxhXXzCE/D7cym2mQh/V6QF0NHvrx/6Ls4B70GTzEHgbpNe2BjNekp0XMTSsT9Br78d3bsGLe8ygopB5aVGwTC9nsg4/t2YFda+ai74gJ6DZgCPWtGGU2E9XUn1a+8BSirEe7Ll2RTHDMCmfZ63o7Fv7JJviGjBprk4FZ1KEWP/4nbFr0GPWzCpRxXD5+6BBOUC4PccxtrI9jyuWzbHzUw+yU8qLkRFN1+PO9P0HlkV3I4Tiye+t2rFq62PS5dYvnYe3Cufa1sM2rlmDjiiXYxbGv75ChCEVzqc+5/lEwmqT7y8C/eARyKl+O4ClzhD556b7+EIVed1L+9tzJRji1uRQYFy60rvy/jWDEvECIgU3Npe+qqZtRZyEGk/FqB1TkM9MbdESatQGSph6SjKnpBw4qLNUYm66lryXJemdNzl6rsHw56Gt/BM22kFCaVQ7R8LdNDBkQ5kH5yUPs7LPRhQZINBxHVjSJ4/t34Off/CKO7V5D4/0azUVg8+YdGDflMrTt0BmP/fJ7ePah+xGhAa7JAd1TSMtYRH8aXNXxhBlYN93+DiTra7DsmUfJrLpnt1dC8AkSVluB6WMKNa9V0AibdOU1mPXW96BNx64ULjIn9ZWTR47w/jMR7dAVTdn5SNkTE90rKaOZPzGybdjIu4zVUUgfwn3f+i9kJhLo1HsQ678Zee3a4cqbrsfMa6/B0LHjsWv/EVRU1eGaO+/B+MuvRF0Th48QmVlfw4BbHmRtpEpeJIxljTZnHatq9/vy3M6W4aLoLhTmjj3OoqVQa5BIkj/kdO5kQfIlHnO+qJgm+wVArUDjoDlMAz6CnILOlA0aMfEQHfmTLt4E+hbVuptGBjQlEzQq4ozTxA4/hdw2hQhrGZXqxfyyQlH7qkHHvDASlQfx51/+ENtXvoD+42dj1LSrMOOqG1BQ1AlP/u6HWDH3MRSEGqg8sCPXrHNIT/PVCzCfCAUh0YANJauoy2lDVWDeU0/j1MHdaJ+bRUMri2XyflPVyEg1MIVWE6WQYJ1EBW2AlUUjp+7oHpw+epD3EMOvf/gd/Phz96BX13b4zNe/hg99/kv48Oe+iHd98t8pBxFMvOJahn8b7/3sf+KeL38Dd3/6P2xvk+pTx1FGd+LwQZw8eQyVp8s4CJ1ERdkJVJSfInGSaGhsxOny46iuPI7K8qO8fgLHjhzA0SOHcezEcdRVV7E/ajKn+9VS1B1rl6O411D0GDgE9faaVYT3otYjLSjnJg+UaSlVsbrTbIAyeyqVHWW7JZrY5ur8ZdwyjfGEPKYxX+lfClFRTgj81y9aDtyBIiaXIg/JGQ3T14NjkzLFl+yl89GQYzIomqYDjdIM05GTTzcpbfvm2JjdjML2xbj+3f+GmZfPpEwU4/ChA1j83ON45Fc/xA/+8xP44ac/QBl5igqK8tHYyHyoZNliyngdNq9ZjXBeJ7Tr1dtea8uKx5BBAzhDdafMhCg/ufqiCnl/4/xn8cwvv4u27Qpwx4c+jnZ9BqKyUfEyUEQFaP/OUuwr3cEyMnBw1xY8/9QjyAun0CYng7JI/quvt41YtbeAlolqEi6bMpYTb0BeRgzNdeU4XLoBzfFabF2zDF/95Ifxpz/+Ae98/4fw8a9+C+//3Fdtn4cJ02chM7st3vOp/2D4t/H+z38VH/zKtzDp8tmorKrBKcrW8VNHcPjEEZRXHKccHUdF5UmU0dXWV7J6cVRXU+4oXxXldFUncYr+4QP7KZ+HGHac9azhfTWhgMZcqq4SLzz5Z6oVDRg5bgJy8jieUgnUBJz6NEEKb0jv+8bjyGNf0lR2FI1Vp9iLNZoCRjLYKyB64uTe7ZWe4XhA+oi5dF7plldDO2cMETgh8F8/COTH5CZ9HIxnkrMg/KXunwGqh0l9ujoan8LZhZh527vRpd9Q1FCGCot74Nb3fBS3ve+TSFJf0148w0YPx6YS98pN1bEjWPDMU0g1NWLg4GHo2Kcfx9Fm2xi5njrZgueexx9++n384Eufwy+/9y0sfO4pFpzCLe+4C1ffcivWLHoRf/jZ9/Hz7/0PSpYvxlW3vQP9RozkmNGERCgbFakw6jjuxsij4q8kFef6RtirxBVN1HupZ5ZVN6CugbRm/5Eg/zfW16KB6U/HEjhNXbCe9WniNX0tTCuFlY/Gc3v/nEesULpNLg3/Ovo6OZLh6PglLVfy7cCjJVrKimhm/ivIFn/OHFtrGm0vLVHFQXoSrq9YlVNv+sMP/xdP/PHXvJLE6kXz8PvvfxsP/OA7qDh+BNFYNR7+xXdxcs9WvOGtb8PHPvXvGDRuKpY/cT9WvPA02uVGkBviGMjxLRrKwNE9O7DumQdRcfQQ9SGa9LxfTXCH9C4S85ftqD0ZZNdoz7Ca8iMoefwP2LV5HbJ439pXQBMON7Gs3uMux5ZVz+OhX/+U/b10NGlUGchu0wcf+NwX8OGvfA0f+cKX8Yn//ALCbdrpbQrKWpK6JmnMfHKou2qS/+mHfoODW1ex/DAiWVno3asHunTtiA7d2qFjlyL07N0JA/t1oT55GId2rsBx6pN6hV0qWwDX17h2DPzWIUgn/1yn36BIC/kHydYFrVRwRHAM66qtBnadkuugNIBn0KCNYfWmA2x4GgZSjHnVfbdTx+5GlVrZKKUjg3N6CUFvr+hYvn6ldEtANNviCOSoJEGT6pAZzsSkiWOxfsViDgT9cPUN12AYO+VBo8fhvh//GBnRPHTu0R8bV6zAyuVLsW71GmxYsQa57TrYawJr5j2JSH4XHo+hMZVAVMoFy7LbzGTJvM3caBhb1660ZdTDqLzk5RdZ587MGVd0YTzeo5RCfRdV7+rkUltppnHQZ8Bw9BkyCm0K8rFvy1rMfeS36D1yAkZMvYoKUjOVujC2bViFioN7MXbcRJap/SVCtrHk8b2leOznP0CnQaNwx3s/iemzrsLxY4fx/J/vN6WrjAbNg7/+CSpOluG6t9+FsdNmciDUIyhNdrg/DSLW4fB+3FO4i4elEk3oBS0umMFDWMuyDL3+MKnFngq66mI437WchxB0KpWVlTh48CA6dOhgA4aewNk1/bXgdwmfhgql0WZlf3WlAj1N36m51RIyxt1nR5UvQWbI1FNI8ufKZx9HcedOGEPeqaPyoQ1nlE6l2QQhEaXTzK++nBI/fdxk5rHf/AQn9m9Fv/GzcctdH7D9DNoWd0LPfgOwc/Mm7Ch5Eft37ECEabRpVHZ+ocmyJuWioTiee/g+rJ33CHoNHmOrKDavXGHfAm+qOY1syp1eXQqxzBGjR9srCto5PsJ71Q7dtVUVuP8n38fc+36DU8cPsp/PpvLXGaMmX4lx0y5H+06drbw2xW1Z8xSNt/kYOnYCxk+ehkgki8ZXe+TkFph8jxo/yZ78TphxFSbOvAYTZl6J8dNnY8qsqzFhygwsnfsiBgwfiw9/9r/sdY5Jl1+LqTNm207+E2gsjb/yWvTqO8jqlcf7Wvb0n/Hsfb/l4JSPG9/xHnTsPdD2U9AseU5mEmuXzEVdXQ1mzLoS+QUF4PiEDasWY++W9eg/YQZ6DxqCmFZOkRfEB67XVPu69mymcdmtOA+jBnRn35Q0vnCdlcVKOw/RrqW/b98+NFHRbtOmDUlGPqacBVAci2dR0wO+yU8mTte61x+aw3nuOslr/R//dSqDVGNETjTK/r0Eh/dswUTyWVFxMXr16IHBg4dj5OiRmD59KqZNn2yv3HXr2Qf5+XkYNmwoenXpZK/6bNu0AmOmzrIND3etW4WFjz+IvmOnYsrs69GYaEZ2Vga2lyzD6bJyTGSYNgCtPrwLT/7uXqx47k9o17k7bnvvx9Gp1yB7+qtVMNrYt2LfTjzwk++ghob6rBvvYF+QhU3L5mHfnr1AvMb2/6mrrUP3fv3Rb/AQWw0TpotkxFCY1YwV857Cfd//OjYvX6gPKCEjuwCDR4zB1KvnYMCIUchr2xa5BYVo174dDuzehYMHDuHam25BcceuHFeLkN22mPKZhQ6dumDczFmYNGs2Jl82m/I2CxMpQ1pdMHPOjTTum7F7yyb7vORVt74T46br+tWUyTkuPuVx9GVXIL+oiLIG1J84hEfu/QkObF6BHiOn4Nq33EE50+bE+mRkmArpEWxbtQo9BvRlHzKMaZoRqinHC088ioy8AkyfcwP0KTItMUxqskk9JfmC3QzD1fZJymsME0fqu/8BT7SUrUAyA99DKDtVhqNHj6J9+/YmZ4mEJsycjOncQE+hK7ceQG2jxiL1dZI40j49RomqmtBJS5v5rzlMnpk/ywzRWIinIsjKzkffocOQV1CElQvnU86y8dZ7PkoWzuEYlIXxY0bbl5H+9KsfoLCoEwYMG2ebEpdu3YLps6djAnk1mpOF5/7yJzz2s/9F6Yb1OHbwENp3LEJ9RTkO79yEy69/B8ZPnISuHdvZfifb1ixA+dGD6DNyMq5789uo03KszYpSN8yyV+QyqCPGKk5j/aIF6DloAHoOGY4GTUBGs1GQnYMiCrEmtLXKrj3HtjGTp7r9v2gh2WQ2qalN6bRcnczNc+kMzndklS4vOlwCGhvOtr0m1PXqVHF+COOGaKNG6dtny7V+2MMgmokeSa3e5rE+DSx9URt16txki+Sy4V90Y5hI2cDwVVsu7Z4KgvLV/jXV5aewZ91yHCjdhKzcHNo67VBXn0SYdYokG/Hsn/+II6Xrcf1td+CqOdehqSGG4SNH4OChQ1gz/2mU037p2b0TCvKLWa8wju7Vl79WY+i4yWjXfaB9JSwn0owTB3dwbCxB/zFT0b23Wxmq/e7qTh7BluXz0WvQCPTWq4LUHdXDRGj79B8yAqW796Nz1248Hm6vms579CHqhh0w9qo3oDm3iLpaLvJzs7DkxWdQUNQOk/TVFA52+dRds+J1ePbBe7F+/qMYPulq9gftqXMesC993fCWt2PI2CkYP2k6Bg4YgMMH9mHHpo1o22MI3vq+D6FNYSfWhbRl/xY80AjkIMBLzy8cQbq0n27PcCrYqDFK/d3l74pIy7h6Vp4H5ba+/L+OC5pUOFsJd2xPzcjNthRUA4JugMe1TXGbVEhkZlvHZRyvOEqjeLwjCYoY3JjdRg+GaiBP/+mClacI/NGAoyfemlnVZz8E1UZPJHKolR/bfwDLn36Cysn1eO7xx3H8aBlGTLgMlVV1uP2Od2H2VVdj5NTJmHHVbCorM8g0V2L0lCkYPGwYwnlF6D1sLKKFxdDu69phVMayqq1GyWGHvn/7Jqyd/ywttSZEcgoxaOQY1MU4EKnujK1dTWWARaMRnD55FI//+qdYu/hFbCtZib1k6MHDR2L9yqV46IffRohC+MZ3fQA5VLb0yT+9rykjadeapVizbAVK5r6AXr37oHPHbshj3XoOH4rp197AQambzZr179sFu3dtw461i+yd1lh9Da5761uoeM2Avs+vpZ+ajNYTlwQ77JS1j2jrcLFMZG3EH9FDx8za2lHQng+CPa2ji9Jomjy8N5UxzSIqtnOudB17BFAHI0gB+8hHPoI9e/agS5cu6Nixo3VAWsJllCONHeXckKAB+G9v1Mj/9CSCCab4mXlqGk7XpFuEyLx6P3/Vc0+iQ+cuGEkDuibBC2QetaWxNvOUTDezUz9Cw6dk7hN45k/3onTdQiSbc3DFm96FK265w77aoqVsjclMFHftib4jx6GmNoZ9m1Zh29oV2LS2BHrtR5+tK8zNxBO/+yk2LXgGbXoNxW33fAxjaawXdu3DweUUZWaZbTy1f+9e1NL43rpxHUqWLLYlZeuXzscy1jemnprGtTZOnHD1jbj61jso29dTnpqx+Jln7Pv8m1Yvx7qVi7CxZDmqju/F6VMnsWvLZmygHG6kXG5YuginKmvQo/8gGhWkIRU5fdxIX2iwlqFCpv5lBeVRBttwDhx1NFqa2a9p6W6CtNEycVtlRKIe3rUTzz14H2n0OKJ5xTbRMnDMeNTQdm2mzKuVCqLN2LZxFcr2b6RRt5+D5G6sXDQfJfPnsW/JwKxbbkc2DbREkvQPR8gjkjfSn7LM4ujIEYk4urTNwah+Xdm0DFf7WFPpV5Dv2tyD7cQ+Vn3uvHnz8MUvfpE0a0bnzp1tciGYxAv6RJM1I6NGAMf72qhxzfb9tvLL+jH+S7ZE4xD5PazVJ3R5kWzs37qBRkMJ1pdsoYK/BAuffg4Lnn0Ki+c9j6UL5mHl4kXYtnmTvTpTUVmLres34MWnn8bO7VvZro2YcPkc1Dc04aGf/5SKVBw3vP09KCjugkbKXzOt3R1rV6KuogITps+0L0M8/Ksf4yR5aOiM6/GW93wQ+Z16oLKJvEPFLKs5ZmPKw7/6IepOH8b0m+7EVbe83fZKiSVD2LV1s30edtXylag9XY5Tp07Y3ihrl82nnC3EuiULsGrZYrTJz7NXn/pNvNw2lpx9820YOXEy1jHuaho561mPDVrySaVu58YSNFSW4dDBA9i6dg02rVrBcW+5rbooat/ONi1t1Ks9mVHozdN4phaWUjY4bh3Ztxd7t2+3fV2yi7vbaxj6ApS+pJJgPMmaJkLrayuxadkCPHLvz1F+cCf6TLgCt7z7HuuD4s00oKhQUBdEc2MV6zgPR/fvwakj+7B720a8+OTjKDt2AD2Gj7PJxyb2d67/ZAL1jxzHJUbawT8Ra6BSqa8/DECW+lJr8bSc2WBIx//0z+sawVNTYS/77U9+8pM4RINB41kwWd4yjtpIuoO9/hDjuCXai46SvzQ5TS00ubQr5r/WMH2U7RmMm3r9RSuBYk1NlP0UNnMc0eu4Q9j319dWU8/cjQWPP4wX/vR7hPIKcccHP4Vp196Cwi59sWXtKqymnDc0xtGpczf231E0RXMw68ZbcNNtt6PfwIFY/OJcdOrRCzMvv8zGoPt//1saUHs5Bo1AXmFnHNpViuXLOC4dOYCGsjIaZo1o264djbMkEtQR169YRMOpP3oOHsqxqRk1FcdxdPNqNJQfxrG9O7Bl5Uq069UXQydMtodLYY1hRkPSnfcp3rV+zciqc7ttQjo2g84GXFLoCXCHghDGDuplq4NalhrwyOsdAR3UzpIdjWFr167FZz7zGVRVVaF79+42uSDZ0RinxnRtm4kmGsQrL/VGjXQ2fiYTKCoqxKQJo7CBPK2J6fd89OMYNXmirfB85qE/2OujGlOPHj6IF559HgtefBHLqc+Vc8zJzc6l7rQea5avRvuuvdGjTx8c3L4ee7aswqCx09C+W1/bj0qfDT66vxR71q9G3xHj0aVnX3u1T3pSzakj2MyxqufAEfYANwMR5NMOilKGs/JyMWLiJAwZOgxFhQVYMvd57Fg5H8PGz8Dg8ZSTBipo7N8THH9XLJiL5oZatO/cHo0cEzOpgz9x//3YvPQ5DJ58Ld5y9z3ox3x27diKNfOfxBHq7h3aFGPXpo144N5fsg9Ygp6DRuGWuz+ANl16oD6u/R206ty1pfVzL5Gx1slckEZ++jjdnpFUDBNG9EJhdtRk2nrWtJ2quP9UkwpiclNqbcmUyORmz1RDDQRSrGXw1DTGbJYsFdJXHeyqPN2zxWt5M+lDi+fY1AWYMRT4SqNrQTpzTkCkVOdkRVDy4jP2Cak77nwHVi9dQUWsE2ZdfxMVmSI89+jDWEUG3rGzFDu2bmPnPgShrBxkZ2fjsT89pFpj+uzryFwxKjHN7jMhKoEMqfeBCnKysOipP9ug0qvXAOykYTJ84lRE2xbSrmmgSqTaaA8B/kaAxrpq7FiznHWP48ieUpyuqcXMq+dg/75d7CAa8d4Pf4zMr89tJZGTE0V2OBO9e3bDwCEj0aVbd/QeNBjd+gxGJK+I+YWQXxBBxalj9hnA5x65D48/dB+qaQz1GToRA4eNQ11tLQ2uZVi9msbKyeOI0xDT6xlawSFhsc6DbWatZrR0dLwYWIp0MndsGVmLCWp3GWDZVMIuG6/veruZOX0NRJ2crst3be6dXNDB1NfX47HHHsOGDRswf/58HDlyBJ06dUKHjk4Z09IvG2Cc2FmaBoat3LQPDc3ivvMMGtY2OmZZ+kvLk4kT49kx2yOViGHlM48hr11He59anzbkBcZjasa1V3J4HqbR/eSf/oDSZX+hrZ2NYVNn44Z3fxjDJl9O5Z+8r86d5chAaIhnIKdNe9torUvv/hwQM6nIH8GJA3upnE3GsrnPYMeyJ9F18Fi8+b2fQG67Xqioi6Fr777s/CdjwMjxKOjUlUYEc2RabfqWoFEVq29CoqkR4UQKQyl/V998C4ZNmY6eQ0YjI7vIJvs2rlmPw9s32qZv9ZSDBhqEiXgCbTt0pTxHUUW50ee1NNg1UG6yizqh95BhlAvSgncgU1I0s8kyhmmwXvHU48jp2Amjps9CbaOWRrvrelXJvnBMoaINgkfv+z0ObViB3qOn4aa73oeeQ4ejkXTRCw76EIt2Rm6ON6Fj954oL2/kQFuFY/rkV1UNios7YvoNb+IgOsk2GrK9Y6wu7knSmfbjsT5D2L19nn39wfHQ+eSr5fHr20kZk19aWoqnacBLzhYtWmRy16NHDxQUFBgdpbjJBbRzdM90GzW23FNBzcIfyZe+JqC4ScpLVk4uSjeuoYK0CUNogHfpM4DKSWe079mDilEPFNPgb9+tF9p2pjLYleWSp9p27Y7OffrZpFbNiX3ksWtwkjy6cd5cTH7DmzBmir4awpGWPBaOZmEjjRx93nTctMvwwG/vRZI8Pucdd+PyW96OeLSNxU2FqEzRqi47tAsP/uBbSNTX4vI77qbxczOqmjhuU4kbPHY8RoyfiJ59hiCck0d+CyFTaWMJpCgvqaYYUo1NyKfcXPWmt2HszGsxZNwUtO3UEyEaSvV19bYXS0N1LRobmtBEWtbXVNsnkgvbdUJjUwp1NfWUMSd/DXWN6DlsJIp5z1p1oefCmowTn2ewL9MmXnu2b8eBLRsxcMos5HfqbvuuqBczuczQU+RmZEfCtjHkkz/9Ia9l4oqbb8OVt96BVG6xTVaA8TTpDSq6bYragAlQfeIUjp+iO3GC/WjYVgleceObkJVfbJto2QQR/zn0s89T47JMZdWcQGEUmDJmsK1UkIydI2dMZ753Jj/BeCaDR+PZpk2bbDw7fPgwunbtaisXFEd9qjUR466wPRVIa7WB2oLh0iPVCuoBL/Wkgtpapalk6Zp6AKPv4mu1aYT608qFC8hKCcy45kY8+5dH8Ny937d3r/tTFm59z4dQ2HMQKjgmdO/bl+PdeBpJZTRAnkE8Umwb8fYfM4Ey3xOZHDMzs7IRo56oVW0P/foX9kAoh7Jy+fVvxA1vvROjpkxDYafOqCo7iSN792B7yQoksgsxYsw4zYyioaYSa6nndurdD/2HjUYOjZXdW9fjiZ98AxuWL8C2dSuAaCEmXDGHcQbY3kWSB0mQyHh2hXGajtIp7FBhzjdyn0PnIH4Q56UIrrVM89dhKxVo9BbnhzF5aB+OnWldMc0/gf96dy3pEYxhJ9iHPf744zaGaZK8vLwcPdKTCyHGSyTiyAhpz60UVmzajwZ2ZPqagrWQ8mrRTq92UiGAdNPcrCwc2bUDK194HgOGDcfc515Ep269sWLZMtub5t0f+JCtatOm1j0HDkM32jide/WyvUKuvO4N6NBjICoqajBq8lQUFhXZA6zdW9Zh4rRZ6NNvADuFGIoLc3Hi0F7KxSKMmjAVg6i3qc6F+VmoO3UE65bMp0E/EoNGjsXJo8ewat6zNPZXUs7WcvwIoW1RBzxPGV705weQ3aYzbrrtTlrgOcyDf7TFRDd9nvzo9mXYtHQpNixZhNz2XVDf0IA2HPduf+89Nma1aVOAiRNUxhFsZV3WrliJzWtXcvyrwBVzbsbb33cP2nToZG0QikRsclF7lzndgnojfbWp6Ca/dXipXNK3NuTI+k+yUoE2hHqYvw5HDBGFJ+x09dlDLa2XUaMNxrTVkXbhPFpZix88sAhNkTamfMtASd9VGipK5/LZmfO6LrsaiMgigsIDYgRVo08hSaU/kSgFwNok0YBffOUzSFYex7CxY7Bl3QZkF7RDn1ET0b1rRzz125/T8BiGvDZtsH3VYrz5rg9h0cLlGD1hAvaVbkUjDZr3//vXcLKuCaksoCkjYlMEWkai5dbxmhP40Rc+hsk0KkaNHIeffPNzmHX7+zDphltQS+UqDDVetrulzEbYJ0rIpLm5Ifzh+/+D/fuP4aNf+CrPszHvicdQd3w/mljxpJQm3UCKShVvKBqOILttZ0y7+iaEstuiuqICT93/KxzdvwnxuirkUplrW9wWQ0eOwDAaX/p+uZ5IaWOhXdu2YN3qFThChau+pgHx+jhyaKhc/Y73YODoCRQM11aioZSii4GoL5tGY5KONeiKNTUI61NjCrfPApExCsINeMe1o9E2rI6M8Syu0rI7exkfvL4RdC56ovMf//EfZuSEw2HU1OhzPIWYOXMmbrvtNgwYwE6VoKpvDaCJmspYE75730JUJSIMiFh3IYU3ZI0kyrNteG56hRqNMVwb0Oxn5EB2mpONWPHco1TAO2DCjCtRq5UKajcJGP91KiUvh0p/fflx7N2wBoOHDkRbGkd1zVEaD9rdVz0A82UnGqc06CmkhEGfF9XnLLUxjia7Kmpq0WfwIJw6sAvbSlbbZ7ei7NwrG0McNFmfZn3LOIWsrAiaE5Rxlq2nGEjGKSIJ6Nvzenc9M0zljPWxCQ9el44ajWTZBGBuKBM50STTNLCrCIHZ6AaYr/uUkCYhRZMUFUZNCmjzRM122z4m9GF8S94WPzOh3mFfO/855Ldrj1ETp6M2zoFCgzTbTj2ecTdpmc/8qjmw7du9w3bpTmblorZRe0Fo1QNlhPnK0ImG3CfrcqIRJOtPM39q1GyTCA1SfQWguinB7FzHbxMbTG9GjLWCaMLfxjqM7FGAGycP5o3oVSddl0yrTkrDY9LJQeevX2hskZxJrp599ln88Ic/tBUKCTKN5K1bt254wxvegBtvvNGMHiEY/CUAov2uE+X4+SOL0ZzVwcY+iZhorv4vRiUjwkDtQ5DFti3buwXlR/ZhzLQZNL7zGD/OVqN8MJ5mlkIaT5Q/TzWWyuDOJG+UHT+Eo5s2oNfI0chv3xlb163B8GEjEMvIRUwyq5UuLO/YrvVoqK/D4BHjcXjvAeaRRI8hQ1FepydZHIMoQ+KUKONGUnVYt3gBx70iW2VTG+MIzXprv1N94SCPBrpeI2CIcak0kCRlTEZULEG51rfEKWdxprF+XkqSeFD1Yfw87WnA+9FrFmRq3iUV2lQTeZSyps9Gk4a692bKZLw5ZF+SSFCWja4itHyGadwIR6I4uGMr9m3fgJGXzUZuu24sL8H+LMY2JD+LfkrE9Nkc/3dv3YBCtmMfKqiVdXE0ynhih6b7Up+hfRQ0aR/NDiPR1MC8VLcE+6NMRCmbTewXGvXmEGkvemWyU5AUmdyz3okQ6xavR4doE26/bioKJF7MV/VN/9hd6JcJeP76hdPfnLIsPt25c6etCBL0ulEDlfJ27drhiiuuwK233op+/frZtUa67z64EMerKBcR9alGTY4fbAMeSM9QH3iGzvw9i+Bc/vkQXPvrbSODm4zDI8lG0lbERCSn5Dt98m7TskUcIxoxbc4bcGTPTmxaPB/DxoxBz8HDEQ/noqGJskNe0RbEmvBqjnG8WLIUA0eMQVZRe9uXyHpz3lCI+edrXKisxMaShex7eqAHjf9QTh7qmE6rcPTpUsnX6YpTOHLsKHrR2ArntGH6FBKN1eT7jWjfuQuNsAG2ejCZqMOBPaW2ea92qM8rKkaPfv3tVUTdi8bvZu3DwhqepaPul8es01kdW/jb9GotWpoXonlKn54uysBtV45DFuXSJvP4L30o0Ite72gpVzoWTdasWYOvfe1ryMnORh3Hrzj5RiuBrrvherzxljeha+fOlvY05e679y9AZTxCvYL2CcOU10v1Q7W2ZC1N/ouD5JOedMrC3Khtfrjiucdw86034+H7/oy7P/EZdO3WFVtocGvs0iijVQWI5GLAqFGIRvU6K/tajktPPvgn8u0gjJo+m7ybwppnHsSLf/oZhoyZivbdetvroPqE5JG9u7B3cwn6DR2Lzr0HojGu1eFAddlh6pRLMeW6OzHnbe/G1u2b8OgvfoRm2m6JhlMYNv1NmHPr2/Gzr38FBdEY3vZv96DHsFGUO8onb0IyQJFBfbX73GWiIUX9LRN9Rw5Hl07tbMK8kWNIbcVp7N6yGQd3b8f+0s1oqilHTtuO1E0pn3U1aFNM2ezSFV379ke7Tl3Rpn0HZOW3A2iPZuflk8aku8ZR9pOBniH3qqE2ZT4a+7LjtfjQ7TPQvTCfZWmClGVQB9fjLZN3jsVqbJUb8NilwAVNKrgKWP35o3/3aUU5DQhSrLSk+khVLX5w/yLE/sqkwtmglxZ7vhvUzctPx1UUBmhZsJQZKUUvPvxbHC/dZEsWq08do7KQhzade2Pi5El44anH8b6PfpzM0R5f/vQn8JZ3vRcL5y/E8NGjcfTQPtTSCL/r0/9lO2Xr3comdu5SSiLJJIqo7D99/y9Q8uyf8N7//Ab6kJG/+9UvoCFWh3s+9wUkwgUUzhxTusJUfJqb9S4PhY0M2DYnjAd/9E0cOngMn/jyt2j7ZeH+X/4Y+1Y+wTiZyGvXlxQUHZI0xciw5eUUuDZ415f+F5269kK8pgJP/OFXKMrNxGnek2ag8rUULhThYEHjLU1HLZPPyc6ivsVhOlZLo7QOA4eOw+GKJoy+Yg7ad+lsGwdZz0GSua7kwiGqBx2Pjs9OKmgoVhgZ19qD12IVWPb4LxFpqnfMzPYRzFBSZc/hg9c3AoE+a8S4QVXQ0md9vSMnJwdXzr4Sb37zm00ZUzRNDlXRmP/OffNRlYwyjAYq0+gJwEsHDcG1nbWiWs3aQS3olh0mkcvOnVWw78gjUwOQ4vCXyfWE3Z3TcGd+etWomXWrj7GDYl3dPJVWUlAOGUefBwKNK7NpZfCSr5VPNJrN+GEqYTHbxVef3YrFm5CwDi6MVEirERoQ5T3oyytWW02z8t/eb1ZBNoGlCqnWogPvg2WIZFrip417ZEhoI54UfTPmZL0xD7ehqkYP/sqpskSIGWmSxiZH6ete1aNYItJHIXkcBzXhoM800VJEkuUbZZmPaKljfZvYBkkqxw0NCRtANZGgLQ80QanXppIcSDSxo/RSMiN0mpK1jeFIJL3yoElZffJLuWrpvaopY8fqY79JZLOcst0bsGnh48gNswDSxG245Y5pxfGYeahuaR54vUI0kExptU8A0UROA7smFrShU8+ePW1iQRMMeupjwyFJpwmk0pPpSYVoB7G6s0HS7aRPV9nEl0AhymVjZ9HYrm+I2ysGNglGfhfraYy0SSZrE8mgWIg+eV68XEgLv5HKoJZg55CP9LWCWHOE8WlcM4k26s2OMj9qUbV1HDMoq1HKTS37fTPsGV+TFrbCjhwouYhI7lhqEw07x6iUES3HVOGiDSsmWdFFu8z0OtYksQK0QkKTECHJtOJrQp/1VZ9FRlYKjkWSPV6T6JMHbadrcr3rZfS9F0UTvdL1I9/zxHzxfjPpJNnVngdhOu0/om+Nq276tKaNG8xFsm/6BM+031CK9GikQtrM/k/v4bry6GyDaIJ11uZ2CmNT2z1JnqTUqT9JMF+7A96PGkjV0pEMHPVcuRGmrTyGpU/dh2iS4xmvKg/1pUY+RlYaS/Q6h8lLGsGYJpnTZF4gf42NjbYqaM6cOXjjG99oy5z/58GFOFFDqWA88aOUXpMp5vPXJxVeG7h6u/anVU6+iyLMIBsFeK0gO0TDrdE+eZcd4VjLGJmUuxp9VYW8HM2IIStDE4esu8ZOymtuNIt9SiPlXxMOlDfdAflNIpOicaT3vLNzOBbwOEb+jem+1QeoX9A9k8f0Gm2UfUBTnT4kS03XGC2JKAejGPk+FXc6dyblPycrmxmLGbXhcdw+V6uJvThlIs48Nf5ksnDR0lj9vCCFSXu3Iq5lpOBcvlxLKDy49ooZG1ryh5BF2ao/XoqS5x5Cvlbwifx/PYvXHUSzl47fkiOFiZoh6heSDE0s1DXUoUvnLrj+uhtw8xtvRm5RO3z7vrmoTOoT/u6hk4156rTEb/x7tZMKei3DGo3jR144hl9988tomx/FDdfPwfe+9k184P99EYOGDsW3v/JFGurbkduuC8ehOiTJ8/d84YvYuGY5aqqqccOtb8U3Pv0pTJ01B1fcdhcaqTStm/sYFjzwO8qF9D7dLccoKVMmp2leatZKeLqUpifrzY276k5cc8fdqOY4qs0aw6eP4Gff+DJ6DZuAd37scyhZ8hzWL3wG3fr0RHUtx9rmMGkiudZYm+B4mUKb7Az0Hj4ZA8Zfha2b12B/yWKc1mbBB2krVp1mv0A6Zudh5IhhGD5mOPqOHIY65rVzwwbs2LgR+/buQaK+0Sbord6hdrj2o/8Pg0aOQlyvVYnuolsaL23jC4NooHTy6dSmzMdNKtT/U0wqXOAnJUWMoEHZ7acrJmXctTVvgL2WDJ7Vmw9QiaYBouuKf07FlUbnF+r4G5RLSEDc+/rqJKl60A0YNAxjps7EtKmXYdOaNfaZks9+6b/RUFeLNQtewJYdO7Fi8RI0VZ/EmCkzsae0FN16dUMZmUWboIycfgUa9AlGPWXVU4oUFbhwJmpOHMRjv/opugwegalz3kAtLRvh3Gxsmv8UO/4cDBoxBnUJdvsUcC3p0pvTamPdXgE7e22IVVNXg8lXXIOGWAoTpkwyg+bQrt24+1Ofx6w3vJHCdAUmThxv7513GzwUk6+8FrVJMjhHg5Fjx2HC1OnYtnkrtq4rQSS/DSpO16Kpscm+A35012ZEcvJQUV3LziWOfbtKUV5x2jbs6jflSmTmtkVcu4azQuo4TNk6py0uDJYinUx5WKtanmoHDftSBOhSDTi2axNCHPjEF3qKbYMlFQt7FYL84XjGO7lgEqGlcOs4k42fpYkiGrIla9fgmWeeQXFxMYaxk5ZyoJ1pV27aS2WHyj55Tm3LDEzxDeAmchhsoqIOR55aKl2O2oO+Xi1IJhnODlydTtCausgcXLsynsaQeDxhS4alJDE549PZVS1nDpR7gWG6TmtIkwl6OhvnvcjIj7HOTSxPU2muBu5Jr2XDHxlemVKFVIBiUHlTOaqLi0Hjg3Ww+yE/2YoZ3pfoovvUElaVKVk0JUo0Zhw9CcqgTCuashJfKo5NijLI6q1wlaQC0xpYIiZTXun0jpqjiF1yl60+/DHlsJ6KovZPEJ31XFfLtqXQ6a06TS8oiVZjyGxRm0lhlBGpVRXiBVcPlsBj4xGdMVCvZQX3LwOpqfIkju7bgawo70GGmq6xDpIxtUXQX1oer1MX3L+gCYSWim1wLKMnNzfXlmxrOemSJUswcuRIe/1Im5tqSempugas237g7OsPJLGTLRm92oyKhkZ6okjyGmM/r6+NIJPjn5QizbBJDpjGFDlWSe0jPtKxuEETWbEmKUeKr6+zJM0oSGmCm6GqrniF+hjHEcorDWYZbgmOE7YJFCM4PlD7U/Ekv4hnG5LMl0a06mb9sHhDPKVzlSxetDqpFBp/DJOcSwYEsZG41k2cSM40ieDG3LDSsTjV3uWjdJJplmH8q9Lc3alMPW2VQqbNjBkpzf+66tJo01FNrOk+Fa6btirzWJ6uWF9Apw26bPIiRIVZY4r+WNkQDSv1LKq30ov8mmS0HSaVHxWqDPYNUveUqcm+lcEoaifRRROQujfSNzNWz7F6K9tYLSS5VyJmrjQ61J/ivg5dS5zpr+gC2VKY5C5BXUC+JshlFC1bthzPPf8s2nfujprMfFTWss3YhqbLManaQ7mLk9UOjspCyzJdGeZZcPr8TDgDjQlapnk5lL14Tf258abptVLQzRRn3x8TN5GJtMKHhgcZxz5/J8bXPas8nmvFjibINamg/U80cW071Yv3CHumIy63NJRtrZATS6oCGpdEO6su66JxmDIbb9LKNNXHKsk8M6ijsj6sh+mZrKPWDMWpb+tzrfpik/ZaatbEN9NZ1kxn1FP+ckZVwdXLMk5D8d25HaQRnMsPnBCEB9dapvkbYNQwCZ5qqMSxvdtsJaN1cEEdvTvjApwTJkf6ier2MIeylZefZxPkixYtxrz5C9Cz70Acr8lAHRlW/Z21ENOJ+wJYH0ffQpSt/IsF2y1Mnaqx8jgWPvyg2VuHDuxBVVkZjh06guPHTqLs2DEMHD4Cn/vif6Fjh3ZYRztmyhVXYDv9yrKTGDdlOlYumod+/Qeg/7CRaNBnVHv1xLTZ12DiVTdh8lXX8Hg2rrrpjchv0xa7Npfg+jfdjjvf/zFMpF018/obMGj0WMpBJoaNm4g2nbshlqD+l5Wvm8SqBc+jqEtnDJowCbW1tVg691ns2bwUZadO2BdaTp6qQPmpk2ioLLf9d3ZvWY6M3Pb/n72rALCruNrfs/VsPCQES5CE4O7QUmipu5cabalT97/Q0lKj7rRUaQul1IVS3N3dJe7ZrD79v+/Mnbd3l03YhMguOd97587ccZ85586di513PwiLFjyB8886k+uDZSh2roAO495tz32wx34HYco229srE0/MnYvFS5ejpbkFEydNwPTpOkdGBxS3Y/oOu2Ln/Q/DXocdwblN83B/vdbrc70Q+5zUpC9bHbI+ONcdmLz+ELqV4pEDuVOda0wJ5sL6p2Ht4Bo6mQnWAjlR/OaSFLYKsplqnOKiShJWLXDmkcH97u8uQ2lYrz8MhWg3MLP2NISq3l81Jp4LeN2LWWhozKKBg1NjqQff/cyHMH7SJDLsr7TvxJ/3q5/iiGOfjwnjJ+Hvf/wVXvfO9+OS/12IPfbfH4+xEekk0rd8/MtY2d3LQV+TAwf/Wsk+uXXeT75n39l+06dOwdbb78oJRYxRBed85zTMf+hOvOvzX8HY6TvZQk9lIQmxJGo6VX88F6tnff8UPDbvcXzo1O+g0MDy4KTQ27EcPzr5M9h25g542wc/ZHH+6Tdn4qaL/4njP/4FbLPHIfYZID21zXLR2F7I4ZyffhdzyUR89TvfZbE0orW5gDN+9G3cdesN+MJ3fohivgVjW9vwx599H5dfcAE+9OXvojx2OvrKLBMuejVx6smyJkBN4AFDl/NgmAteNE9LrwWmmqb+WpzZYo95LjDcTN8yXHDW95Dt7rRFRVi+BaZvGHP8FgmVk873EIMToe7fV+xlU6pit912x6tf82octP+BGD9+HOsviw4Oht8+62KsqIadCupiYuDXtlPB6kx1JdXcBBhzoXvVEe8DM0x/WlRbEPRjYYS6t05HiLEIuwO4UNeCTKnmwlzxWpvQAk2x6EkE/enJkxb4dnCNvppCK9tzQD9Ki1qpxok8wxOTFkzlhumw9MlEfd5Ct5/YFS36+idIuQmLPX0aVnmT8MSGN+VJXYBpsBAsj2JgtECTZ/lWWehGKQ/piVuj7Us2DEf+zI5uzR/DE8TOqGy0fdVC4KJPn/iSUEHMp/zLlxgw9Zy4dVzpUQFbv0qCjenRveXGKkB/PZkCFt17I6765+8xppGOmb6wGFZfk0cxiMyjpdVSskUi5j/uBCoUCtbPBN2r34nJ0WJM5kcccQRe+cpXYtas2WSAmmy+0cnW9y5ZhjPOuxwoJDsVWKQ2llq9Jy2QbVa1o+oT1KZMlGRP9q2FMjyZJ+2UeqtSVRuDUfvVU35rQHSg/ijGwJgOtiwJ4CABohJAD2pJ6p9mTUgN28fF+gY32s2mvmn9O0MmnP5rTJOlh+ErIusvSkBsX2auFkd/1qfplvFYW1UckfhTDgW70p9itgUL9UqP8qvSsZhooLDNDfVi4K1fhiCs7Vs6SVozKN0GumNQRChbxRD6J+8sHUn4wYRh88qwVBZWJhLGyanSRH+KU441AiiBOjtB8WWpN7dMT46VoqfljfSY6ViA8/9wBgrlLporfu2MCGmxMUcaRb4FIrSVgHQ/0zwmAYIgs4YGMrnsZ3oNQth7773xile8AvseeBB+dv4tmLu8gib2NwnkuIBku1V/0VymNqK20F/AMg81nRR8Ut/1e1NVx6G9md7MhGAfQwt9i3XJ8CV0s915dK/oNK8JYf6w4GivXqc50URv9Bfmjtge1L4K1gcVtvIgvwwnCcDi0U4H9U+FZfOBiPb0RK/sB2p/cq+OEcaNkPqg0wMpuVFIGh+ytQIKXKtmakX61+sbBTusVGGr/CTwlD64VZgM20IUKR6qFoHMQ9oNyrD6TOLc1g+JGtzqRmWkGmG4yp/uorWFFW6iWX97Yd8qZNC98D5cdO7P0J7VrpYQhnl1GNL9S4h9S3OVHcLNMatAPkhCpu6eLurzOGD/g/DqV78KM+bsjp/8+VqsKHMc31ivP9i8wDSxGRQ7FuOis39LxnslujqXYPG8uZg8aRpmzt6T+iewePEi7Lj73lixaB7mPjEX7/2/k3HZf/6OjhWr8eb3fwhf+/RHcNhRz8PRrzkeHZ0dWPTgPajmx2Dq7L3YCziHlnuNn7rxov/gb2d+Cy9507uw/7Evwaoi0y7+j/1l1RP324HDk3eaYzvVdbZQqXMFfnbKB7DjnDl4yTs/igr5qp5l83DGqZ/EjrvNwfHvfj9W9KhcsmhhO/zlj3+AJx66H2/8+Gcxbae9GW8fOpcuQGO+D2f//Afk+R7GmAnbso/lTVhf6l0FdC0GWsYjrwPyWS957VRcuRQTt9oG7/+/r6LSOB6regMPJqGCdQepSf1Kv+6wUBKVtWt1yPAZpr5W8YE3HGk7FaIgQ+v4mnYysaI31U4FzrmDWvAQkAtN2uaSiWOztASZtJ/50uJY272e0OsPv7sUpYax1uhsAbMBEl5PIsMKAgYu+jgJ6Zu88x+8GUvmz8Xixx/C43dej2IPW1thLA4/9tm45qJ/4/h3vBfjxo/Hd7/+BbzmhPfg8osuwe5774PHHnkYvb0lvOXjX0qEChzKS8CEsa3419m/wI3/+AUOOO4teP7xJ6KLYXZz4mtjp175yB342WmfwXazdsUbTvokijUuQllTteRgFG39bm9qxu9/cArmLXgcn/ryt3DzjXdg6+13wKSp03HLpRfjn2d+BUcc9wqMbR+Hf/7xTOx5xAvxqre9G8v6OFDk9V66NtVVML6pEX/9+Xdwz3UXYuYeB6JcbmAjr2L+o/di9Yol2H6vA9iBWsjU57H0sXttW/l7P3MaSmOnocwBR6eAV8nESaqtMlvXutCAJKG7FmCqAX0mJizQwlZFLc5sQcj6b81241m7TkSbBAx0HYatEGf/hOMQtOASY7Nw4UL88Ic/tCc6MtM2UY0Cu+46B695zavx7Gc9C03a4kjYu/z0s7JX78xdilUVnXYeXn+Qn2FNGrI3u9CXbTAKrdf6qmpTbUU1L7O4uFNDkGKDkS16tMQS46xnmTLTyzzBrUJRGzEdE6A0KH4zpxpOJNa2PIWhJ70KnL6VB44nlmb+rN2EqEgyYepoYIMhfybYUFrpV03RmBDzG0huLF5lVGsgObJMk+RHQgWGYZmjgXqcha2Mmhv6p9byooDpToNyyEVIs9Qqy0BmtmCUeEFBKo+crDJaLRLqy6EeWCqmIbEutThQ31FZhQBD/LZIp72Vt9IkO+avykljRjtwwA7jaaKnWcqa6ktxy78iV1hbNmI9iqHRk9Jrr70WZ599NlpbddZB1YQJjY2NJkx4zWteg7322ivxyZKshrLUk8X7TKhwGXl6CRVYL2puNNd8V7HGJqGR2GWCcUZhnvqRqiMwwmpLMtWcSa3mCbpQrctYr8Cpn5TE9MunhFBWhfJXQSnbQD8SKsTemTAcamixnyXO1e5MsEe99Q71Xxrr1SR9scR2DFikiin0/dj+jfFgeGHelv/Q5xSDvFgsDNj6uGVY8Si9wYWadUyP8qYRwQzNnO7Uv6WlgQnZ5JYRidlSPwl9jHmjudnTn9zalTdi6PRalPKtNMptToycomD4JohR7NRTS0OGySyZMINm1ayEeYyP1as0qhR1HxIoN1w20F+JbiUInIAuHLrbFLTSwupQqLt31MdKQgJwveqjM4J+9KMfWR9Tv+vq6jL9fvvtZ6/xHXnkkSbg0ysm3/zjZZi3nGuUpgY7X0R1MOD1B6uf0J50FRRnbJNqF/0U763ik7ZEM2sc1CaQf2sXVp+xDypONgo2aus7SZxmR7N8VkxBEPupP8pOQibd2447tkFNLWqfoS+FFFZBRsN0NNd5YFxIqQ0GgXsI29JreQpQX1IY6j06X0ICTH1uVe7UJ3QmklJWYoR5jhf6MkS2xrUD3epVpArHCXqmmfKkcEMPV5rNwsA0KJ9WBjITaa6Ry5AelVEoAaWR4WiOUpla+mSvniw3IYzENFjFaBKEeAJkV6v0YavmXhy400S00qzObJkLRxoquzLXhpqrdPjpr379a/aXJpujdP5WPpfHAQfuhze8/vU4+KBDrSxXFsv45m8vwqpq+KSo1T/NN6RQIV2nWvO0N+icngzm3nsLfvSVU/DRk0/FrN32xJc+8ymsXLYMu+57EJbPfxwPPvAgPvDp/8Ml5/8dHSs78dYPfgxf+fRHcPDhx+DZr3sLOpYtxk9O+SyqTWPw/i+djl61O87h7c1NuPmi/+L8X30bL3zzidj7OS/Bqh72EeZjTFMevz7981h01234wFe/h9bxU9CXyaPUsxo//dz7MWvXXfDyd38SfcUsxjbl8Odf/BA3XfofvO3jn8f2e+wHJh03Xvxf/PmXP2K4L8dL3/x2rOrWukFn/eqVqE785NRPorWlGW9690cYjs5yaMQTD9+DX3/ny3jFCe/C7vsegE6u3VuYzn//8Xe46/a7cOLnvo5c+0QUuW4IuwHVhzTv9Y+b64ekn5pKsjrUGFRDU7Eb73vjEdh27BhUyuz9qmcOViP0TAUlRIOLbjQIcCHAgrJEMV9aZGlSmdshocLazlRYP8Qk2lXh6ul4oRHL5j+BX5/8cSagF4VmTlbdy7DNLnvap+7yfZ34xXdOA2wrDCuhdwne8L5P4B9/+Qf2PeggLGQj7+0p4s22U6ELjZw82pvH4pIL/otLfvNdbL/7HLzhvZ9AqTAOJeZdW7xzpSraGyu44t/n4dI/noHZRzwfrzzhg+z4NfSUWbE6RK5UxDg2wN9+9/NYtXw+9t3vUFx43h/xho9/EdvtugcmtOTxrz/8DJf97RxmJo+d9j4Qb//AJzgY5NDHBWRNB89xotBvfGMefznj67jv2guxy54Ho1xkI89nsGDuQ+hcsRQ7zNmfjabAcKpYNPdh6FWe933uq6i2T0MfJ5w8TJzHcmP+mQeWnEqQkKrSXHvdmAtebDyi3p6oyg/rwJgw/hS6DtYa21DE5996HKc6x3ChE33f+ta32km+EjLMmTMHr3rNq/Gco5+DxoYgZdbhabJTXxPZToXfXYyVyZkKciPp9XAnjXR3Z6+1a9iqrBrN2+JcS5EgGGDoFqwYIRH7vi2sNEjRr9qW+gbj0wre2ocxCMkCi2EZk0C/FY4XdgAqY7HzFJi/fEMOjWKiKiWUq8mBjIqH+VU+5FPCQw2i2kZq+WB8stE733o3WsKWPONRDmyrdzaMSxKqxbxqQcbE8a8DJLWQkaEOkbNUMkyNaRJYhPyKq9MEYOlP0iHmXzsBlBfb8i1ntNO7eQVa6YCvCuMwpivJtwZyi1sLObpV4OGqNMjeksV7xSC/Qa901wd8ywPzlsuge/UyHLbrNLz52AOCnWNYOP8/5+PzJ3/e9HqSKmGCDo7Tk1NBjI9I/YxFTT1HZs5n9y0OOxXqZyrQznYqsP7txAC28yz7gc7nULvUOSR0oYtsSWGRH1qK2pFI0F3sZ7JjW8w0hnv2EbWbrJ4uMMyydvYY46J+JfcyV1sUQ8N+ov7Ae7XMUq2RaZBwQicTFJEpq2+wfXIeoYbuOKuQASyz4av/WD9TNtR+LbWhD9mP7VbnfQT2ieXDdqj3NFlI6vaMQ4dCMgz2FX1StsJ4lC+123DOis6DYHp5rx2GCkuHC9tYYaUQSsLCl531AzKX8k+dehhNzYWFx3TJVP0v9AiVmspBUO/VTKRSkAv1L5Uldca8Me3kyORHf61LlDWrNguPcdFAn6MsMx709WB6ew0fe+PzVIOOYeLRRx/FO97xDnR0dJhQQcI69TMd1Ki+VZbwnGVfpt13zrkMizrUBklW5znWvtqLxlIJgFR3agNqjaGt2MHA1IbepKYS2oT6gBmo5jkea+xPDAxBx/ZiYYa2LTO1A817CkP9yeqekJDBBFfaDaDX1Whmr/ixLQXhlvam0VQCQnUGQp87tzmEYdiqiH1R7VnzgnYVqN0Xg0TL5mrNldZiaa7cmZBSYwvN1Kc0lnBZabvu1HK1miuoPbNdl/OMX3Zag2uu0nys5CqhRGjp2kWoOY/E8laONVcqXI1vOc2HjFu9SJsF6rB8hxIPpRz1dGtppZnFk+hlJ3Np5dBMw43Mgj5AQVeKPZi1dSM+8NKjElPHcHDzzTfjpJNOQl+5ZLsW9t9/f7z2Na/FYYccYvYa11XSHcUivnv2ZVhR4vywkXYq2PqEqsLWbuvGahHNbIOP3H0dfvPD0/HS177ePsX91z/8FtttvwPe8d4P4Jbrr8aZP/gRPvLFr+Lif/4NK1esxvHv/zC++pkP45CjnosjXvcWdC9fjl9++XPIkwd69+dORQ/brV65bWtpxY3/+xf++6vv4rg3vwf7HfNidPawX3LsaG3K4qxvnoqFD96Hd578NTSOn8YMsS93r8KPP/sh7Lb7bLz2vR/Bw48vQvvE8ehZuhBnfvUUFBj2Oz/9GawiH/Xbb38DjWMm4+2fPhUt7RPtMN9qVrNhDk2ZLqbpE2hpzOFVb38venurXJs32ifBz/rxN/Gi49+O2Xvui85iH1qbm/C/P52NB+57EO/+/NeRaRsLfR6ZpWTzkUqtvq5bb4S+FVTWgNVhGE8aS934QHKmwubcqTDMMxWUkESTZEgJskQpU7pn6sXwXH/nYxyA13SmwvojFkAMTVUkqd0Ou+yMo1/yEjznBS/GnbfciqnbzMALXns8FjwxF7dedSle94734KjnHYcbr7oCu+57KLbabhfM3HEmHrrvLk4cOex56HPsIKwxmSIu+NufcPk5v8Pk7Wfi9Se+H4XWseFdtTwnBU4oDWysup+xyy5Y3dGLuy77Jzo7V2L2rrPss19qQDrwqjHTh7uvuwrz7r0dD99zBw44+iXY/4jncBKo4P7br8NtV16GVcuXMhdiUBoxbuJkTNlqChobGzjxagHHRRobQVOhhruuuRLd3b34+OdOxt4HHY7Djz4W8554DB0rV+Kjn/si9j3sEBz17CPtu68PPfw4Djz6+ag2sVGxIVvlkAJrpDK0a0LCU9eNueBFavDNn3FlyX0ywDRky9hn9rbQd72reg2Ek50arhaEQXWKpCeowpIlS3Deeedh5syZNmF88IMfxOxZbEsaTOlGw5EWBHHg1yCh9mffIWYbCU/9CZqrjiNi3zOTxG8dskssbFFmN3KULK51z0CDn2AX4mDapRIK39zLnbSMXb8I2WuRH8ylhvRpJ4Ke7o5prKFrxUI8dM+tmP/I/ZxMFprAYey48VwkZUw4pkVortyNvlVLUOxahWpfJ2q9K1HsWYVSb6ctPJvYX1o4wWa0fdaYOy64Vi5DpWcFRzaaa/sREeIHJwguqlbORy/jy6p8G3TCvgZa7XxSwpU+TSXMM9NqQhLmMbTwQOZMV2NWwr1MVBDqaaG3BVUwUyvTULYmrNG92YWryjXEoWAGqjKWvd1VSthqbB57zpzONqSJQmOFFonex9IUhQRljuuCTs6+5ppr7KC4j3zkI3jjG9+IqVOnmr3cq61FwV1S0lZny7p7cNPdj7Et6ZmaRmtB9qG2xAiHVhBMTE9/egoZqi9pOapAqeHOTKOfQOonyV09DQot6Tu8lZ1cKGAxDDFmNie5YL8h+8v2LvYjCCdqaGsqoMq+sOiRe/D4/XdixaLHwc5kZ/60N45BqaTDIUsMgH7Y/3pWLAJWr0K5ZzVK3V3sZx1A9wr2m17OTTkU8i3oUrtTysgcVJYvYPgd7GfNXISRmFEJQ5ThbImLvpULgM5l1g+zDW1MFdNs5aMc053Vl/LHEJmPyOzpEspBdyqToA0CulB2UlUegYFSvhNTeTH3tAtGVkbyb0+HLQzGQ3VwXwzvq4en0y2FIvbadYYJyUN7StqX1PrctmVSHG+kai6L85l2KuizdzqbRHPZe9/7Xuy0007mtkK3oZ9pPtMnJR9BZy/HWh06x3tr/aw8VV8UFqlWNY8IEpVlerpQXbUANc4Fvb2rUevqQLV7JUpsgzVSpWulVXYm08w2xVAkAMhJ+EwzCZtrJfZZiQwkQFDf0n47pquas3NMyjZfSBim3TNqI9qNJ3FDSJWgqwRX9pqODmhkwzGhBtNZ0zHyCpVm8bUhBk5zpUlnrVBlWViOamU05ioocR6sMd3lPuZH/a1T/W8lsr3daOPcppPv6TkpH6VE85L8s0wtNq5L2R61EtA5PmXlU9HyvpGJHZOnu84VyHAObWB5qL9ou3wT+33fqsXMbi95sAYmjWMF120ZrjcUqoQ3trOJ6de9HUapdNCcuVAq+CvyXv1YQgtZKGbe2lWuTAkGVCUzqXHMndCcxZ6ztoO+zKLytdcSU+1qS6d0/ypxHFX/0GeRdb7WEYcfjpPYt05857uw3bbbcq0kQV1YbWl3XZF1eM3tj4Qzt5L1ofxb/SRY6/pwWFA69eWtPJY8/hAuPvuXuPqCv+DGay/i2qsL9912Jx5+4EHbSfPwPffhoosuxU03Xs10VLDv4c8m0/2EfXZ4/8P0mfHzsS35rZ323hfdPd249fL/WvgHHHkce2JDclgwsPyxu3H/rVdi5u772RcW+rS7iX1ch17fff2VWLl8FfY9+jjkmsewfzC/fV248fILsNWEseSVluPc3/4GM2bviuk77kReaxLuuO4y3HvrjbjruivJu7XhZSd+CGOn74Ae8l+KUO1c/bZSLeK+66/AE/ffheuuuQnXXXoxrrnyYtx+4xUstxLuv+9BXH3xpYzrMlxz4QVY9Oh9aBs7Hnsc9VwWULMKO5S1yjzpH08fMZxETeozX+1LPinZaMJbE9iafejDagUyiOnYcOkZCI5xah5rh1z071Swv/IREpUMCtqpoDMVvv+Hy9GbG2MDkAZQc7gBoGT2F4I6nAYpffKORaVt/mQ0zjjtFGugr33vx9gAb8BvvvMVvOujn8CYca04/VMfwWve+2nsd+jh6OFi54ffPA1NY6firXr9YeFjuIAd4z42zmkz98Vr2GHbt9oKnUUOehxw9Y1SvWuX01YW1ou+2KD3V/7+m5/jzmsuwLRdD8RL3nwiWqZsxwZZQHnVPPz8S59hPPPxwle/HvvsfxAHhftw1eVXYN7ddyLDRnzsq15j5z/8+7w/Y/W8R7Dt7N1x4NHHYvouu6FBhyySQRrLteyff/ZD3H3t5dhpj72ZZ+1UyOORB+7mhLAcO+22D+PTuRI5zH3kIfsk5rs+exqy7VuR+dTEoCdpYrhYZKoPa1yaFkVRP3xYU2E4GqD09EnvomqrIlcVaC/04cNvfA4mNEiiH6Y7e9q7HvE806HJQm158eLFJoF+9rOfbe/LxclEdpFUeupfvGN9ZrDSdipcsn6vPwyANYq6mlRtuKcn+TMk5rK3AOUnKkoX6zgwUSFurRLCE1suOph4LU6UDy1nCjoItW8lrj7/L7jtiovRtZLMvz6tyMVQc3s7Zu9zBA593gvRNnU76FN0XfMfxtk//gb6VnOxxfGlxnZW1c4cMkBNhSaMnbI1DjzyWMw+gH26WkDXonk46xtfZDkW8Zy3nIg5Bx6Enl597FLvkzN1pU72p+9g4T23ctB/MY57wzuxQt/vZ3vVVnEJBEPWkjJUXagGmEeZC5Y1QgtJMSUqE7mKMJ2KQaahQO3eLGIgRF0bPVDTH0pAaAthrNPrZaXuDuw7sx0nvOBwOwHfCpfLCS3CQxpiCKmItkCo3MTAiNlRHdxyyy0oloo45ODwVEfvcKtPaSyN/S36UcmJgcyxT923dBnO+OMVqDVN5mI4KVPWg5gVerf2Qc9sC6q7UIcDiz65UbUkHSpxNQSi20G2qWAtmEQVlOaIyFxrS0WeC/1xXM/cc/1luOgv52D5gnlkHvR1IjLMjY2Yst2OOOy5r8as/Q7CKjIVDc3NmHvHbfj7T7/PPIWvp+hsAhM2aK5ryGHiNjPx7Be9CVN2nINsPov7b7ka//jpt03w/sp3fQyTZ+6OPoaVJUMuxqRvxVKc+4OvonPRgzj0Ve/EAce+nEykPjup8UJ5SMYJxmNjh+WblGTQyjbCjINdLGezlZcBzoKdEMc99UMh9K70XeKWCnsY06DxiqYaS9GNiY09+MAbOBap72uck9sQRID0WyjSfSa2Qe1MePzxx4350SeR9ZqDXoswhscY1ehPu3KAb559CRas4prKxjC1Xy3kNY5pcaxZTTOfVlrhfBKt8647/zzc9I/f2Ne0tCNHjLl5sKeKrKdiL3Y98vl48RtPxIrOLuTYTtnK6IRtTsIMhiuhggRK2jmnvqIztLS/RWcSqJbtnmmuiaGRP5oWJIxWcqyNMg/sZpwteGEYZqR+IjAk3ptwxBqgdvQyfjJ4auy5HNMrzpr+tBardC/D2d/9BroWLoS20FXYR+2VObpRseih2TazdscRL34116Pbo6O3yCLhvK9yZF5UBnoAkavQnKnVOjXsCOTYxnw0VDpx/tln4YE77kSpsxM773cgXnvCu+w8sX/8/hfoXL4Qpd4yjnvnxzBr70M4P2rHA+tMY6dyyHlZ5ateYz2GadLZDpqPlFH7fCvzqNcgVQOC3Mivxhq9rqEzVCR+MB5BwxPHgF2m5PGuVz2L/U3lRkP6ie2pPmdu4VA5aP6SAFOCtwceeMBelz3yiCOtvDSH6TWIcAB1WGtpN+Mq8iynn5WsDzfS6w8KR0yrHoLqHILzf3MGJo1rYXo68dhdd+MFrzzePtv/m598317ReNFrXod777oBF/3zL3j/Z7+GO+96HCs7VuC4Fx2Lb37mkziEa7ij3/h2LFu+BL867RNMdxaf+PL3Uaw1kioYO6YVN/z3zzjvZ1/HS97+IRx87IsCb8axoZ28zy+45nvwnntx4imno2nC1sxrBX3L5+Ln3zgZldUrUerrwOQZe+EtH/gIxk6ehKWP3Y8//eJnmPfwbZadPQ99Ll75tg+iTL6st5Kzh1pV9p+adipl+vBbpmkMGfVXvf396OzpQXNbCxbcfy/+cMb38KLXvQ277rMPert70NLagPP/dg7uve9hvP3kbyPX0h7O/1PbZjwbpW2rThmuHoA1lFfhpNcfielj21FS39JcZnOaHp6wzu0BWkjHxuxrYSx8SqhIoppOiO6jXXLHxG5oxAKQqp/+Vh4sqGJfmY2AQ3+2kQ0ig159FDvXgG6dJs1GceOtd+Fbp30DaBiLrbabifN+/wec+pGPYsnDj2PGzrsxDA6ipT489Ng87HzIc3H8hz/KAXwaOvvYoXOS+GgS0KBas0WoOnpVA3+hFa9464k4/OVvw6J5i7B4VYftVujp60NT60TMOOBIvOzET+JZL3gFfvazM/DHn3wNHQsXYb/jXo73fPEbOOTYl2LOfkfiXZ/8PI589RuxbNlynPejb+L6K66wp0LQ98IZd5FxVdnQu0o1dJZLWNHTjSkzd8YO+x2CbnbY1RzhO4v6RFEVfV1c1DE/zRzoC9Uem1hUTqoRLdxC3cX6i+qaIR9JcQc9EYJRfVCtG4pURtGtGbD8E3105zDEzqyT5p///OfbO3P6rrfaVnxiqoHC+lLS9oMPK2YjFanI6mMdEJyrb6hF66f6URwKNNwHhjmhxFyqPdmTC+nNpQYq+uF9/89qPqTLLvLOgZVtsbp6Cc794em4+q+/Q9eyuWhrb8c2O83BpK23Q8+qlbjl0n/h9z/+LjoWzwvf/uaM2LVyJXo7FpGh7ma8XLxwwC9whbd66TzMvfsK/PmM03H95RegdYw+odeD7lWPoXf1fFT7VnPRo7RaCiwteVKRk0xfzxKUe7oki+EAaEtOY9qp1Mn80b0xOxZOINmF8gkqdaaP5WV1Jnu5071iN3f8SU0ohsc/KYQhN4KFQYR2Qjuq+snc2obcyEz+FI+5jRTcbOmkslJfEmOjd7olUCiXy2H3AstJjE4sz7SfUPah/EPB8iKzUBWJDd3KfULBCfX68aafkkox9woj1Ll5SCiax7AUg6VBaYnh8RfalpwmdlLT4OJdeVB7bsvXcNGffs/55DtY/sT9JkiYtuNumE7SJ1LnP3Arzv3Rt3Hr1VeiQV824byp/tWzaoF9r7tG5kZClYLiYXmtWjYfD992FX77rS/giTuux5gGPeBczYXUUnTpKWhV84yYh5A2PUmtlnuwesUC9HQvR6WPfdcWNtrgLkaE4ZKUdSY8JN9+oXykWrlFStkFs353ob0HCmUYw6Yqe+tbcqm0KSR5t4jNLLinvcxoafec782eZiEJIQ0G08owqgw/pW4pZEWRUiUQ33bbbXHMMcdY34r9rD6fqSz5kxpI1rr0h2dVJKrXiVhO+tf8kauwzS1je1qGLrbT3o5l6CWj3NvZQyqit0ufVOxh62JayMizobMNsi2SyTYBrNZw+sIXmXIJF2p9PbZW0uuj9nor27Aiz0LC/SaUtW1Z6WSIJTIpYrbtyyryq5bOtOlLTGIY6N3ywtUoiWb0p0MUC/QX5wTtAqiR+VcfUJ4lnJTSuXoFejoXMg+raMR1n8zZXrs7lmLF4vtxxxV/xdk//RYqPavQIDmKhPDsn/YqH8tWO1t1BKShxPVfpZccZxGthSzuuv5q3Hrpn21XYKGpgMbWMWT+gYv+di4WP3QDil0daGtp5rqVAeeZ8qoEBOyjJEkAigxbbL8YUxOcMA8ZrkG1w8A+lYkGlpMeIjHdzLn+KjPVo11kpHpU2aicEr1KyjIfCu5JZO0hUbdEEtRm1HdEWhfusssudiaJSi/2LQkbQv9Quam/iFTWFsRGg/qm0qkv8Uzddge8/ROfx9s/eQqe/7I3MFEt2H7Wbpi03Y4oZ5oxccp07HvEkZi56x7MSxN6yVcd/fKX4pXHvwmNBfbHAtuPvqzHRtbEfOjBmXbK3XvjFXjk5ivw6I1X4Z5rr8K8hx60uOc9/CDuv/FaPHzj1Xjoxitx/w1X2g67hmw1HLDL/BcaGvDQffejd+kim++Oecnr8Z6PnmR96u+//hW+f+pXGM6jmL7bQRi73S64/epL8b1TPo3bLvonVs29l7zTarSyH+oRk4SKKmAWrQkT2sZPQKG5Bc0tbdbUC63NaBzTiqb2MWhm/2pgXvQAopFpDeehJO2d1w2DGE4IO01hnguI855FvYmxjp+UZApNUcNNOoBlRANuFqvt9YfHUd7Arz/EjmZx8pekxAY7jWdaxHAm48DZjG13nIVxU7fmQMvF1fjx2GnOXthu5iwcdPSx2Gr7nVFtaMbW07fB3kc9G7PImPfW8hjDBrL7Xvtin0OOQK2xFd1k4E2gwDyFmNQsSBImmFybTY0tSvKGmbNnY5f9DsS0bXZAX1mTDBdNDHOXvQ7ChKnTUeLAPG78ZGw35xC84PUnYNcDjgIaWtFTLKKPpEM/Zuy6O3Y/5BC0b70z07sn2trGc7BWVHnboj1t5zl4+euPx/6HHol9DzvS0rnHwYezsz4be1N/8JHPwWR24rFTt7f8K33qDOE9Hk6AVm4sJCtGXUKeEoM1IjqPPoRY7+oqmvxtIckFRSM79SF7zkSzPZUIYYf6Mk+6OhLECUMLMTukisWje0GqTQzUW7u3sjYndt/LCeaaOx5FHxs+WWF7MiI3nFqoCYh9z0x46beJetWNXcO9bqSr+wv6tHlQqdglkKWT6bXYzU6mYhqkCWnSoksLqrFNWVz259/irqv/zQViG458/qvxsre8Gwcf+zLsdegxHJgn4LEHHkDP8rno7Kpi7wMPR8eK5bjzuiu5hlqJF77yTXjxG96B3Q84HPsfcQxms78umLeQC8y5WLy8A7sdcBDy5S5cd9E/LB277n84tuKE11dmOvUki2lt4ILu7msux6rl8zBth12xy94HoLuvirxtjeVoQkZK+bByZ9qlWNkn94HMRoammolZJWYpt9Inuif9opuBWmmoWhgDYeXIxeTWE5qw787bqRGx7OUp8VX382S/WyJUhmqfKg4tyqLAzoQJ/OmJudknbkN5sg+av1Dey3r0+sPjXB20WkOI5axxz7R2y6v+pgz+9SPcPZmieTQxvQUW7OLP7s1R1AfXgnTaGK2zScY15cj434h//uqnxjxtO/tgvPHdH8URz30Z9j/8aMzafQ/MnbsAnWQ0Hn3oIRx48FFoaWrFivmP4S4u4IRXn/B+POslr8Y+hz4L+z/rGGy9y2w8xsVc3+p5WN3bjf0PORSLnngEd99wuT2R1iedmyZOtX4eCo9jW+8q3HH1hSj2dGCnvQ7BNrvMQW+5SDu9X6o0qxxDHkJeBtNgpM3T7vopXk2nMjI1WEezcBPU+BOUBi3Qza5aREu+jAN3n4UmJTY4MDfRR9ArlICobgmI85eN/yqvBJrPRMJge7smZahdrNfcpdcfxDQxPFlyMaWn4HKuNYXO9uGS3SzFrDcUynj8/tsx957bMHb81jj+fR/Bvs96LvY67Gjsdfhzse/hR2EPro9m7rYXmYomO9ytubHBvn3f0qxzSfQwqMz5VqfJN2JcI8cCnXfANVJTY55zACMmE1CuhDlrTGsT+0UDMmTSW8iQ65UYPQEdQyaiWirZ63JtbWTIyXY3M92NZEK0u7TMDCnFehWvwK7Q1tSIloL2ylXR1trIcajGfqCnz2SmejvYRy5BcfVCHHD4MXj1uz6I2Qc9C/s8+xjse9AhqDCexfMeQc+qVdhmp10xZevtGV8O41ob0MBxrK9YDnOApQE0Vzo1T5QwZXwb7rv5Ojx89/Wc63bBZ758Ovbc72DmrYYrLvgXOlfNx/Nf/kac8OkvAO2TUNYuomwJLcyTjmDJsbzamW+9pqQvNOjzhJpD9fWx9mbqyVAW8topnEWe9qpgrUWsT9ufP+ZfdasS0YgpKwaGiW057DdnB5Yn2xHr3fqSLOmov70EdUtEun9Zf1LRRD2hMlJ5qr1aMfFePJDagj57qvVhr+2G0VwX3KsOIta2PhwWmJYI88u09pSKWLFwPu645hrsdfBhaJs4DddfcRkKTJh2q9x2/Y2Y+9AT2O/YF+JervPuuvZKPHDzjXjs7lux496HYcedZ6OnZzVuuu5yrF74BG6/7lrcdt0VuPOGa3Db1ddj7iMPMp4MFjw2D7defTXuvP4q3HX9tbj1miu4TlyAPHmqfbguLLSOs3ak3aeLFy/Fs447znZVX/Svf+PCP52D+Q8/gMk77IyjX/smPPc1x2P2foeyPJrx0B134b5bLsBNV16Dh++6DS3jJmHqNttx7dlt89wT992D62+8BVddeAGuufxC3HrDFaj2deC+B5/AVZdeimsvuZTmV+DRe29D25g27H3Ys5CTwMTWGRzn1BmStv30EMOQmuiT+szX+nDwHjuE1x/EBWo6Uwdk+cutWoEc1vvYBknPkzFMocLAySPem5EqkIoadBAqPLbBhQqDYZNQgnCgDgdSJmKbGTMwaerW6OkrobGtFTNn7YK2sROw9U6z0U7GvrOnjPFTp2HrObti0vTt9fYcSVvGamhpbWMYOXbGrH0LPHy7PyRf0WmK46xn5opTJxgr33r3vaVtjOVX6dDWU20fLXGE7atQT2Zl0rTtMGnGLBQzjex8rG66s3AZqLYi6WCQDBd2287aHXmq+lZ5ptCAHk5Ak9iwt56hT1eW6a7K9MG26PQwLX2SUtOsm3bjtppuE08JDba7QQIJpU9v21lj4jXUYSQhqsNHrHe2ACMbrBhRY648pFAhYN3j2RJgZcl+owlE+qgmlvVSC6UZ3PckQgWdqaDvtpud/KbK+GlPGuuAkF6loh+hzTFNyUTY1FDAvIfvw3//8HP7gsF+R70ILzj+nehrHINV5Zx98WTWrrOxZN7jWDz3EXQVs5iz335c2PThpsvOR6W4GnsceAy22+1AVJvGotIyDtvttAtKfZ148I6bUOztxX6HHMnFTQ3XXvQfS8Ps/Q4zoYLekZNQQe8b5io9uJ2LuI7l87HVDrMxe5+D7HReMUOB2dRyNkBtmzamtyxu1FJ8amihWykFocI+O2/HsSkZk5O6ThLpSFDvR0TsV3XizwQLKXMhqhr3TahgZyqsXaig+80FSyeHdqmaofJMS6HYiX/97kysXPIoxm89C2846dNom7oD5wjOG+yXW223HcZPmcQF2zWodK/GhGnbYuYuO2P5gsdxx3UXW34OeOHLMX6HOSg3tiM7ZiJm7LwLFj3xMBY9er89aTqMzNzKxYtw+/UXI5tvxu4HH4m2SVubAF1PdPO5DMpdq3HLVRfZ++4z2G+33Xl39le2WfVDzl0moFfRSVH6N2M5CmoTGkO1ttCuqtZCBQftsYudERRd6K+kGiV6QS4sC3a3ZSDdZ9KkPjWUeT8kVACuufNRdPbRvXaI0UxrptivdA1nA5jY3BbLTfkcHrn3Hsy991Yu+LfDUa96PVomb4PmCVPROnEy2ieM5RpvAhrHTMKqVStw9X/+hMcfvgvbTtsKN196IW48/6+olXuw+847Yu59d+Kai/5GBugSO/tq7r33IlsuYupWk5kGxpqtkLm4APdfdSGZczEct+Lqv/8dD99+E1YtW4Cdt59mT0ev+s8/cctl/8Ojt19PhmgFpm23I0p6rYJz9PhCI/vACtx4xQW4+eJ/kYm6GPMevQ/jJkzGuLFjUdYT/2IvbqN9sXMZdpi1H3Y95BiUmicg2zoGW0/fGltNGk9m5UKWRhbbz9kH28/YFffcfBPuvOQf6OzswFT2Za0/Gwt5LHjgbtx8/l+wcuVSTGA5XP7ff+GBW2/AqhVL0NjMNSXXiPfecwfuuu1mPMr8l8gsNbaOxWMLlrLvTsH49hZkOT/edOUluIPldfvl/8X8B+9Ee1sLJk2ZarsWVI23XX0p7rvqYmw1vgVLHrsfl/3lXDx83/2YOWc31j3zLuG8alDlyJ/+ukhRV9KukYmtOew/Zwf2ey58NX6Ze7kjzEsYn4OvLRPqMzbHs9CkV78aMI/JjQrUzEKZyVxnbm1soULavZKgnV3NjS1YsXghmf1rsTfXYmMmTcUN11xln1m84crL8cg9D2Dng8LrrdddcQlu+PsfMffRuZi47Uwc/IKXINs8BiUOqlOmTceO++yPOYccgb0OPBRz9j/YXtPb45BDseuB1B9wGOYcdBh2PeBgzD7oUOx96BEcRzhecK6ac/BRKDAdJZbBmHHjsNehh2IK+b2/n/tnLHrkCex+2FE46mWvwnNf8kpMmzkbq3pqyLdMwE6774Xd99kH4yZOx4rlS1DhAHXoc1+AHHkx7Zy4lWNE89hxOOK4F2GnWbOx0+w52Hm33TF7/0MxY9c9scOOszB7l92w6257ore3SF6tgj2Peg55OH0ZMKkfXda5pIeC1WiiJqTwqeYrpf4zFdgNQ1uR8xErVNDgHzIQ7y1NNFLWNqVQQTO6bXnU01ptVVBhEXZoCUvT3jVnhyyWKyjXsui2VyRKtr1MZj1k2iskSZI1dKnIVQmSjovJD9IlhsqLQg4bwJSfsEtBZwnYKeC00U9SIemtTBSixIbalKY00qxc0oErZYspmLFMrMNLQMH0iwhtgdeEy6BsQFEcyhPHc+u89iSNDJK5Z7ghzuChWK6hzzyzTMggKUV2GJX8US/3oUbsLqWuG0JDtSU508hmqmA4qDTmKzhkjxkuVBgGQhkOTdHeVLvG0gzmevKiSaNH73OyPWtxK3PVbsSmEirEdCqF6i92qwSxUbCJmPRcDHtrUxPuuekaPHjTxWhomYTnv+4EZMdthU4uMGp6pUj9rFriomx7TJ0xC7P23x/jt9oK1c4VZEz+h3KxB7vscxgnglno6O1Dhn6aG4C5D96GB2+/jpE24qCjns8Is7juIjJGKGHWPodg8vY7olhh2Jm89eVcrRe3X3s5Vi+bj61nzMbsfQ82AZwthtQvtTlUY4teUEyyFph39bXNCxcqDB+xbGwMJWkxtia13oZjORK0svIe6UKFkALmkfOBmJmmAtC5+FFc+o9z7ZW+g455MXY++Ais6O7jUFG197R72edax40nk7IHdt5jP0zaZgZaJkzConmPk8G60vrQnocehbETt7E5S/nWk8sHb7kJCx59ALnGsTjqmBdg2aJFuP2GyzgdtWLPQ56Ftslb25NazW+KR0KF28iglHpXctF2AKbvtBfDYxmzL+mrFZonNVRYLlScm7UcVZJhDLXxtFZCS6GMAwcJFWSnpFrtJ3rZiqJ+S0DsM1KHQ4njoLKUglDhMXQWWeY59kUzS/qVOZMa2ojON8iJcc4X8OhdOnD0FjS3jcUBRx5qry7Yw1q97lkjZ8FFXCXXgoXzHsP5Pzsdj91/Gxaxzd500Z+xbP79mDhJ71uX8Osf0O7uq7HoiQexdP58zH/4Ttx13XU2HszefQ7XUr34669/jEduPB8P30Nm/bLL6O4BLH7iPjx0+/VYsXQRrr7oQtx7/YVYOvdhLHjsbtx3yw1oGTsZ2++8MzJcs3UvegLnnPEd3HrZP7Ho8Xvo/0HMZXoevPs+bLfDNpg6dWsUuztx69WXoE9ChZ33wK77HGBfe2rWGRKZIhn8y/DgnbeyA47HYc9/GefEKbj43+fhlgvPsh14u+1/oK37xrY245YrL8SV//g5Olb3YtYee+OP3/0aVi17lGWZQ8/q1Yz3ejJ2d+HxB25GietMld3iuY/jsbtuwf7Pei7Lt4azf/Ad3Hz+n7HgkTuxbMEjmPvQ3bjz5jtYbpMxdZsdUCmWcf45v8R91/wVCx9/3HY8LH7sNixewbHm2cciZ68sJnNnrH+rTfUtjamSt5Rtp8IBc3agRYVrXKvwxE/U2uhg6paI2GfSfWgw8WJzlFRTEvebQqgg/xF6DcZeFGCnbmxuxg6zd8FWXHfV8k2YMm0qZu+5Fw5m29jn2Bdi1oFHoER+bPsZM3Doc56Hg499AfZm22vm/NNbyaOaa7QHsFO22wlTtp6ByXoYu832mLzddhi3zXaYsPVOmDx9BiZN387UKdvOpNk22GXv/THrgCORaxkHvZyk5Nkh1kxTvnEMdtxjH+xxxJF2Zt2U6dvbg2P1G05mKFGvwyBbJ0zEzN33wpwDDsc+hz0HTe0TuDakBctx9pw5NifO3GN/TGXaps+Yg61m7Iqp2++ErWbuhG12nI3pO+5C2hkz5uyF2doRNGY8y0kvG/XD6u1pw2o0UcXlEbxVj8mzbx20p4QKDcbPKr6wdJU71Tlv5DZJx4ZJz5MxzNVyzATVuBKw+0gbJ3FrggrQ0pGRAEGNKDQk+2QQKzKkSFtOyHmw0UuYYO+A0b0Or9Bn6vQ5HmVe3U7CgtAAQodV+HbyrUl4tPihCeOzgU7mmujILIXC05XxVMNhjiW9o0pV79PoPSGOmpauJjb3xlrR/GmrtU4f1mfEdGJw+GSYnvDo7bgS7UP8eZ0QTH2D3mfTSpcwO4alrXg2NJhghXFkCxZPlpNRodqNxgpV7YCI6TbvuoRw+tU1I3pJ+woa1Tc1FmiiJunrR2JnGGy3ZUMMTVQHUzSPGFxyKupQlwP1mwP96Qz9RmpoGswLEyZSl9S20+6lC2lRwoQJUzBp6gz0kMHIZ9hm2X7VT/vYf1qmzMCehx9nn09tbB5rk4KdX8JS0OnY5Y7FyPUuR6ZjPh66+Spcd4kECFm0TNwKbRPGc6IgE5SUmIR/1ldIUkO6gpmg/iynsdxlXqMvOyyMfTHo1d9D/CMZIzt1mx7pSTOtj6rVd6LW27DVf1DrJRoMErNwm9gY0vrNAWufSh4vVZ3Eni+js3sFSt3LgXwDpu04A719Zei8kAznhGrnYutDxc5V2J6LtDm77Y0Jk6aimwusGhkCE1ZzNZLr7kJt5SJk6Ta/cj7uvOS/uPuGaxhjBtOm74B8c5sJunUfrlSVDupVVEyVdLSQCXUqe0ujypg/6TVtJnUSwxnpUCqHIiGqWwJin4n956kocRzUOngvI5prhaKmYs1FKhUd8mdrHo7TFa7ZbLjWu/5c++ig7bN//E38/ntfxh9+cBr+8MOv49ffOg3/+/ufUKj1ojVbQrZJn1wt4aE7r8V2s/bBkS99O3bafX/8+dzzUO5ehG1mH4S3nPQFfOCL38Lhx72c4fbhpisuxeqOFcjns2hsCJ/kW7pgPp7zstfho6d9D/sd+Vw22Txuu+ZSdHf34e0f/Qre/YnTMGX7PZi4Htx33aXIdK9EU7aKP//hZ5j30DXYevaeeOuHv4h3fvwbmLnXUehYcA/++usz0KsdBDpI0soli3tvvwXn/Phb+MfPvol/nvEtnPm1L+B/f/kjmaJWvPLNb8N2M2air9iJ5hauFbNZNDfk7OT7vM1XVHPBXIdKtraNwQmf+j/sc+CRTFcfmbyZOOFjX8YJH/083vaeT2L8xEnk57tw0LEvwTs/8zVM4v1/zjkLj91xGcZttQ3e8L7P4p2f/RZ2O+wlKK5ejL/84idYuWieHZbZlJUwtgmPPXgXmlqaceALXoNjXv5Se5AVqkt1lfQM3QddqOpEr3oOes3Hdh2gF6K6JSL2mXQfWjvJrXmxco3XqGxM6M0XNgh77SLf0mYMPJrGoLNSw9QZO2EcmfhM21bIt08lz8N1HtOUp33DhG2Qm7QNSo0tdjYJshIHVNBV7MPqnj6s6iljFR139Faxslf6XnSQOmnX1VOkmwpWdcu8ggr7aWNzC/umHg6Jo2Of4Pyih0Q9Jfbl8VMxbtuZWMk+u6KzFyW6F5GT49qT/YYNso/xLu3sQ7V5MkoNEzgnZkwAUiHf2DxxKrJt47Fkda/Ft7yriKVdfVjZU2V6lL4SVvT2Yn5PF0rt7WhlHzKBJ8ugjg1WF7FfWE8aSMyHfgZ1stjRNjECX/yUUMqUcCVUCi8iu9n0CIuUmIxQeDKTIEGftbJPCRlTIAdaQGo5o29pa+DiookMuZiOkk4QphM7e8AmrvC+pxpZYEaC0KKireZyaFfbq8CYAnNv8VhZqDr1eRdA3+Ev21t0DF+uFQa5q4oJL+hTDZlhB//sTEqmzM1eHYMGckMzY4LoVq9M6LOWJplXqDSrp4fhB1IMOs1Y5xYnDBb/Cis0NvNJEqK6ZpgLXtK+kqzyH00TUprrSMcV9Y6INIMzmKJ5RCxBkWDlTzIXiX5zIZ3OAKaSRmqyoT2qbbI/lDlJdJDRIfSJL+iJBtu2Pv2jU4mrNb2C1ATyP+BcEr7tW6J/dkb1Nr1be8m//orvn/xx/OrrJ+OXX/s//Or0L2P5XD2JacKBRz0XrWPGU8/JKUdiOqw8+TPehT+1V/1CAYb0WZ9QAo3kQqSxgn1SfT+xtnyNBCgZSVJsWEjUkCNHRLofxd0IUR2KhDB/mKdkPJeZyljjd7hXgZsuKfvEdLMhjOqaS3RWvXbeZdCxtIM2zCvz266FlgmsOfd19+K33zsdv/zqyfjN107BT075FH7w+Q/i4r/+AWNbOVeVe5mpHvqr4E+//gl+8uVPsZ+djJ997XM47+ffQm/nEnbDdnvqpHN+OIsyHs1VVmShHfJifUhlKLOkgOzkfek5HkiwbwfpWdr5k2d1tFEApXIoEqK6JSD2mXQfWhsljoNah+pdirWYulFoM1pbaX3ENQ7bhnYx6HOP5axeOuV80le0VxEevfUqzL3lCjxx41V44s6r8eBdd5kgoVArIlMhg0CaueuheOuHPodjX/12TJu5q30xa79jX4fXnvAe7H34Udh+x52x0+zZbMpNnHc4T61YTma/kfNSjv6L2PWAw/DsV7we43bcDfseeSwytMuQqX7uy16NmfschO323A97H0bmnX2hq2MZ+1oRTzx4H56462Y0j52KN53wThxA+9n77I/jT3wvxk/aFivn3Y/7mf42vXNtgvAMlsyfi1uvuBR3X3spbic9eOdtqBS7rSTmPfIAejh/Flg2ZTI/9m59RYWltaTWvAyB86rMTUjB/rnjHntj3LStrbyaJ07B9vscjOm7H4AZe+xPpq7ZzKfO2BGz9j8Q8xcvwV233IB8vhlvfse72Mefi5mz9sLb3/Uelt/eqPTMw81XX4LWBn2Ms8h4+tDSvjVe+56P40Vvfi/2O/J5yOp1W+v/+oW+rfq06iSsi9PemOC6ufSpnhMdb+GIfWZwPxqKeOFfY655sbJXAVtxyyxVvBsMamOExW+CPh3AW7a22E2mWxyI2q12xXX2ldBXK9shoEqVvkxSLVfQy3bcyzlHD3F06KgOlc8zDH1RRF/q4vTF5s3+kW3kdKaHww0043oxF9zodVbbkc2kaKcrO5K9wmSv1JCHqtYKKNuDYq4zJfkocj3H8HINOtBbiec1p7g0k1XQwLTT1nbSVGluQgm60TpQr6drY0PgtUL6bEN2VjtgSeLZaMCaMGF7uUJ/ZfJg2qobG3tSP08flvpEHUix9wnS27i6weIdPoYpVFDKlHCqpmiwJxmi3aZDGKBYfEZMh5EaQEyLjmlkS7ABjPdqaGrobABWx1zUyLzExU6QgrP45YwXDXryZwbKruKQuXVgdV6xOZrwaC/mw8qBjdDM9QmhIiq5GifBjI37wY48EhtgiR1DOxQ0SUqwYVv26N4WWgpV3zlWGi1kxaI0KX3Ua/JgHoLKUC09avwKXw1KeazwJ1EF4+IgX+RELCGLslJfGK8DlA5dpEZSWCqXtYcm27qPRHWsD2IJxvJee7mPACT9xfoe9epP+mpKe3u7WWtyKRZ7aJ/0HU4m2YwGYPaA8ip0LX0M3SvmsxX3Ia+JQ6/7sC339HZjxYqlWLlsIVaRCk0NmLDNbBx7/Ptx0HNehGKPTkhRz9DCk/2pKsFAKD0Nr+obhqQfhH6t8UP9Q/1HfUwLWOlCOcuXBWF3mx8aR0SCdf9EDWl0RIR6D+pQFO3SUBsxE5pb+5UZm5PMTbCr+1jWSdkPDGHTw3ahMSGai7QzLlvJob1tCm2aLX99vV1MZ8UYDYkdOlf3oKezC12dq9CxfB5WLX+MjNAi+ue8ZY+ctFiqYvXq5fZu6Ur2t45VK9HUMh7TZuyD17/v09hpv8OwurfEeSeUgM2FYnIUhzE4TE0UyCWNNQrGbS62UpOlWdXLdjRASR6KhKg61gFJ1avs6uMaSUIyrXJkrXWOHshoUS/GVZ4a28bhBW/6KF70jk/hee/4JI5916fx3LefjCNf/kaUG1qNmRBDotfi9jziWKB1Mhav7EFDQx6vft2rse/Bh+D6G6/HL773bXzvS/+HX/34+5we2FcqfVyTsb/0cX4St0JM3WFHrKpUsKKbbb6x1XYvaB3ZOLYdq3p7sKKn106D1/pSq06NHTqfhFwMwyjj/L/8ET/8ypfwq29+A3/+7W/YJzk/VXUA41x7nY2ZpdsKdj/gULzjE6fg+I98Dsd//PN40ydPwSEvep2VwrX/OxeXn/9XtBYa7dWhAI1MXOuxbCqcJ/UZPAP7sdaOXTQoSThP6PPiq3qqWNWnr4hxlrQwWKb6YlipjJVLlqGyWl9XasLFF1yAM5jWX//guzjrJz9g/1+qQLH4iUdQsE9iiomsYcfd9sb2cw7A/OVFdBX1bDhUoJUaK1O/AeBtnRlOjGQY75LR17GOUOlpFI6lZ/q4hqFh7FcbEopLc6GEWHoAK94jx3ZsOwQ0B7C/5K1FqL4lUA6J0NUO5tRKTfOH/ZX2AkkHgcqtZrMwr+khsIXE/ibeSG7sSyNyJ0G5ph26N6EDw9WOvCrXkZrJbAe3RaD2yvUl+7XdJwVlvYfpV9qVxgr7hIQDOi0vq6+40L04KQ4KXIMyCl7yVC2PMteVSVFXUpCab/XFJOVO55womWWVjepig9ZDDEjqQNI1yV4wiTebGBpd1h2WWqu6zYNYYqbyYhQVNQx9w1/bOfVXFiVWYsOnHxuIdc/kZ2qcBlThNsiyoWgxRF2Amh3dWYdQ56AXXvRqg1pZ6MihE7DFWRcCG706jRZ44bv3oWOpRWnukA8jRqpGpgWYqkA+wyKXDZgN3bJGUgmrY0mEIQNNtPKve9PRj+1gsBAslbywg2hSZau2VCp62enyNCDvSq3FxJu1BxfS81SuHM9AWOMN7Vrt214SyjeidcJkmuWxatkSrF4yHw35BhQ5WaiLFdCLtkIV9193Nc787Hvxu299iYuZZRywaW+zSwXPeeGr8dEvfw/v+NzpeNvJ38QJp5yOt37my9j36JejN9OKqiTFcpttYvwNdsq3uMIqJwct8HTSt76eULZ7Oss3I0/3uXLR+onSqYWr9TUyYDnr+9TGpjwCEMcFQVmVVvfSO/phT1ASdSiKdmtCtAljdj80HltZJ3WwuWH1T1KL1pxWZP/KjR+PXPsYrqM68egDd6NZT13Kvci1teLdp3wZJ335m/jCN76HOXvub2Wgrzegql11Yth0On4VrzrhgzjxC9/DOz//Dbzn/0jUv/VTX8HMPQ9FN/kgHWxctt0GXOyV9ZlOMSRlPQwKfVr9qa+bc5AWdOxN6lLsV1o05m2xxvlP7lSYo6wBK6VxHrRsOTYIjLcmrFzZHrTDxoQJbB9aNWVrXNNV1bbYnhrbsM+zX4i9n/VSHHjUcTjgyOdgv+cch5l7HYg+rr+0/rHX5jh/jB8/Ed1so9WC1ktF/P7n38fPTv00rjjnLNxx4w0o9vZh551nMWK2Ss4z+gJFNaeOHxLUyLkkq3mItV1WmHpEyfDz2rGQ05NT2dFMLrKNXGPm0dOp3UJl9Pb24K4778UDDz6I+x64B3ffdS8a2sdi4ta7oNDcbturbcs2MXbKVOy4zwHYbo8Dsc1uh2Gb2Yfipa9/B3bbYx+6AR69+w70rV5pZ0sImWov51CWk4R1NhAkrbFSRKP6GMMNrw4ydbQv8D7L9Na0U9DGPgkblR2G0bva/CmPD9x9O+67+yY8+OAduP3O29m3s5gwdQ7ax01mWelBQIinbXw7KmXmnwxdhUmyMYj1Zg+71tIzQor6Mfje8fShvhTHqKQZb1AoXLU5zR/aWS0hlV41sIe6Wa6c1MbUa5N+Y69n04Wahpqk5g+N+Xa2DucB8VHG09CB1nDmmn704JW9jqRPtEoIoHDZt7XzLas2rsesTAMbn/xb9BYXVXtwLAp29tlV9k3t9pYkQGdAGC9HB9ZuycNVGJ58R8GHCS+UNsVrbkWh/1sqK+IfxX2pkEO4Khh1Ec11OmtCedb4tTHqweJk2P00MqBUDQNKsErFSogkNWYi2m1OsNKUjqRRqkGqAQRTNXzqrVbFZCu94T684kAX1sjpXT3FSA1O/tRcFEKwk1vd1+00ETEeebFwFQ/vNSnaxJi4Cz/FnRD1wT/NzV9Qg7AhxB/yQTupZidn8tuflrQbe/Ia75UO/mL+LHz6W1cwSrtIFYW4+80GIm2SODKSrye7dgwPsQTXp/42PUIqrR8l7VkHs/UWK5i+y14otE1FX/cy3HjZvzG2oYQmTT4csHXCboGMz0M3X8NFTCeaGpswoX0CGZw+NmUxJkW0jRuP8dvOxNitd8SkbXbBmK22R62hzb6KoiexFQ7uDWScWsdPYKGVsODhB9BWyJKhCWLEMc0N6Fy62A7mkhijpX0i/XCCk7Sa8WvpaqWd9B8bP6gP5iOj9G0MUHIIFbG0SVE7niZiTatAbT6QluUqU2vP8V5lrTIPyoiARnv7vjf7y4TJkzF1uxk0reLO669E19K5aG9pNOFztoH9avIUdHR0Yd4TC5hVMlDlIu0kLlGOAoM0fvJ0bLXNDDska+K226MwYTJ6cwV0l8iIJLvf2saPQabQgkqpG3PnPYa25gKa81XkMyWMbW3AioWPoqdrGYNsQhP9V7VLjykN8yEXgzpbSOWpQlTUowBK5lAkRNWxDkg6kMpOjJBuzYgGoa8lfZE34fODQSAsYVVX52qs6u5BR1cPOju7sKqzG709PebGzsJSP+Yw3tigp5gZNLPtP3DvfbjtysvR0NSMV53wXnzitNPx/s+egmNf8hLGyQhJeg6p+OtjQEVMu8JTGmig7d5s43qCqbarOLR7VWy1rtp2PW6yXjvIY8zEqfjIyafhw6d8DR86+Sv4zBe/guPf9ja86LWvw54HH4Iu9odqXl+0z6HIsHo4F/ZUJLyooVQsce7KorFROyOAMi8KH9oXTpQZZ1+ll+nrsTMcshKiE9lcTjJ4ZKp6sBYEFrQkqb8pA1S144AQc1ap5NDKeVPhFjhffugTn8XHvvRtvOszX8YnvvZdvP0DH8aLXvN6HPrso1HSbigTGirfZO706JZh5rTdm6r6NgtKBcIilD4FK1Oaml1Ev7tk9HWsI0KJa/YKsJU/24ruVd1RWLchYTyL4on1yU6guUR6440Uv9pDYhZI6UnM62bBPPbzoNKMYeheubLXDUT0q/MPxHPZw13ah9fUmUcLh31XbuhXFMO08Ni2w+vtwSzGY2ri1tJk6eO91n66Z1xBlRntzFxzWPCnuGllY4P4PrOXXn6iPVVeVFpWdk8fMRypA0nXWN1mshHqfjgII9RTQqlLktyfhwTRblMjHScrXOmoN1qlM5jpZ42FlauqtYYeTK0BBXeEGo7dq1HQVlR3y6ATtwPsRNLLnvr++OU+qKGhihR3Qooj8R/9Bb9qGCGemAeFH+1iHixCsw9qTFOIJwnX9Ior3tPtOsK8xOhIjDGEY2Z2108DIog+RLJP2znWBbEERSMfoa6tKcT2TH2RC6TpO+yM3Q99trm6+YoL8L9zz0SmYx7aUEKmezX+d945eOCOm2nbht33OwRNLe0Whm0jJbTDIG7p7Ctl0NfHeKjXtjRJxnXqcbM+HztzFl3ncO/N1+Pa//4NjaUO5PpWYtlj9+O/jKPc3UX7NkzbYSb9cKHGhZUWktbzOPloogppD2T9cYSUvso1djOVq7RSR0njGNGINa0C1TjbD7Vn3rOM1TREcpgomxex3pUuKhKQNTS34fDnkUnKjcOy+fPxx1/8GMvn3o+mch9a2dIXPvIQzv3dWVi5dAF9MG9c+dgTH/YDCdu0JNBXHPpKVfT0ldFdrJDZ4T3jKNOtnjLpQNTJU7fB2K0C83TNpRfizusuRWPvCjSzrz1+5024+O9/Ro1+C+OmYMK07VCmPpPP2MFX+qqRvrBic6CVbczIyIZSORQJUXWsA5IOFMtOt6J6ubIfqi/aw5F+U+ozKLDd6KwO5Mg8k8HVDgE9PySbTGcSAog4vqt9kRluzDVg6cIlFn5r20TM2m13TJs+HYWGAm6/+Ra66TWGvInhMcQkJjEjOtSbjDPbbDjwOxknLE0xtQL7UK1sW7/12XI0tKNj8ULcd+dt9qnKrUkrFi/A73/5M/zmRz/EgoULkWfceh1Qfourl6F74RMoLpmPjoUPo7RyHq763z9x9x1MG3PWMn4rNLaOQ2NLKwugCQsXLUBvx1LMmDwWfYsfx/23XG+p0JPV+FWMmDLt2NNdOIC4QgpCBe3kKJaymDBpGtomTkJ391LccPNNaB87DtuzbPo6VuDsX/0cv/vxD3HvXXci39jM/AWvLAiUGC5DRZ4R1Rk5jZ0sG/36obhlHMzDL5hHJKXqWEeoBNVa+0tPZRvuBkxjGxDGQ7Gu6zyP3SfmFjt/jDya2U9O1WdlXjcLqs2pJNmZicKWEd2neabgNlI0l9eQDsUb122yCH55X/dj0ZgqXXAWwrI0hQSbg+iv7p9WMc/RX0wfow3hmFniJ+plrnRQ3TCI4UgdSLoyKQYziTebGMMUKsTUDZXKzZTyAVBzYjpYyfEXzUwvcykylSaYGgV91EUktkO4rZMFGPXShvsYWlQHmAUndXOzqxsm7g11H4ESO3Mm67qdEPXBj7k096ZL3T99hPAENllrsQlZx1IzHgrBh2P9EUt65COkst7mdJsMuj2VIg55/sswfbcjUKv04cq/nYUzvvQJ/P7bp+AXX/0/XP2vc+i4hO1m74tDjnkeOnp6uPTRNtbkaQvDyeR1+A4XetpyykWeDf5qi3pqoq1t2UYc9rwXIdM+CcXuZfj7b36CMxj277/3Nfz0q6fg4Tu18OrDnkccjV322Ad9ZJ6y+SBUCBOH0pykPfkFRHXzQqkYMiUjI3mjGipCG8F4sXZLaEgzspsU9SubF0ki1MXKarPZBnQWa5ix+wE4+EWvpX0zHmOb/+lXPoM/fOuL+O23v44ff+OrePiOa9HQ2iSf5l8nyPdzC2L68+xjYtYaTA2vRqifhEVUiXE0s48d9eJX0LwBXQsexzk/+Dp+/c1T8LvTT8WZXz8VS+Y9SLsCDn/eKzBp2vYolvvYZdnT2G31Dnh42kQnSsKIKMynhpI5FAlRdaw7VHZqCxyCk+YQFuN2vo1IjuhA7c+0yXZkvR6h9mjneKg9yZ73YqyR0XvaYnw1PdBtpYQpU7eiWQErls7Hmd//Hn77w++wP5yGK8//B0PNoq+7Gxf+498odaxOFsYhbpHSp2i140evyypsm390L0u60usTfX0lTJ85C/s961g67sbff/sz/OQbJ+PMb5+GX/zg21g2/0FMmr49Zuw8C2UdVGevHdRwx3WX4EecD89kX/316Z+3g1LP+8V30NOxEGiZgEOe8yKUygXM3Gk3RtWMVfPm4Q8//AF+zzB/etopWPhI6G+lsvblVcNbGupsQiVvrz/ka/qiGGPjvSARTJVdf+zUbXD4sS+iSTMu/ttfOFf+H373va/gF9/+EuY/dCOa21qx2777YHVJZ6kk8zHL3B7FqlaoiJgNloVu0nOnjHln9cgfy8rIzEVP/gU/QXWsHaGUB5Z18rc6saa5gVHnoaSqrgfdh8jNpZnZLzG2S90sqMEyOEhskt8Aq2CSdmtK4jKaxV804pc2ytsAAGIYSURBVKU/XcHO9Ika7mOapASz6K/uP9gGvczsZ1pDchd+dfvwC//E4dNGDCfEl6ZoI0TTzYFk1HE41gVsrjaLSAJO0qLU5wBHvRGEtmHbRtlU9CS0xkVd84QpePUHP4v9XnA8Gtomo2vZIjx69/VYPu8JFMZMwIHPfxVe894PorfQgF4OzNV8Mwot05DLT0auoZ3hacGkU4a55GC4JgUm2dOefN4+AzRl+9l4w7s/ih12PRi5bBOWPvEo5t9/D0qre9A8disc9qLj8dzXvsU+o1dmIHauieLiWsme5EjKbE90Um3a2/YzHqpim4R50VM+IbSxpPpHeBswhj9XQ6lWsh09x778eLz8xI9i3NYzUOvpxBMP3oZH770FlZ5e7HHo0Tj+Xe9DrjABtfwYOwehWmhGrnECck0TGU6THTYlxl9vtVa1jZr9TGKFrOKR8KK3hjn7HoKXv/tDmLTtHGTZgRY9cg8WPHofMpUMxk/bCc9/2wew37NfiM6y3jvlOKD3jZJHqCZUsJTzSr1jy4a1BTaD0BJ0zbCtcXy3OURf6uJdYxvngvHItE1AOavzq4I7Y3AJ3VbYVstoRK55EueOqWy/EorV0NPXyzlhNg592SuQbWnDwkcfws2XXYhH77obhzzvxdh21t4mFLjnzruwursP+eaxZMzHcl5oYLhcsNd0qn0+9JEW9pFMEyPUe9PsH+wvuYYpTNdk9GUa0FXO4ZhXvhkHvfDNyBdacP8t1+COm65Ad7GEnQ96KV594scsfL0q0dAwlm7Gs3M0o6dbr3B0oK9rFftfEeO23Ql7HvoCHP/BT2GXOfuiY3Uvtt9pDxzy4tciy3QseOgh3HT5f9DY2Ij9n30sp8BxyLVOsLHASlRfsci1I1vQ55klBtFcmWNaJ9J8CvMgAWLNPom3J/vpc978QTRP2ppz8t24/ZorsHLJSkyfcwhe/4EPYey0rdGnd8ab2umX6S202hkXYmXUlyVwsdoYoi+rp4vZDfN2EBaxVs2vfirD+NN98PPkcBxPDfWjSCZ7k6HjGYRYo1bDg2hkIMNF9FO2uyB81GJbrVQDgz4Pwp8WG2y5eiczm8tiXkcnvv+Hy9GbG2MDjbaU+IJh9EINg9XO+g56vdeoetckq0NN1HR0lIle4msvFPGRNz4H4xsKZi4foeo14VtIunEME7HEwlChxZW6UgYri0V863eXYGVZTxK1YArm+jSj9U3+7NOpMqcfGW+6kldqVN+BKVf8WuBw2WWnavfo6REXae35KnoWPIrl8x7Hyq5ujJs4CRO3mooxE7dCdy1rryVovMmVGADts+VeLgRbUG5qQcmak5YfjIkLJXvHTQelWt7FuJQZPttoXyc6Fi/A8uXLuKAsYcK4cRgzYQLat9qaTI6+02IhWCHZ5KtyYgD1c1aoBsYn5GDzQeMu+142ixIXm/vtOBZve8FhXBzqHdmwIDPhyias5Wci1GKNYeavwvaX53x27+Jl+Nl5l6PaMBnaMawzmrR137ZWExrnhlpEbypYb2NaxOrroCl9zk6f5TKLWiOaG3Vo3AKsmM9+tmgpxpDhmLT1FLRNJGOUy2D1ig5UCpyrW8hAsd9An8TTKw5t7cxrC/tACFuMWvjslz4dxj6sd6nZ/hRXE/Xl1avZ1+Zh8dL5VkiTJkzDuMmT0TB5EjpKDIP9tEFpolpW8WkbOd2JUQvlTmzGclSdq//kOK6Ib8pWujCpuRfvf/0L0c52EOYzulASpRW8u60TrNiSctTugW+efSkWrmKZF9SptEdNr8boFQLywjrnRgLkjM5HYO2QEc6zDVY5pmd7V7L9kVlumWTnDOg1Gjt422qRP84HDZUSaqtWWh+uNLax/xbUURgD22uugpWLF2HJgoVoa2jCxPETMGGryVjduRoPk0kvjBmHrafPZFy97PPdQGMzamSkdeCvnuqjezXTyLbfNhb61Lh2+ZQZX7W3ywTbuWatfclsMyMNTHvvksXoWjIfXcVetHHumTB1pgknKqUy81lGpWsl+wH9q/8qJ9RzNqMbMv9NY8i7j2VZ5FDulR3zmatKVoCV8+di6YLH0DamDVO22Z7FmkXv6h52+2ZkmluZ3RKgryz1FVFtZF9uamJZMg72wSrdgf290tYAFBptLlRZjmkqoLhqOboWLEJHRzfaxo/HuG2mMT59NYKucs3M/ypkekiN7cg2TWCKNQYyOPEAHBufPCayTlTvNMtobGGadp5cwImvONryn9euqCf5cTwVQk8Kqpql1iuq3xXFEteHF3F92FBfH8p8ZKwPHU8fVqOJSrI61NxfQ1OpB+9/wxHYZmybrWHsrAn2Ob3uJN5dc64qW31tY/a5YQoVwsBhLi0TaaEC/7RwocIzD6ruOPBIH95tVKvkJGL2iVCBC8z2Qi8+8oZjhhAqxPqPqmM4sLInaehQOasewqRRxLejUIFMuj0hoPnImDRiqqVqYSgzpcXYHpQz4YsPhWwFTVyMNXDxRW4ZRS3KmNCKno6S4eAdGuSnpi8H032tj/ZV9EqQZZkR8yemhDouppR/EyqwsLQrQsxKgeHqEz9qhLZcYxsVi1TiYGuDMMMNIgOmlM6snBgex+AQLs2VfGPYN20hDgLTy4REocK+iVBBn8xUvk2owN/GmiC2FKgMrZJZ2GpLKu97lyzDGeddzoX3ZLBJWRsxoQJbjVzL7eYsd7ULNfqqFvPsD43VPjL++kQx2adsE8pl2AnxeTEi6gts6BIL9JbJsuRoLiY604Re9kkJDBozRZZABT0Kj27zJI3lCk/CC43/FTEByjPDy4hBMeECGagGtkSaVRlmuUz7Cvsalwcai+SvwHsJKXQuQ1WvVmiBk7xPrj68OWH9hz8XKmw8xP6ightKqKBdYxIqaOzN051ETWxtdK2+Fk5Stxdwsvpaj84CoD9rNkGoICG0AqpST5YdjQxLHbZU4QqFFVdRu+O8I8lAU05nMCTtl/NBucy2LSFAc2N4fYD3ed5XyJhrpw70qW+uedW2C2zverVAXzpRCtWGJShX99Jn9XRYqhqKRAPaCdDMuAqat5iyHr1ux9Tpq5J59oFG9rks+2eJttYfFJ4+Z0dXaodaZdtOC0bWrMbHeVIFVGXfzeWZXvot0s4+psywG5kwlaPKLp/hnEmbAvu2zJhKfRiMUXCcsL5XQSlf1PMgGuXplmmiG52yX6D/xkKjHbDcxxSoXnSWSrWaZxwsG40T5TxKJc697B8296b6w8Axkf6YLQlsWbGo9HZjl8kNOPGVz+b4IqGRSjEZR5V9KuqLsU86hkZSVFZvpmcdaH24UkKFsy7CioraZPLQiY3ThQrPFMSal6oxTnUY5tjGUhc+8IYjTahQ1lgjc1U7x65NKVQY5mweM6EUJlqRIdo5nmmwWuUlVrdqOszdmjATQyEx60f0IfL28XQQSzCWbrJ2CqU74oo2JiZMXrHuuRTkRMbFHQeyvC1OarYo6yiW0dHTZ2cblPSklMORfOW44BK0EClz0dPHRVOvwmFwEk7YBKoJkgsSE25xoah7G8w0UJLxKXIA7eICUd/Q7uoroadcIzOlsxe4QLXBNKTQFkQi/ahqAWT3spReeZB+M0PpUTKUcpFgyYqGjqcJq2mWpQrUSjYpa+qTwld/i30uUTYvmFYtDCzJ7BfqARLHlfRJVaYwJwGA+k9fDR29FXSUKuwTNXtSWq6yT7F/FPVKN5koCe2KbPx9ZEIq7GjKn54S60mwQhXZ1mWuUtSjdSq++rU4FX36tbecwereMvtaBUVyKtpRJEbEPuuln848YShaAEnop885W9kqDOtsDgdbg5oU24XadNgur34WRAtqqmqf3VpLi0E2m9B2QktSD1DrzJJxL9sXFcRAaVelXtG0RXW2gXNCH3po31ku2bxSopleW1jFuai3VKJ7xkOGt1jLosS+oKfwbO42N6jVFzkpSa+5R5+vLDGREiIU2QeyDEdpFxMnMUgf3a62uOhHVCrC5Chs/yX2jd5yr8192p0nKlZynKskaIe9ylSpFe0ASX32rkwGvpJjeqq0L+fQyT5dRsFeS9AOoGK1RD8SAAQhjfYtKQ+2o0NpVV5YNlaOJPsai4RmzIw+11dl+ejLE72VPqzq7WTae5lhlluFM7ECZVjFEtPJgu2VcN7SpTHBKiOBYhoElofqUTbGyCROaBzGr8RggD5RHWuHSknlKBJMpaGVni5ejM8wpGt6INmYaXpWOzvc5noYNkyhghKq1FG1hio1JL7fzvFMg9UqL1blJNW02qmZpas9OqgjGoi8fTwdxBIUCSr/+gRNQ6uPEYOYGEtdPe3SaCeCFlm5qpZBEgJU0ZgnC5TTqxElmul5k5Y5Wr1JwCA/ZD7I1Ijxt6exMUCq9rTUmBEtPMWkcPEjiayFrUVUiL/AQhI7o22qOZGtDOmH7oO0NqRUiyr76T4YGtmiVfrNjJikkOMAS1Y0dDxNxEqWmuitsKlPCr8+7VGfKJsVVu1MX01PQtn2y2Tw+zKN6MuyNynNYiG0hTzLvsWZXm1ZakGPL8gs6Gltnlr1vzwZEr3VoG3neTIX9k1wRiBmrsrw7T1o+lMPE+umXUA6J0VivYyeONKlngA30l1BLJaEBgxXJ+LbE1z1YTJgEkSI8cux/yn80I+VEceWDHWzOL6bqIDtyMZjGspYLVGdT+0zKyZWbd5+GrPNB38yIzfOvpDTE3DrGwqQ7Y3edQaDXq1oYJvTDku1d7VFHSCqbcLarZClX7HbisvcsJ2SLTeBdugHtNOOB5KarQ6LlDnYznlFiWHrvAft7tEuIks706tv3eepZnNk3mlYYVx97JvakSCRicJTPtQ1bc6qFtFQK6Kg3UfUK03qg4pVLHye1wZeszaflu2zkhIj5DKhTypn6mkKXb1OfuwLDeyrVabVvnIkYYHKgnmwb/MzYSrJChOh+Vavc+iVBhaN+dWrUSp7xSxhooQ1Sj9DtLJQkKqFwVBR6EFAENb3u7A6433Q8y7RO4YPlZjamLWzlOp4piJd0wPJBPamZ7tgZwxjn91uUmjUWXdwgFlfr47RCdW4Jk1ro7wJTXdNiC157a4c6wEWrU3y1Kp0NW6MTGi5pgWfNuhzIaJFnhgQJlw7DER2UCIXM9riqSc+tA3Mjp6OMF96KqRFnIQGFkrNNmgy7PDqgxZGXJvRF8MTk8MwtQjV8qomgQTtTa8ntnQjGBMjd8kArDJUyhROLNOBeLLJZkGSjBFb3c9EpKueemsfqoCR1CSYILEP2rpvLZ8L/QKZGTFDstPXUrSTQKxIlqpxAWQeMuxv6gs1MUhs/HqtQ09lA2MWFv62l8AeCWvjOd1THz4fRzd6uql94IqV4ehJaolRqg/rs5EqrSzdZ7T9XDwYmR5921+p1Dvy0lHLJDLAEVKejs0H9Ss1EUFtTwy02p2N9aGh001gk+XAzvey9ivL0IYkKrARnX1BbV7Mu5mLqTc7ueQ1V2DbV9jqA1LZ3itskZxfxCwbb2tzk8LX7KAuwhDMQq8c6usJlhLOQYm5pSf0G5trNMfJAdOo+TpnTLjavV67U3iayTSP6Z59k/eaCa3vKV86f6jaRDuliQUjhj7p6zUWVAXFwNSb4IK9tqL4Gi0szaFi0BWvwtPuPOtvileREypq27FXpm/dWHnLtcqpwfq6+nKZxqEc2Z+1pZr9XmIWzevajRHGHpaqpVnZTSIYClYggzCUmcPhGAbUp61zJqSOnOpQa+mKGxNhpHlKKKFKIVVT6E1kiHaOZxqsVnmRGkkTh6pc82hwMBSiZeJ4zQ4dT4FYgiJBCwXN/1aqvOh+5CDWc2DXjXHXwoyNRWQLDzUgu5dezze1GNGCSKr8UFd3rzwGf6bSj52hYEuZ5Cf3/IVwda9w6C/xozDDJ8e0EDILi8vSan+5M6+mykYX3Qf7oG5uxLSJYpXX0zai2sBoRazkWMqJEhqTlTGbk2lNz1/iarNBbTf8xbjwKj0ZDWNQeB+YE/WN0PZjH4ykPNR3Ieg+9pGk34T+SDPzT7J4QhjxCXBwk4QXw6F7M0/88SaJm2TpklHi1zJi180Lq9MU7GaAiWMjIs5rsR7UTgxqJ9THNmZUb4NqV9GM7qM9Sdvy+92qrXHBrfYnZ5w/JDAwxt/acBIezWJ4UaWmHq7kF/V2ndhLFXMe9AynTsFM3tNhBv+hf8b+Yf2OP7OTO0sv+01GQgfZ856/kJdgbwJzCfeyCkPu5VcCkRCGURJf/ORmNAthMDOKVXHr3sIO4WttH/q9yihxqzRTtTBEvLd0RPMkbTR6Emhs4dcpMaep3Uek9Y7hQSUWajIgqo5nKtI1PZCsPya9K4wh1G+GLjVMoYISnTRfU3ipjx7RbjiI7qQORUJaHYqEtDoUCWl1KBLS6lAkpNWhSEirQ5GQVociIa0ORUJaHYqEtDoUCWl1KNKVavgnJkm1s8o1UdQN+zUJomXi+En2juEilqAoIpam5nzRuqHuew0kpNWhSEirT6bQdpKBzTKghYu0umhhEhcxYSA0khfpZC81WRTJn6nmIIRtg6b9Qmy0tbBMbx6oY7y22ElIixbT04189YfF20TVvf6KKtHyYldp1kBCWh2KhLQ6FAlptZ9CfgNildu9LtHA8TSQlK/VdSjpoOM11n/STkTWPk0/GNEsuHsyCVFNI203FAlpVbFTtT9/ah/qL7HP8L7e9mUvNWnftrA389DOA/W7k0X0SwMLK6qhP8pOjoI7s+MvHY7U0GappxoYFzqVXm4StwrPLAxShyIhrQ5FQlodioS0mpDit3RJqwuNVTiWk3ArDNY7Nhxs7FWZq03JwC4sZf5tXFdbiT+1GaqxrZldqLzEnfzQjYykyJ1ZJ/a6j+ZUrS0LagNJXFKpSYwVpn6JXm4Sd7GNB73iU4BSg5nd1vWkujupJP5imIrP3NGBzGhg5navnDKwYC8rmvDe/Jp98B/jkj74DWkO7oJZCINq/OleaTJv5qHuX6qlRfbJL9hZ8qgmfSQJwPwYzNQohE97pZcmdSfKlcwTpPWO4UElFktaMDUapEjKhkMMLRXBABKimkbabigS0upQJKTVoUhIq0ORkFaHIiGtDkVCWh2KhLQ6FAlpdSgS0upAqo9jRBhDeL8ZutQwhQpCkjpTdEmndrgpj+6i/8EkpNWhSEirQ5GQVociIa0ORUJaHYqEtDoUCWl1KBLS6lAkpNWhSEirQ5GQVociXamGf2JC1DWE6dWgpZGaRtpX2pNjXTC45GzcIJkyuMiHhRhiEtCTSEirQ5GQVp9Moe0ENbnTbWImBHcDiBnSEsWWKdLbPbWyMhfSxPAG/pLA+/WJu6i3+6iXeWI38CdTmaecUAl+TLMGEtLqUCSk1aFISKv9FH5hURer3VxG546nBbW0UJ4s5WRytsW4tRn1u9AW7So3/T4GIZpJHYqEqKaRthuKhLQaWsSANhxuZWr3/Qayi6ZBX+8LaYp2/KXN432iMzdmZJd+u6hPm5m5kYyS+wFuzMLsqVkDCWl1KBLS6lAkpNWEGH8QxoT6joxXUttGujV9MDa9Y8MhlvNA0MTaBtuJtZX4S9nJPLHr14d6DPOJXgXQOQtBVb3Gug2q3MlrEoau8hsMk3CCnUz79fwNqTdH4Se/8d706bD6f3UzqXKnRpZyF+6Ttmj2iVnSEE0AEjT9cSX+9Q/ug7n9Uvb1+0SN+mgvNerjr35vqrk2qvsx9NvIXRgveZWe6VWKHRsG9fJPVE1fg4n/DYgYmtShSIhqGmm7oUhIq0ORkFaHIiGtDkVCWh2KhLQ6FAlpdSgS0upQJKTVoUhIq4OI/zBKqM7V19jLNkNHWwehwoZAzKFUvf+RprRdVN3NyHCzNqgRy11ozI6NC5V0rBW962jvO64T0nX7VPW+odykMdhfWlVmNCSl1TSi2zSlw4vqhnCTxrr429Bugqo3WTVh9C/aHBsSYdlLkNGwQ8xkZisy6qn2PwWQWaiF4GowoqnUp6rjNNbF38Z0M5gG+0ljbeEM9jeC3STvpatuVc92FoSdJRFcmQ0r3EJRxasJUHGsD/oZyrTu6SEdTqhrHcQbzQOjHFRp0/cRUdAQEMNJU9ouqk/lJmJd/EgV6bDFaK90xrRGe92n50ohul9T2BFp8+h2TX6G4yaNwf5UF9Ins5f1L72A4tgYUElr+rKzplLE/wZEDE3q02kba/PnbtbZTbIuEdTPdPBq3WATYhP37XSBxEJJq4K7GXlungpytxla7xYIrYNsYUtIjfrhI123oqfbNobjJo203WA/ykx6oTQ4c3IzlD8hrW4IN2mk7Qb7SdtFdUO7CcvvAS4GLIIdTxdpoUJ48ic9zU2oEMs5ugktM5hGu4h+t4EG17MQ1TTSduvSNjaUm6Eo2glRTSNtty5xjTQ3pEw1qWvVuZifsDSSrYEVbi5V8YnesT5ILXxTuqeHWBtSQ53qbJFwr7CHmlMGxhkEDE8OZ3jtZ01uItLmosH+hKgKg+3T6da9KJ2f0Faf7E8kRDUibS4a7E9YFzdppO2CWwl4NL6qvkPf6q95x4ZFvVWw+KXf+EIF0fq3jX41bRdVdzM8NwlZvwo9K/azzdHR4mi0Xuhf6vYvyNZO0U3d2yDiZYA6FPEyQB2KeBmgDkW8DFCHIl4GqEMRLwPUoYiXAepQxMsAdSjiZYA6FPEyQB2KeBmgDkW81NW10SD3jo0LlrE9VWN52/bsej0MlxRGVEUcdQao0S6qG8JNmtJ2Q/lZG8nNmvyl1Q3hJk1pu8F+0nZR3ZBugn2YJJI6Nyu2AtkZ5NjxdBDeSyZS5WrCBdMm/Yw31vdEskq0ob4ixftoN5h4qatpSttFYuR1PS8D1EhrcxPthhPO2oiXupqmtN26xLWh0ryBwlG9UhUjqu3ydtq+iH7pu+7FGCPzqz5opgkJUXWsDVopWkmxDO0JtshMEv16UQgvqIPrXebDpbWFk7aL6lO5iZQ2Fw32l7ZL69PEy5PcDaYNnZ6oPpWbNKXtglvrRdE8aJJrPw2+61cd6wKWNIuOZccBLcxZgeK4tWEoicNU0fq3jX41bRdVdzM8NwkldR6sqIrS9psIwxIqhO1LQa0Tf7bEYsZsESYzLcictmCyZkKwvSRtxvSOdUa69EJvCwjvST257I0ZWi9ScGl1KNpQbgbTuvuxfOpn+qebnnWPf8OFO1w3cVytJvfUswmYkIH6gKg61hcqyjjP1fUsY2MfrfxlpveyzbjfzNSNRcMJf21unl46rSAGma2Z1hTXUHGvLT2bKxyS1a36m0j9jWpoEiwG6pO2YGVifS6SEFXHkGBBqihVcqavlztVMwpl29/f1peSMOvq+tJwwlnfuNbX31PRxkzP+oS9Zj+qdDFAgdRAzFFQk5biWDOsyFJqhHqZlbfKb1CZbzxifAPU4dBw/Lib4blJKKnzep8i8ZZ2ahMkmsc1TlQ3BoYlVEi/g1Yn/tSA7TA1o5CZbK1M0jd/10DVIcwiRTt3MzRtDjdroJzUqraM6j58xkz1HxAaedQ71h3p0ou9ze41kuivMgfrgfWUYz1oK5TqwcyHTeqvadqYboaidfEX2pm+wa0PcMl9Rt/KT9n1UzpMDnID7NJuZLc2N0NR2o/UTeGGxKznULI6V5sIE0S6lTieDlicNocFYQJJ4LxmYx04p2VErJMM25r1tdjmpKbbX6rOopm+Eh/1ar8D/Eod5L5+P5TZUG7S5mkayn5N92nzoFdfE+k79LoPquzT+Y0U/Sv/aTP11aHcRH00j26i3aYKJ6paw7CuWc+5WsnyGgR3UtVAwhgcxuF+NZAQVceQsDVjGLNUUip3rSFsHWH9Svck6ZO5LPSVdaVQl/00lJvh0HDCGY6bwTQcP0/lZn39DUXD8TMcN0NRdBtV1nWVcxhVLQ/7GSI1ELaKqJrG+9PaEGf8/pIK17BWDGOczuWoj9XrtT4cDqXbRazn4dBw/LmbYbth/eZY37YuTPqVrWf4G/AJXJK1k0TdGCAfyFQ8BeSkvuAKJiQmihMA84FKhRks5LFwZQd+ftbf0FdoR8W+c0t3gxIfwxJimBszg46Ng9ACQqOtkrFta6jhI298IVobG1DTYpR1Guo1aSuOdUIsNam61sRAZ7Po6iviW787H12lxN76TyIbpBsd52dlv8Zif6o6Sce8odyk8dT+4jBjLniJw4PaWi6bZ3tTnsXvhLFD7S/9vW1z+4wZV2xaQJ5ZyRY7sNtO0/Ca5z8bpXIVBbaHbNbH0A2B2G4EtadcLo8HFy3Dr875G7JNnM+Qt3rQ1C1VizNrqCx3jYKsHVKog2hfI5Mqm/6a6XczEFG2L9f96Qhu4/1TuUmbCTKPdk8dTpIVc2n37Fvk9GxM4RI1MSRxzleLDEHKgxnW9TEcmdk3+K1t6l7uImQQ7webR7u0m+GUz2DzNYWTdh/0SrMO5xRJsIByD8a3NuKdb3gF2nKpPGi9I4U/+RxY78HEMTSsDKlWqPZy3PrF7/+Bhct6kSlwOWztTP0rlmEY86J+3ca2wW4V5vpgOOGsT1wbIlzZj6T0rAnJfMz6sweO2TJqfd3YYUo73vaaF9OOfAPt2MPoJI4demQQYlA/cwyNUD6pmuCaO5OsD7/D9WFnkWZ0EMauZPwc1vpwOOivoaHxpNQlWBd/7ubJGMIN61djpR5cNJU78M7jX4KpY8eiJp6c7cGmJ01bcp54jevkjbVmHJZQ4cnQAKAEsYlq8VThYosTQy8bbVd3l+RjllFhcLLDwEENSWr93jGqkG41Vd7kWaGTx7Qg70zORkEs0zL72JLObi7OQr+p9yG5Sbkb1VCGmKOwyIx5DKxNuVJGpUIWr9Bg+ZQbMdbyExb7wY+VyYBiiCUU1aGQdpPGuvjbwG6i06SiG/J5jGluQpbtgPwOSf0tWDvWH+lpsFbVJ+iyKLGTLe/ssrmNUxyh9kUN/3a6tqpEptKbbSBB5kZiVM1R4ngw5MHs7W6zwLKu5HHxwWZlSS2XK9bXGhsbLH1hXdq/zI89ze5tLRBQH3/0J619PFIIguzroa0H1iWctH3Mg3140MZUVZZ2BRVY5+Nb29AgF0mwYnyCPlHNtwomrtyskBxDoMrGFXfZFWsVdHT1oI/drGplynJTUfISSpRjvTkNray/1TlGG2L9SZVASTVZII1va+VaUS504VxmAli5jH0o9i3HcLBFrQ8dKbBWE4G+HmS0t7aiIZtFju1A1ZzlIlFjbzaOsZug6tdzpwIhbZZDhVYhVTveCBXOBFrkaiiIjdib75YB1bOEC6Gd6F4XXxasL2LfkWpXDhwaJKxst8DCLFeqyHOA/O///odHHnkY737XicYIqGVtCcWhdlBOVHF+2sZtz83rT1K9hz0dDJzbqknb4kwmaT+hq1yEPhnaXbx/JrGTJea9wAXIo3Pn4he//AU+99nPcpGi3RkDEcohqKMZ/XXKvCd6keqzqlc/dJeufGr65zQZyjKGYA4cQ8DWibF4KhVkjKPM2pgmY33AM5agl+QzExonVbe6VCtlzl3sQ1ov0qJGvkG7GXQfelboYY6hke4rBmq25PXhlg61g/ARWvYb9icJGHJqCJLO1htJQOTlN9aacT13KjDp9sklZoPetdvd7plISZ6V1I2dcMfmwODWyXsyN1WS9qaoEWfYiDVJhCdbjg0FCWy0VVCqSDWh4h84sxCjvr+pTSVaIeaPea5UKzjpQx/G/fffj7POOgtTp0ymmcYYOdT4I/WZBRtDk0Ios2PlyeRq8WVbR6nPiuFLtj461h/2JNWk+XqiVglPUDmniRdSv9My195jtKmbfTBTsFf89D5jlfbhu+BJv7QQ5Urzoe4VVmIqtd5xEyTjaNpoeJA/KuZPmnS4VHWbaNcaONOtTmRLAbalQiGPH//4p/jRj35I9cc47LBDbXdQfRstAw7blVkuCtbyZppEXRvopu5MmuTGvPMyIIi6ZgisTzgyTBQZWR6CgfKm8SVuw9YaR30rm8nrhlBtaoyhJdtHknGSykQklimWj+NJ0CKRY5S9GqkCJtnOEJZqhsyl1UfSntQOZSVnVsz1+nOMOiR1qfVh+LRkUtXWv5JXFmlSyUh8J3uOqWYbHk46hoctZ33oGAhWruY7zVs2N3EMZf0b2fowjLmbcn24nkIFJd7+hCbTgChYqM8GcuBt+BmEpNKtTlXHulc9q96TRZXskvqX1m4T1bH+iNOsVJWnpo3+SYPlngwso7+ktfhgLpiNMDXqwVYFDfkCrrjqSnzqk59CX18R73znO3Diu96FYrmMfC7HNasG0WdgK7Mi0LIrQAszq2PrX1xISKigCUQF5lhvxP4kIYAWZcEskMxVvBIgxPfqwzLZaiJRqYt9ME7ycpbc29Z5mdd9aJKXqvv1hRi0ZOyth08MiCvG1x+P5ZU/S6HajuyYQXsyT3Xh4sV497vfjccffxyHHXYYvvOdb9uCNfTL4E9XCzMdr6nmyG5jHBZ+Hck8IVV+ZWdKDCdSYrdGrE84US+VFN3yLxOThgddvU8FQUrwH8pJfnQTw5Ga1juGQlxmqoTUv1S21YpUGsRxe1ARhpbj5TqaYfMV+5CdQaO6DM2AoEb9K3mSGg/21jXU+uBxw7E2bDnrQ0casZ9IDfdJDSdjbJi3g35TYT2FCkKc1OVdT2+UaG+wWw5Y7/qzylXratoa1vqbeJA0J8s+Ux1PA+qmGhisuyYTtN1TW3+CmIYszNLuRhO0VVZZqum1qmRAFMPz4Q9/GDfecAMamxoxtn0sfvLTn2LqVlvV3Qhqe/0LfwVmxqMYzISYRutoXDRYXqkyvyonO1MhuHI8DdikXG8z1Kg9sXytvFXGLH8b15KC1mhXdydVCzrq9YTAdm7ZAk7WCoPm8meXjYEQVx26taiGji8uMqTGbelyaUKFfAN+8pOf4Gc/OwMTJkzE6s5OfPP00024UC6XYeeXWAQxDGpT0YS+Gwz0Hmf9fc4nYVCa60gFNiysbzjBn8YOe8KndJsanqBGc5WR8kzjJO+RBmXcMWyky1blrXIf+ERNZRvJy3g0I8gUNM6wvlmVUm1uZ91bvVufC33M8TTA8mSBBvUZvj509CPUIPsXr+K/dKd76fVKmUw2dS3nTiES/TogLJSiPiAm37FlgPXNQSu0AzXqpOHSTAtrqRrKYiuJqmP9oGK24UIFGckMWdaSRNdL2CxSNAqhyVBpp6oFRy6Xw1VXXYXf/va3aGpupnEWS5YsQWtrKw444ID6wjR41ZAagtBAa+ajmixbQZ/cmNbUsDDTQiLm37F+sO2CLEN1p/BULbyhGCfsMMypZWnLbjCzok9ULdzUP/XXJZj13wfaWP0xhp+QJUz6oeMLo3W/KlQqZWTZzxYvXIzTv/ENcX4WTLGviBUrV+DYY481xs/KKIlCcdl96memiZnpE/XJkPlQtK5lNFQYoqcKJ7jT1dSgMcS+FPKauFNfC4YhaDWUOmRjhnbnGALJmiD0oYElFcvb7OtlGckxqmFVq7rXP9Sv7dqSjvUdqz5oZB5cBZ1juNii1oeOOkINJvXIqrVhNrlXTdvYmqxtNhU2wE4FqaJNl2jHyEFoBUEypmVXTYtu3klV64gtRKrj6SDd39RlRepzUgeX9GA3owtxRJIqoYKgXQrXX3892traaF5Db28vJk2ahDPOOANTpkwxwYKED/bepi1WyDJxUt2EY+lGRKxH9a/A3OgLO6rnHFXvX08f9oSdjcUYbb0zb42QJW3th+ZqUzTTLoSwKNbTVT1pDWqoATmOdSU19kMLZMQgPiWUqmxK1Y6CQr4RP/nxT3DmmT9H+5h2c1uhebFYxNe+9jUcccQR1PfZmQsRa1+spMtipCJdZ2uC7KMbUXqsdWw4PDPmL8dgxHqMY6T3nQ2PNfUdqTKPdkO5cYxWhBodWfzX04grNkapTlsq6RfVgXfBhRBVx9NBujSHIiGtjl4SoyNexT4dmc+bMOHmm29GS0uLCQ9Ezc3NmDdvHv7yl7/YE1SZBfmowuB0KW2iPpNI64CwFZ85tccSMceOpwUrxFDA1UwOVZ1VIZVU0y4ElrUJFuoU6iOqgfqZ9KAqULXnoI5EUl5sN1A2j0WLFuDv//wHGluaodPYi9Uycux/wrl/OhelUsleZQj9LJ3voUnhR3WkUjqda6Jgn/YnRNWxruhvP+ongcJ9umydngmUHgNVzaG+pU/Xe1AdTwcq56gORUJadXomkH5RHXgXXAhR3VTYQAIMBROz4bTlUaj/ft0Ga1iOITGckk67GV1kZwbUdHJtzgQL55xzjgkNJGCIixGZt7e34z//+Q8WL16MQqFg5v1PTkO59DOBo5n6t53rIjXROjYUYoGS9Hqv3vXVrfSy0oUmSZnrIn3oX6F+qEv8pFW1w6COTNICX+lXXzvvvL9g5YoVaGlqRpX9y85EoCph3k033mTCvbz1M/lVvmK7HJoUflRHKqXTuSYK9nEsdTxdhDINan8Z696UBLoZnfOXUz+Fuu2fvwaqsgt6x4ZEKPN+dSik3TiNbgr12K9bc61vCjyNuJX0qDptqRSaclAH3gUXQlQdTwfp0hyKhLQ6mgkmRNDrDP/73/9w9dVXm8Cgq6vL7MJrDuEViIcffhi/+c1vbGESBQ78J/dyPVT4o5f6e1i8BhvH04Pt+lC7EZMdSQvfqA5BVgOJ2l8LaXXkUxTWPfroo/jTn/5kuxG6u7tDvpL+1NnZaWa/+MUvTLVD9ULnsjC2PBKi6thwSJet0zOThKg6NhzSZTsUCWnV6ZlA+kV14F1wIUR1U2E9D2oUtKhQcuPiwrEl4smtIN6FpjzwzrH+eHJJD0S6pNfkZvQgMGuwnQjalbDddtuZmRgcMTQ6pHHWrFmYNm2ame+///72SoTsxPQIMk+Cecagv4bjNVM3c6w/9I1ntRf71rMKMxRvvzoE1LbEW/e3sWF4GhFQXoOq/qJ86yDUuXPnYsaMGWhsbMTKlSvNXAK82bNnW/8Tdt11VzvLJPrrz/uWhHQ9OzYcRkPfcTw9eN/ZOHiqvpMud+9fzxQ8uUbT9Tz4btPgaRzU6HA4HBse6SFJjEvED3/4Q5x55pkmUBBzo0MaI/SEVQyQkPaT1jscjtC/1C+kRhJi/7nuuuvwnve8BxMnTrR+9a9//cv6nKCdDbFPyV8U4DkcDofD4diy4SsCh8MxIiGmRUxMX1+f7VaIDI30spOqk+nL9v38/qFMdpFpcjgca0bsK0LsZ+pT6k/qV3o1Qq8dRfN0n4r+HA6Hw+FwOFyo4HA4RhTErEQScyM1PkVNCwxkFu2lphmkNPPjcDj6EftGVGP/yeay9T4lAV5UJViQebRL9zOHw+FwOBwOwYUKDodjREFMy2DGJyIKFCJTI3VNZvHe4XD0Y3A/iX2Md6YO7kvRXmq0i2YOh8PhcDgcggsVHA7HiEJkdobSpxkcQWZ6eppW0+4dDsdApPuH+kzUp80H30dI74IFh8PhcDgcg+FCBYfDMWoQmZ3I6IixSQsaBt87HI6BGNxfooBgsHm8j4h9brDqcDgcDofD4UIFh8MxaiHGJs3kDL53OBwDMbi/RDxVf/H+5HA4HA6HY01woYLD4Rg1iIyQMzgOx4aB+lJ6V4LvVHA4HA6Hw7GucKGCw+EYNVgTw+NwONYP6ktpAYH0kdKIfW6w6nA4HA6Hw+FCBYfDMWqwJobH4XCsH4bbl6K7warD4XA4HA6HCxUcDofD4XA4HA6Hw+FwrBdcqOBwOBwOh8PhcDgcDodjveBCBYfDMWqg97gjORwOh8PhcDgcjs0PFyo4HI5RA73HHcnhcDgcDofD4XBsfrhQweFwjBr4TgWHw+FwOBwOh2NkwYUKDofD4XA4HA6Hw+FwONYLLlRwOByjBr5TweFwOBwOh8PhGFlwoYLD4Rg18DMVHA6Hw+FwOByOkQUXKjgcDofD4XA4HA6Hw+FYL7hQweFwOBwOh8PhcDgcDsd6wYUKDofD4XA4HA6Hw+FwONYLLlRwOBwOh8PhcDgcDofDsV5woYLD4Rg18K8/OBwOh8PhcDgcIwsuVHA4HKMG/vUHh8PhcDgcDodjZMGFCg6Hw+FwOBwOh8PhcDjWCy5UcDgcowa+U8HhcDgcDofD4RhZcKGCw+EYNfAzFRwOh8PhcDgcjpEFFyo4HI5RA9+p4HA4HA6Hw+FwjCy4UMHhcDgcDofD4XA4HA7HesGFCg6Hw+FwOBwOh8PhcDjWCy5UcDgcowZ+poLD4XA4HA6HwzGy4EIFh8MxauBnKjgcDofD4XA4HCMLLlRwOByjBr5TweFwOBwOh8PhGFlwoYLD4XA4HA6Hw+FwOByO9YILFRwOx6iB71RwOBwOh8PhcDhGFlyo4HA4Rg38TAWHw+FwOBwOh2NkwYUKDofD4XA4HA6Hw+FwONYLLlRwOBwOh8PhcDgcDofDsV5woYLD4XA4HA6Hw+FwOByO9YILFRwOh8PhcDgcDofD4XCsF1yo4HA4Rg386w8Oh8PhcDgcDsfIggsVHA7HqIF//cHhcDgcDofD4RhZcKGCw+FwOBwOh8PhcDgcjvWCCxUcDseoge9UcDgcDofD4XA4RhZcqOBwOEYN/EwFh8PhcDgcDodjZMGFCg6HY9TAdyo4HA6Hw+FwOBwjCy5UcDgcDofD4XA4HA6Hw7FecKGCw+FwOBwOh8PhcDgcjvWCCxUcDseogZ+p4HA4HA6Hw+FwjCy4UMHhcIwa+JkKDofD4XA4HA7HyIILFRwOx6iB71RwOBwOh8PhcDhGFlyo4HA4HA6Hw+FwOBwOh2O94EIFh8MxauA7FRwOh8PhcDgcjpEFFyo4HI5Rgy3tTIUoOpE6FAlRdTgcDofD4XA4NgdcqOBwOBwjFFF0InUoEqLqcDgcDofD4XBsDrhQweFwOEYo0rsRqoPIdyo4HA6Hw+FwOEYCXKjgcDgcIxRpwUEULKRVIaoOh8PhcDgcDsfmgAsVHI4RiDTDGEi/qMZf2vwZRrykVaFu9iT9M7QMSMpo/VBKqplBJDupwTpx53A4HA6Hw+FwbEK4UMHhGIFIvy9vVMvU1chxBsYyqgNJDOhoowF5UAZlnqjGPDProQyCPvozRP0opgH5j8Ss1fOsbCqvzHzNCiM5sNIKQ0pQHQ6Hw+FwOByOTQkXKjgcIxDGPCaqUSY8ja+aFCEwkmIsB1M1UaOb0UTp9EtN24lhDmXC+2zW9HWG+hlCsQ7XRCoTK4dE4CDVWgVVwXcqOBwOh8PhcDg2B1yo4HCMYIhNrCbsdCWhPt73kLqGoG4yllJ7qPaRehN1XSj6kap4FJaom3qZpe3T/gbTcMOJbmRu6ZfeCOiqyI9yT/Oy7nNUSZUsSua2SndVhg/zE+Oox5WoFl+1P961Et1Fv9H/RgsncdOp/FE1kj6SmVVNv7paRW+5mjQEqrSzwxUcDofD4XA4HI7NiEzNH285HCMO4hUl8RP/mJGBumkmg+5iCWf+5QL0FmmbLdCdXFbtYTf0aoR2NNirEvzRixmFEIYNDQgZBltlFKY303rwRgYLe80YdjhC3ZIkPfObVabk2PTAE3PnY9H8hUAui7YxYzB7111QqpUTD7wGJSAJOwaXtlobzD0vFq30Zrpxw5HZU8Hc93Vj1raT8NLnHIZKuWK7FrKJWDhDTbVa5X1i4HCsA7QMUPvJ5XK48sorcdJJJ2HcuHFmd+6552LChAnmRvDXbBwOh8PhcAyGCxUcjhGIyHzag2h2UW13FwfZUSzi9N9egM5igYx2g8QJdCjRQ/QhJehrmaz509b59YVCUhpiCGJZY7qkl/1wMOxwTBPuzG0qglwujwYyPRX60gkDxVKJag2VKu8YiIooClBMHmGeg3AlMvjBdniQb/mJ2NDhKJBEqVO8ryOpvxyp3LUM++08Cce/6CgUiyXkWR7Kp5g8y695HuDbMGS4DkcKLlRwOBwOh8PxdKD1vMPhGMkwLjSyy9STmUS+QLUBmVwTe3EDatl8QjlSwYiWZobMulFNKoJq+iQMC18q7eru1kLDDiflpsq81XIFVORG+SwwH4UGy6+97lAqobdUQbFcpX3OzHP5BmRZFkbSGzWSQWoM6jpQ2l+kjRWO9PmUPjNITVOGeco0Nln5lEyqIcGKiZyiNMFUtZHBJETV4XA4HA6Hw+HY0HChgsMx0hEeEJpS5aVGXrJaqaFCkwpvtFuhliHzbUx6ooIMt5G6uCjNXq6dTHxhQozwyw5So13az1CUdqvfmsLRk3j9cmSWRVnmMc/7rJhnZbjKDDOfOb0DkckiW2hkzqkqrzXmTdsULNRkOJNZlXmvBaqR6DuoAyibUjO2/0GvjthhkQxNeWDiEkrsGEcIJ/odmsxtooY0rT0c6ZUnU5P0WP0yDapfiQ8qMlN2FSQpy4KK5ciATZW7NKnNCFF1OBwOh8PhcDg2NJJVuMPhGLkQ09h/JTvNX448JBnpLFlHWoQdCmRKbXcCmWKR6UlRlb3ZSR0e2Uv7YtoTdSg3w6E1hpPSazgKQgXlUQIR5ThQhoy2Mei5LCrVsgVVBdUMGWsam1iCmvqrAPQl5/ItdWhSGeklCamRBrrhP1ETe1PDKwmD3Q6kaB/86Kr7AeHwF752EfzoorBNpX0QbjCflkYJTfIsA5WSikH1L/cK1Dybau7DnQsVHA6Hw+FwOBybBFqfOhyOEQxjOqWS9LC+pq3vGT3HLpPJtH0KJB1YqOfaZLRrVO0JP/nMKtlYbYvXuQM0CvdURwgJWaZNzLKewleYv0omy6SL4WYWJDyQOTNe1RaGTJllwLxThfLPPCvfVhZmxnuWTyahtP7JlOwDyOrQw0Qf1YSC/xgm7eQ2uhsQ1lAkN4FUGaZG83Q4Vock1Zv0iZ9gL/NgpvzmmFMN2hK7qNYlVAktQw1DJqYbQEJUHQ6Hw+FwOByODQ0XKjgcIxjGLibMorGPpk8RmUrZZcl5Z01gkHDh5piMKBnSQNQnrxGYOkJIDDOqgZnWGQEmRGCeIoWdBCk982VP+qkqiHAvUoZpnrgf/o9+48/8hrAGkJnZyxHJL+VnrT+5kwBIJH0SdvyZmVQSM9IfV9CbrfSqToXBcpJQSfUth5mQcSuDkHe1CLMaQEJUHQ6Hw+FwOByODQ0XKjgcIxhiICOzKL2dvK538ZEn6ZOSUnPh6b4OOszQLqt7qjSr0L3sdB/UhLJroGi3qdyQykyv0moCETLJ+omTDvdB1S/e68wBO3+AfoyZjsy1fmaXU0GZmzDErYVUnlGv8BWmxRPSYOcymF08pyJxE/2sjSxs+jO/0idh1t30x628qAz0eko4b0H5SNxZOkhyzoZgbSGmj4rJH2gq66FIiKrD4XA4HA6Hw7GhoVWrw+EYVdAT7Co5RXKTYkb1WkCtTMYxbP+vaWt9lqypDvKjG6lZutM5BVkyusaikykNZxfQjt41EIT7xC6qG9mNmOMcGXdjjPU0XjsqklcYjH3WE3zp4pYE8yMmOfg3nRxIb0US76XXVf6o6F2KuproBVNDuCGMaE+9SAc+RrL4CdsaIL3UhMxMKhULQ36TMERyb2pyLzulPVEFu9K/CVXoTjmsp4d1l5GgiPHoznYy1DNavyQ++1WHw+FwOBwOh2Njw9edDscIhjGQCQW2kSAzKaYyvLdPVYxmLXn3npy1ntH3UzQjya3Mor8BatRH2kRulJ6sVEE7DZhT++tCcyrKnzHtdi9VggOx3kEN9/KrIGTP8M2/1KCvx6W402UiswH66Cbqdb4B76P/J/kdbE69uaV+QFxDuZHa78bOW6BZOHdhkDu5sd0XsRXEliFdVIcmIaoOh8PhcDgcDseGhgsVHI4RDLGLkTkMrCORMNXa9h8+WUhVDGdkOo3BFukcAN2KRU//FFbyM7vN6IZMc1SVD3tjgCTFsiID/U1VHmU+yJ/dy29wY/4YR1QH/ganJ1Ejpc3tl3Kvn9kl4aYpmg34DY5rOG4SNVLqvsr6pIYmlrX6NQoaQlhPJiGqDofD4XA4HA7HhoYLFRyOEYzALgbU9dKQ7Cm2MdV1I/HX5CAldNCrBFWqFVOfTJFZlX7zudET+KAGttcEA/25sWvQBwQTXft/4V5lIb3CCfHYqyCpuPopnZ410drcDBXuhiqfoSj6C+5CjvsR9dF8MAlRdTgcDofD4XA4NjRcqOBwjDqIcU6xjfb4XojnLPCeFPhzqUEfhBBRjfpov3ncKC9RDcKAoAaSXojq2hH8BigOXgfE1a+m0yN1MKX9pP1Fu6H8pc3Tfgb7eyo3UgdTNA/+lcvhlYjD4XA4HA6Hw7Hx4UIFh2NUQl2XnKaQvAJhrCYZ1H47qZGim8E0UtwEVllnCQT9ugoVAsMdwkrHM1RckQa7S9NQ7kVDuU3TUH5E6+pmKApQaci1w+FwOBwOh8MxEtC/UnU4HCMKQ7HSZmZChLhlnloTJITzFMI5CzQ3l/1q4jNR10bCUOZpkpKErQQkevtJbySX+sm6312azFZ6U5knpT0y2Ik+WAfVKPoJ/3CpWwYaKj77SdVt4iW52C9YhPu6nlS3M0gdDglDmadJGMp8bRSuSe2Hu2DscDgcDofD4XBsNrhQweEYgehnHgfyjWamC3VxO7z04nvtKxC8NXNzaa7sGkhI3w9FwlDmaQqKhc2/0iO5hlEwohrFAyFN9YMkU2SHTUpvqtyYGCHw86lwzDySXJh/6sX0DxG2vSKQIiXAflITfyFc2gcb6pNwTB/uoz+pAWY4DBKGMk+TMJT5WkjpVuHoLiQwWAUjh8PhcDgcDodjs8CFCg7HCETkFRPWsQ4zM8ZSzHcgoc4kJ2aJ6cbjN8nUKhYJBOrCAYu/X61KL2I6lOZsNZAx9UpjisFXfuIXLcTDm306/ISsBGhnCh3GsNJhK//RXEHXy8SI4WSyVLNmH8MLTDpV6HDL5F7uzZ5WmxVJApIyFuyrFzFtwcjhcDgcDofD4dgscKGCwzHC8WSeMTDAgr4KoPMHggmZTjPVlw82MYzplzAgg1yVqaFa4ehSJROcZRJFSl2WbgaTmHhzQ32VDL/45VyVF+XGwtMwJXaf9sbw645mJhiQfch5VuHIXq5pLsR4zRNRRQ6VWo5q3u6ztTLjrPE+S7cSUpTpnuWnqOUgeBsZYLprTL/KoS5UEEJWHQ6Hw+FwOByOzQIXKjgcIxBBSBDUNM9oZsYwi4kPJNOBOxUiu2ns9EaB4lH4iiFbJatOZlzsbpYMebZGMlX3gUlX2qoZushkjSoiuaJZRT5lZyFXQ5ppL6EBPdMuyTd/clfJKkQSw7RwSGK2K1kx3UEoYelSWfAmCC9kQ1dMk2LMoES7MslYdCOJI5S2EL/9eQl2mxdJ/FSUHN3FNmCJ3NzJczgcDofD4XBs0XChgsMxAmGMY6KmeUYzM0aXeuMpg0vx+LZtn4bhTAUhPLXfGFDcJlcg1cjkl7NZEpl805M5J8mRUiDmPwgGgmrmkRSE7EiyM0EAfyX6l72JLZhf6cOuBoaRmEkAoV0GQbiAIL6IYdFW5orTyCIJOxMkAJFIwwxoJzGCwpY+U8vROAgW5MWYd4azeRHjt1SFu7TR5k6ew+FwOBwOh2OLhgsVHI4RiMgnSh3MM4an1IHBDAwvGU2pT2J+B99vOBjDnzD7eu6vPQli9sPugyzKeuLPdNpOBOolLMhpR4NeVTBVuxvoi5TXeQg1Mvm2ayDkLOw+EJOvVxOYDwlMaCL3YbdBidRHfcmEAhIj5CwMuqdzCTUUWjUbhQ5hl4TSqxhCWvRqRg65SpZ+kx0NVaVVAgz65n3YDaLwRwCY9pD+UEaGjVfFDofD4XA4HA7HsOBCBYdjtCG1ZR+Z/ifumxRitEVk4rVpQEKBIChgOio15JnEXLWMfKVEzr5MDwkzTEU6I3lPVFmI6bchKZtnjrKo6VwFMvdhr4GcSBdeqcjrFQuGLb3OkNDGCAUUXv+QgKNCHlykwMOOh2o2a69ISPAhBj2j1y4sQWLWmUyjEIb5MfMQ90iBsmNZDbcslER1OBwOh8PhcDg2E1yo4HCMNhijHLnJ8HR/84CsrQkW+M+Q2RcTT5a9wGuuVkRLvoZxzXk05bRTAOG1CDLqelXCdiLYboSwe0D68NoBSYKBSgljm5vQmKO+3EO7koVR07kJjFIbCVqb21DI5i1+iRe0dwEZHcCYtYEtJ4FDqc+EG9VqkcVWob+KHfbYx5hquRBXmeXZR7syf1XmQYIFpVV2EmPE3QEjBQNS40IFh8PhcDgcDsdmhgsVHI7RBj1WT5NxluK0+5WNDbHbgbmVgCCPChnwaqWKSiUcfpgn8961fDHuvf469KzsoDva1cqokMEXVamvSk9GvkKGXvpw2GMFebptrBTx0G3Xo2fpfEwe04imXBWZTFnSC+RzBZRLRdx3x+1YtXw5wiGMVeS0AYFhgSTRQkOtivGNOYxpqGJccw5thRrGNmfQ1sS02wENRYxpyaKZ5q3NWbQ2Us1X0UJ7CW4krlEuw+6HWK7Um7oZkEQ8IH41gUTrcKwPws6cfjVi8L3D4XA4HA7HmuBCBYdjtIEMbzi8UDdc+NvaX0/7qQ388CZAiETXGpn4lsYGMugFjGlrRGtDFpPbm3HHNZfj3O+fikUP34+pY9swtpDF+Ka80bhGUkOikvEfRzPtaMiUy2imuuLxx/DH00/Dbddeisv//VfMf+BehqvzD0oYQ7VvxWKc983T8Mi9t2BSWwGFSg+a0IfWQg0F+i+wHDqXLsb9N16NB26+EvddfzkevuEKPHDt5Xj0jhvQkimjd8l8PHzjFXj0pmuokm64Eo/fSLrjRqDUBQZjjJVeoTCyso7ClM0D1a3iF4WyD3qHY31hr/lYOw8tSfr0vcPhcDgcDsdTIcPFg9amDodjhEEdMzCPWuQDWS7yVxaL+PbvLsaKUgGZbAMq5DKzdJXTs3oxA/zpFQNJC8WAmpBBgW1g1KpVBqzXByrIZ6t4mIx4Nxn9TJ4pqWbRmCni8v/+FR1LVuDw574EY6dsg1JF5z8QTF9kjpVepbZYLmHCdjMxc+fZaGrI4YJzf4er//N3vOHEd+IPv/4Npm6zA97+iU+hp7uEJsa5bN4jOOOrX8IL3/Qm7HPIYSgjj5tuuB4P3P8gnveat2LKxHG44I9n4dq//wH51jEIhz1mUO3pQnbsWPzfN76PGy+7GP866wfItU1n4bI8a0WUVy/j/QSc8Pkvo3XSdiiXtUNC6QwFaa9D8Kq0bxqEus9lMyh3r8beM9rx9hceZq9xBKbPtmds0hQ5nlmIS4AK+2c+n8eVV16Jk046CWPZT9TGzj33XEyYMKHuzoUNDofD4XA4BsOFCg7HCIU6ppbvJirgTVqosKrUaIyw2HQ9RZdQQY4qdLsphAqKywYOqs0NGfzkS59Fx4O30yAwuaj1JapeRBAKpBwpHiwp0j3VLPNS7cbuz3olXnXCu1DuWYnffPeLWLJ0KT592vdx0d/+gsv+fiZe/6FTcN+9D+Hmi/+LQj6DUncHsg0tqGbzmDB5AnpXdzKocXj357+I1nHjccHZZ+HGS/6ND338kyyqMSg0F/Cvv52Nu26/A5//2g9w3eUX4h9/OBsnfvzTaJmwFZpyNdx4xX9w0f8uwon/9xW0TpqJPglPktQqP/bJS5bvJmOrknKOQoW9ZrbjbS84DLVKGVmaSZyk1Dmj51hfuFDB4XA4HA7H04V4D4fDMaogIYOe9odPNXKVb6bi4aMgYVNA7G42k0W1r4rXvfkEMuJfw4mfOw0fPuVUzNh1V5MZvP6978OnvvEdfPTUb+NjX/oWPvLlb+KkL5+OD5/2bZz0pa/jw1/+Bj586pfwnpNPx1EveDEq5SpWLVuJJx56BLvssTeQb8Le+x+MbMs03HHHfZi1+x449tWvxAHPPpwpKGG3fXbH69/0aqxevgjdK5fgFce/nl5a0atTHXONyGQbMXHq1pg4bRqmTd8GzS3NKJWKKNlXIMrI5CuYMGkcJm01AVOnT8XYcRNQLVXRkKFfBqGdCfbpTFRJAYHN30Swukzis/pNYmfibH8C7TdVfTuemZCwQIKCoYQGMovmDofD4XA4HGuCCxUcjtEIMbpx7Z8s+nUvkmBhY8MYEf70yoUOaZy4zUyM2WE2tt59b/RUgUcfeADbztoLU3fYEctXd6FU7SWj34PuchndFaCrUkNPuYLuYgm9pQraJk9B6+RJyGVrmHv/Paj1LsOkSZPR3tqEradNwzs+/jkc/eKXY899D8HzXv5aHPac5zIVFex/0IHI5XKoFrvw/Ne8EXvsfyDKLAQxRvoaRbFjKU4/9XP46uc/hpM/8WHcdPllaGpoQGsBaGZctd5F+OW3v44fffEz+NLH3od/n3c2Cg159BV77RUDY6iUV5Wr8m25rhd8ICvvjVToFmzC8HG01r6JCsuwWCxSLaFMfaVUNtXJaX2oWq2iVCqZqnvtWBgKUcBgbTG5dzgcDofD4RD89QeHY4RCHTMwslrIk6ckZ1t//aGop/DhTAUxm7kaWV060usPlSwZahrHXQuRBd6QkDChHm6magxJJpdFc60P5/3wG3jk1qvxmhM/hH+ffxFWP3oPHSk3QpRjij3OAQ2kYjcOe/kJOPqVr0V51RL86uunYsFjt2D3I1+A7bafhe4VHRi71TTsMGdv3H3zbWgtVLFiySO47F9/wS677Y4H7rnPBAUvetUb0FFtwJhtdsAee++LC879La75919x6JGHo1ZoYPoKePTBe9C5sgPHvfDFmP/4E7j55hvR0tyMpQsexsFHHonlK1bhsYWr8PaPnIymCVuhWAmvP1StHFWu+iymcpHkfmMUbhpV7ZHQFy9gr3scOHsS3nzMgYmlw7Hhceutt+KEE05Ae3u7CezOOeccTJw4sS5E8NcfHA6Hw+FwDIYLFRyOEQp1TC3fhxIqrCw10KAA7fLPknI1srmbUKigNNmfgZcZUbZcwviWPB685Vqc860vYJe99scb3/0R3HrnQ+jpXoV8vso8kCpltGazaGuo4torLsY9d96KbOskvPSEk7D/oUfhpkv+ij//9NuMoYrpu+yF5St70LP4CYzbegae/4Z34A8/+SkylSKacn3o7VrJMHuAfDuaWlrRW1JiGrD7kUfitW85Ho89fB96Ojowa9c5yBXy9FdCd+dKPHzvHfj9j7+HI1/4OhzxvBfjrtuuxwXn/QLTp03H8172WtSa2tA6eXtU8m0szyzzSGIpSg3Q4Y2MKw6dVsjSb4SSZhzJnhDkme/W8lJMzKxCIVNGhuWon6XDGD1RkiaHYx0hwaCECHPnzsUFF1yA1tZWNq1a/UwFExyynaWFCi5gcDgcDofDIbhQweEYoYhs6pOFChdhOZln7VSo8ifzXC23SYUK2qkgFrsidjeTQxv6UFk5F7/5/tex9LH78eLj3419jn4B+mrNKBRyYUs1E6LDELPdHbjsH3/Ehf/6EyZNn4HnvfHt2HbnPVAr1/C7738R8+671dJ++DEvxcvf+Gb85AffwYJHHsZJX/gWiqUetOQyuOyff8El5/8NO+51IF75lreisbERpWoWvZUm23lw87WX4X9/OQeFMWPR09nDMqogz9S2tDSiXOpE58In0DxhKzSPm4reni50L1kAlDuQa5lO83Ho6QNe+ub3YtZue6GnXAVy9K0KUcHWwhchpFolMV5ktaMhCh02ICSIYcHpaxvtjXksvO96XPGPs6jXqycqUh3VWGb7yLDedSgm24N2N6gNhBAcjrUiLgEkIJC+Qa8Htbaip6fHzP/+97/bToVySYKsIFTIZrMmZJDqcDgcDofD4UIFh2OEQh1zaKHCxVheauCCPggVtMjf1F9/CKOGGGnGRYa7vdqJ3//wa3jolktp1oaXvO092P95L8Tq7jLTRrY4l0WeDEmxYwV++d1vYvH9t+KAI5+Fl77+rci1T0ZvJo/l8xfi+5/7KA569oG49eprcOChz8Yr33kivv+NU7Hovvtw8nfOwKIFj+Oiv/8Ft1x1oVKBnfY7DI1jJwKVItOUxd5HHYeddpmDh267AffdcSMamprRQJcN2TKKPb24/pqr0b3qCUyfvReWzH0Yxc5O7HnIs7HV1tux7JrIOFXQ09vDPDVhz8Ofg4nTtkGxXENJOc0yJxnlWS8kWPQGOzRzI+5UMLEC42hvyGLpwzfjmvPPwZgCrVTPNM9KqMCrhDuWNvrZpF+ocDwjoKWAhASiZcuW4XWvex2OOOII7LfffmhpafGdCg6Hw+FwONYIFyo4HCMUkU0daqfCCtup0EgWshKECtqpUA1ChXJO9+rcYjw3CqtrDIjSJJ4iX6vgur+fhav/+Us0No9FkRz4c1/1Joydsi1Wr17NtOjgtwoa8ll0rliGC/7yB2yzw3Y4+nkvRLGYRU85i16GNX7CJDz+8IPYc9/Z+Nk3v4kDDz8GL33HO3HGN76EJffeiWNe/jr8+5xfo697CfIt47HN9jugkm81hjpT6sYT996K577tQzjgOc9HY7EHNZr19vZh+cK5ePje23HXzbdj/mNPYMaee+L1734/HqH7P/38J2hobsN+hx2B3ffaH61jx2PsmLEo1xrQXc0y/AaWYR4Vvfqgp7OWF2Vc5audCtTwNhTyRihp7TpgRUp4oB0aPYvuxqJ7r0djRp+UzKFaqSGXUa1nWMJsAxkXKjjWHXEZEIUKK1aswPve9z4cffTRqJTDGBMblAsVHA6Hw+FwDIYLFRyOEYrIqz5ZqHAxVpQLyesP4Y37Tb9TIdmloMCL3fj+Z96P1nwRx73wJTjv7D/iwCOPxm03342eZQvpjI7IEKMqP32870Uml0et0gBy7bzPMcA+bL/3YTjhpJOwavkCfPOzn8TBx74YL3/bifj5N07F0gfvxLQdZmPFksXYZtvpuPWWG/G5007D+CnboiFfwKLHHsIpn/k4nv/mt2PvQ4/GuT/6AVbMvR+rOpaj1NWBfHMBM2bOwX5HHIvdDjgEvdUGFHI1rFw4F9df9HfccuMV6O3pRbahBWPbx6GvmMPex70KRx77AvT0Fpn+gn3lov76gwpYFUQz7ZDYmDsVFLLqvtrTif13noA3P88PanRsfOiVpfiKg4QHIi0XoiBBetk5HA6Hw+FwuFDB4RihiGzq0EIFff2hgMDa10yooHMO9NsUQoX4BF1vA7Tkc7j9+ksxaeJYtOcy+OGpJ+NFbzgB2++xNzo7V6DKdOr1h8ZMDn3L5+E33/sC9jzoMBz2gjei2F0C8lkUyag3t07ApK0mo3v5Enzn5I/hoGOOwyve+j6c+Y0vYsGDt+PjJ38FDU3tuPnay/HHn38Hexx8JBqbxjKTVfR1d+COm67HC976Lhx89Atx9i9/ifuv/jfKPYuZ2EZM334nTJwyFQ2NLai1tOG4V70Zjz/wMO686mLa96BzxVw8MW8+ejuWs8By2GbO/jjmDe/H5Gnbh8/t1ViizINeRlCBZky4QK8sYNVN4LM2QkkzbxIbSXhT6enE3jPH4q3HHYyKmL1M1syVjI0Qs2MLRxQkCHGZkBYsRNXhcDgcDofDHzM4HKMOkY1MHpdLciAdFRMihPX/RkVIQWA69NnFvQ48DDvO2Reru3rNPtfchMnbb49pO+2CrXfcBRO22wWTd5iNSdvsRM8FtE7cGlNn74VJO+1qtNVOu2HcVtP0MocJSyS0yOnww3KPHbCYz1SwZMFcXHjhf9HT3cEYylixYgkWLpqPxUuXYsmK5QxX5wo0oFLJ4LVvOQFHvuAVQGEcZu1zGNrGTkNvbw133norbrrsUmRyNSxfshC3XH0xlixZgUzDWMzceW9Mm7kHGsaMxyve8jZsve22KJaKzGiWfwltJMIhIyVmykoglELYS7CRkGLeIiMn4VL9wLwkbfYlCN2bedBHP05Oa6O4E2GwKjKwecd7Fyg4HA6Hw+EYCi5UcDhGJVKMbCJFkBJ3J2x0xDg4glSyNfSVqmTay6jKgInQrgmZdXb1ordYQW9fCd19fegrV4BcG8rVAs3op0ii2ieV/Hs1k0dZX4ogc1yt9KEhq68ZlNG1ahV+9I3TcefNt8gRso0TcOIHPoGPfuEr+NgpX8Tb3/t+oNBgX0nQgYV95RqKlQxyzRPxjvd9FCd99hR86tQv46Cjj0amsYACyy+rzzK2jsdb3/8+fPDkU/H+//s8jnjO81DsA0rFHEqlsqVDpVvTlgBjonhvTBX1SUHHotgoUJ0mTJyEGqYnWV0rCfxJyEEHIZ26mKnDMTyoba1JNdIv0Ufz2CYdDofD4XA4BBcqOByjDpGN1aJe+uQ+0UbbjQpFwujFcFRyNZT1OcNcI0cUDSlkgKsV5HMFNORb0ERmf2J7IyaPa0RzI+1rtMvm0EBtgcyJdiLk5I9UVpZopwgKhQJWLFmKhx94iIz+akycvi1e8+Z3oKlpHKp9VVx16RW45D//waXn/xs3XneNhVtBFeUMVXLd+UIWtb5u3Hz9tbjy0otx5WWXYv7jjzFsbYSooJBl6ntW4c5brmdYF+GaSy7C4/ffh2wmj2q2ydIh4UiVeS0nDL3yTHaKetMQsQ6kbgRYsIOeEstYKqkuZHBy2oRkrTJRHQ6Hw+FwOFyo4HCMSoi1DNvxNxpDuxYEBlcqmQsy6Hrz384c0CsCspBdmUb5Rjx471246Nc/x6V/PguX/O1cJnuVfYYyS88SA+jLCvo0pvIjrxWNSpkcapUcmtrGYfz0HbDrkS/D2z76GWy9064oWnZ7ceGF/8E///4n/OOv5+LSC/4LlPqQLeRQreoTixUGx1D7unDOr3+J3//yTPzyRz/EA7fezjjyKNOuUmVA1S787fd/wNk//wXOOuNMXHvZpSYMUXYqNRMfkPSFBaqWN8WtzEk4YjcJ0voNCAvWMkwtf0yDikenO0gvG6UwQGoox35K2zkcDofD4XA4HBseLlRwOEYdxCBGJjHNOG466CmlYtVbAQUOI5lchox6EbW8vuZApj1DtjebQy2Xx4rly3DtBf/B/87+g51nMHGHvTBn34PQXaygRPtithEV+lFeMiT5Q6aAUq2J4Y3B6048Ca948/tRLYzB6mIniuT50TIWb/nwJ/GR076Jj5z6TbzlfR+n2Tida6jU8MIwGtuQnbAN3vf5L+JDXzgVn/n6t3DwC1+GQks7crlGJrMVhXE74K0f+yxOYjgf/9p38KI3vA3ZhibmSwIShqPzCagaM5/kWWx8v1BBJFOpGwsh7PDKg8QcMpFQR+KOoA+QKoptwoUKDofD4XA4HI6ND//6g8MxQqGOGVhW/ngz4OsPpQbyuw2oZsSIh09KbsqvP4RPSorx1qsLNZQzOftqZL53NbqWLUBT+0RkWidrqwJqvavQ07GC6enR43+0tLajYcxk9FRydh5DTWIAprVQK4qHR7VcwqqFT6CpdSzaJmyNWkVfXwBK1SryhRLKPd3oXtmBcdO2Q1WvXMiyXMGKRU9g3Ph2FFraUGKYlZ4OdPf2YNyEyQyjikYmsK9nNXrpv619Aqq9wOrOFRgzeRKqDQUNhjRYiT5SfvxU1PJNTBszZYUvIYLl3HZT2CUZOqWY2cYoaatT1i+j16cx99tpLN76/MPs9RI7rNFqWi4Ut9ITKd5bS0iZORwOh8PhcDgcGxYuVHA4Rij6WUP+eNMvVLgIy8sSKjTS3L6XQIaeDHpwSQ80oceNKlQQI5+Era8rFsn1ardCodyL1nwWPTqcMddE2wwaqiU0FvLI5Muoliqo1vIolfJMW5ZUpIsssjq4IFOy9Naobypk0FfRSwwNyIH+aFHL0k+tTAa7gAZmrlzqM/flbAMqtQLGNGRQKXejXK6iQjeNmTLyDXms7mMZSVpRKaEhLwY9CyaD4RaQZ+J7yn0MQ+WcRTOv+tJEN8NTvsSSm/gkSA3IzFfrp+PHoTOabRSkhArlIYQKSmHYqSB93JkQ76UqXfVckBwOh8PhcDgcjg0LX2U6HKMOGRMY6Mm6DulLHpMnZmQlw+1GhQQZgXVlZIqzSiafjG6plsXq3ipKOuwwWNFRDj2lMrp7y9AHFXpLNbK4GnqUYOrIlOu1ByXcXjkgu99TqTEs+TUxialyn6nloI9D9DGgDP0CJaoVe9uhs6eb4ZeQzUv4QNe8VPr60MDy0esMuVwDKtUcipIgMA4Gg95KiVr611cmGHWZ8fcxjTXGIyFDiL2/QOPhdGlZ7Mg5sE7pGIqEqDocDofD4XA4HBsWLlRwOEYhsvyJoc/o3f4Em7Iz18jki00Va11lxHne5Mnj68sJtWyBPGyO9zXkdYijMeD6kkKBjHyeDHyO1hWGIbae5uTmA5GR144CZUT+5Y7+I/sufVZCiGwZmWwNFbqpZhqQYTzZai/y+mhENs94KshlyiY0sLMdalW6kaSAFFJMYri8D2VYQK5KqlFv8VOveOhWAoMgPhktUK1YASaqw+FwOBwOh8OxceGrTodj1KFGhjgIFPQFBXK+ZrpJdyqI2SZJuGCfNGQ6csagkxHXu/5UlbYMExN2U/BeDL6R0q8vPUgwEextV4PukzBtF4b8K+w6KS7taKiaH4UlIYDsshZecBf8BTd2zoTMU2kObnRPO0szw2A6w4GMIU5LO+3p2e4jot53KjgcDofD4XA4HAEuVHA4RiOMwU70CYOre5F44Y0O8dtivBNG3Jh8/ZSmeG8kN3Ic3Qc/5MRpEPwEs5DuGGbghwPzH/3Spu43uDeLYGdugz74S9wkboO9ObcAZW7h8RoEI5GUrqCGrz9Qb34CLHwiLUiIZhsbimUwCVF9sm0kIaoOh8PhcDgcDseGhQsVHI5Rh36m2pjghMHV1XT9/O7Gg0Wri/RizqUNv/77YGbpk1mimhHtgtpv1u8mWCZGdi/zxLiuBn/Bj4kITC8r6a2A6CiowbnMo+fkan7Tv2hmiq6JGmDpG4ShzDYGLEtSU6Qc9sc+2DaSEFWHw+FwOBwOh2PDwoUKDscohJ6q63OS1cg4b/FIM88a1tL0zGCstXEi1rZOhYgCBa99h8PhcDgcDsfmhAsVHI5RBwkUtEtB+shebulICw5EUZjwDBIqkFTbscZdqOBwOBwOh8PhGAlwoYLDMeqQQTjLIFAiXagzmlsmlxkzHUthMAlRHZ3QWxaq6TQpR1IdDofD4XA4HI7NBRcqOByjDmQl6y/YJ/qUNpExbGGImbZCGYKEqI5ShGoegFGeI4fD4XA4HA7HMwAuVHA4Rh0iKykuk/q4UyHRJjIGxzMNsdodDofD4XA4HI4RBBcqOByjEvGsgP4urHftHQ6Hw+FwOBwOh2NTwoUKDseoQ7JDwbpv//sOvlPB4XA4HA6Hw+FwbGq4UMHhGJVISQ78TAWHw+FwOBwOh8OxmeBCBYdj1CFKDSRMkD65T7TR1uFwOBwOh8PhcDg2Nlyo4HCMSkigoFMUpIocDofD4XA4HA6HY9PDhQoOx6hDWpAQBQsOh8PhcDgcDofDsenhQgWHYyQikRPUUvKDKDqopV95qCNxKA+JJ/2iuqaf3JqaorT5cH8eztp/6xOO7NLuw31yF430M+PoK7oJqsPhcDgcDofDsbHhQgWHYyQikRlkqMaDF6MYISNGVJxk/NxDnaRkTCu9nd+YqGsiwdQUpc2HS9G9hzM0RffrEo5VuNSErG5Z7zLO0EGNlNFPjlnpGZFseWuqw+FwOBwOh8OxCeBCBYdjJEJ8ohQxiFEficylhA3IVI2xjCQ+UgKHrByZO7kJqtMoJNZj+j5bq7LeM/3tgj/tSKjJMrYD2cq9VIfD4XA4HA6HYxPAhQoOxwiEWELyhnV1oD7HHztvpoxcpoJctkq1hhw5zQLNc3SZySYkPe3qpFASNUuSH1NTlDZPu/dwNk04UutuqTeiPq+6lsCAfjK1rGRKpjdQSesdDofD4XA4HI5NhQwXor4EdThGGtQrjYGUUg18YiaL1X19+NYv/42uPprkZSN7/shkBi96Rs2rpA9CEk4dvLen3tSKKY0Y5KQOBhvi8HDq2NjhmD+qQa/a1M6UGko9K7HPrOl444uPQaVUQj5L8xzrvZplPFVUGGKGZlneV7NVmil2h8PhcDgcDodj48KFCg7HCES6U5pIgRynGMZypYr5S1eiUtV298CiVqkY8ykmVAYDmFK7rUP2MpehFLNP7uuI/qiacbw3ywDzkviT4uE8ycn6h5O4MyGDzAmJFqqVMsY0N2GrsW2o1rRLJYvwOkQW2rlS5VCuNpJhg6jZLpXo2+FwOBwOh8Ph2HhwoYLDMQJRZa8kf2hqnbkUt0muU1vgHVseYjuoVcqoZqrUh50ItWwWeVpW2D4kZMjWsmbvOxUcDofD4XA4HJsCLlRwOEYg1CmNgTTSU2epiUnssVRts0K8H4T41PtJ1okfKU8F87umODycpxmOPAVHIRxeVWmJuX42PCeVXNNBjdqNkMmaN3NlOxWCeMG8ykz+zDQxcDgcDofD4XA4NiJcqOBwjAaQoTTm0nqrXohId1sxmbITA8rbyF0OB5GRTXtR0HUGd5jwcNaOIcOhme4Vnl3SLzxIZb1GN4KciKyu6TabvP5QrSJDvcPhcDgcDofDsTngQgWHYwTCeMdEDUh3Uz2FDmKF4CZyndGH1LR+MPp9PjU8nLVjQ4Qj+3QY/Xp9LjLKi2RuMgYJEqiRGkO3nQpyQoMM/cQDHh0Oh8PhcDgcjo0NFyo4HKMC6qaRhRyMyDym3UQairGM5pEGu4v3MYzB9hHRPNJgd/E+hjHYPiKaRxrsLt7HMAbbR0TzSIPdxfsYxmD7iGgeabC7eB/DGGwfEc0jDeUubSZ9RDDTnpRsLRMO4+R9dC1VggSR9jf4PgWHw+FwOBwOx+aCCxUcjlGBdDeN7GXEUCxldDOYiRWi+VB2g+HhrB0bOpyIUKdhZ0JQJTyIIUo1oUJq14LD4XA4HA6Hw7E54EIFh2NUIM1ORqTvo36wm6dC2l+Eh9OPTR1O+j685BIOXhzoM4212TkcDofD4XD8fzv3jgIgDAVA0Puf2iqoEC0W/MFMG/O6FC4hcDdRAeA1PQmICQAAfIGoAL8wfiHPjutYu/pmZr9vMGfz5pzjTYWZ2VQAAHiSqAAAAAAkHg0HAAAAElEBAAAASEQFAAAAIBEVAAAAgERUAAAAABJRAQAAAEhEBQAAACARFQAAAIBEVAAAAAASUQEAAABIRAUAAAAgERUAAACARFQAAAAAElEBAAAASEQFAAAAIBEVAAAAgERUAAAAABJRAQAAAEhEBQAAACARFQAAAIBEVAAAAAASUQEAAABIRAUAAAAgERUAAACARFQAAAAAElEBAAAASEQFAAAAIBEVAAAAgERUAAAAABJRAQAAAEhEBQAAACARFQAAAIBEVAAAAAASUQEAAABIRAUAAAAgERUAAACARFQAAAAAElEBAAAASEQFAAAAIBEVAAAAgERUAAAAABJRAQAAAEhEBQAAACARFQAAAIBEVAAAAAASUQEAAABIRAUAAAAgERUAAACARFQAAAAAElEBAAAASEQFAAAAIBEVAAAAgERUAAAAABJRAQAAAEhEBQAAACARFQAAAIBgWVYQ2uqToHNxFQAAAABJRU5ErkJggg==;imageBorder=default;sketch=1;curveFitting=1;jiggle=2;rounded=0;" vertex="1" parent="WIyWlLk6GJQsqaUBKTNV-1">
          <mxGeometry x="-560" y="769" width="623.29" height="201" as="geometry" />
        </mxCell>
        <mxCell id="AyRYUC4_aSlw-x8W0usr-11" value="" style="edgeStyle=none;curved=1;rounded=0;orthogonalLoop=1;jettySize=auto;html=1;fontSize=12;startSize=8;endSize=8;sketch=1;curveFitting=1;jiggle=2;" edge="1" parent="WIyWlLk6GJQsqaUBKTNV-1" source="AyRYUC4_aSlw-x8W0usr-3" target="AyRYUC4_aSlw-x8W0usr-7">
          <mxGeometry relative="1" as="geometry" />
        </mxCell>
        <mxCell id="AyRYUC4_aSlw-x8W0usr-3" value="" style="shape=manualInput;whiteSpace=wrap;html=1;hachureGap=4;fontFamily=Architects Daughter;fontSource=https%3A%2F%2Ffonts.googleapis.com%2Fcss%3Ffamily%3DArchitects%2BDaughter;sketch=1;curveFitting=1;jiggle=2;rounded=0;" vertex="1" parent="WIyWlLk6GJQsqaUBKTNV-1">
          <mxGeometry x="-560" y="1096" width="85" height="55" as="geometry" />
        </mxCell>
        <mxCell id="AyRYUC4_aSlw-x8W0usr-4" value="&lt;font style=&quot;font-size: 12px;&quot;&gt;&lt;b&gt;输入设备&lt;/b&gt;&lt;/font&gt;" style="text;html=1;align=center;verticalAlign=middle;whiteSpace=wrap;rounded=0;fontSize=16;sketch=1;curveFitting=1;jiggle=2;" vertex="1" parent="WIyWlLk6GJQsqaUBKTNV-1">
          <mxGeometry x="-557.5" y="1119" width="80" height="23" as="geometry" />
        </mxCell>
        <mxCell id="AyRYUC4_aSlw-x8W0usr-12" value="" style="edgeStyle=none;curved=1;rounded=0;orthogonalLoop=1;jettySize=auto;html=1;fontSize=12;startSize=8;endSize=8;sketch=1;curveFitting=1;jiggle=2;" edge="1" parent="WIyWlLk6GJQsqaUBKTNV-1" source="AyRYUC4_aSlw-x8W0usr-7" target="AyRYUC4_aSlw-x8W0usr-8">
          <mxGeometry relative="1" as="geometry" />
        </mxCell>
        <mxCell id="AyRYUC4_aSlw-x8W0usr-7" value="中央处理单元&lt;div&gt;CPU&lt;/div&gt;" style="rounded=0;whiteSpace=wrap;html=1;sketch=1;curveFitting=1;jiggle=2;" vertex="1" parent="WIyWlLk6GJQsqaUBKTNV-1">
          <mxGeometry x="-434" y="1096" width="115" height="54" as="geometry" />
        </mxCell>
        <mxCell id="AyRYUC4_aSlw-x8W0usr-13" value="" style="edgeStyle=none;curved=1;rounded=0;orthogonalLoop=1;jettySize=auto;html=1;fontSize=12;startSize=8;endSize=8;sketch=1;curveFitting=1;jiggle=2;" edge="1" parent="WIyWlLk6GJQsqaUBKTNV-1" source="AyRYUC4_aSlw-x8W0usr-8" target="AyRYUC4_aSlw-x8W0usr-9">
          <mxGeometry relative="1" as="geometry" />
        </mxCell>
        <mxCell id="AyRYUC4_aSlw-x8W0usr-8" value="中央处理单元&lt;div&gt;CPU&lt;/div&gt;" style="rounded=0;whiteSpace=wrap;html=1;sketch=1;curveFitting=1;jiggle=2;" vertex="1" parent="WIyWlLk6GJQsqaUBKTNV-1">
          <mxGeometry x="-277" y="1096" width="115" height="54" as="geometry" />
        </mxCell>
        <mxCell id="AyRYUC4_aSlw-x8W0usr-14" value="" style="edgeStyle=none;curved=1;rounded=0;orthogonalLoop=1;jettySize=auto;html=1;fontSize=12;startSize=8;endSize=8;sketch=1;curveFitting=1;jiggle=2;" edge="1" parent="WIyWlLk6GJQsqaUBKTNV-1" source="AyRYUC4_aSlw-x8W0usr-9" target="AyRYUC4_aSlw-x8W0usr-10">
          <mxGeometry relative="1" as="geometry" />
        </mxCell>
        <mxCell id="AyRYUC4_aSlw-x8W0usr-9" value="帧缓存&lt;br&gt;FrameBuffer" style="rounded=0;whiteSpace=wrap;html=1;sketch=1;curveFitting=1;jiggle=2;" vertex="1" parent="WIyWlLk6GJQsqaUBKTNV-1">
          <mxGeometry x="-120" y="1097" width="115" height="54" as="geometry" />
        </mxCell>
        <mxCell id="AyRYUC4_aSlw-x8W0usr-10" value="输出设备" style="rounded=0;whiteSpace=wrap;html=1;sketch=1;curveFitting=1;jiggle=2;" vertex="1" parent="WIyWlLk6GJQsqaUBKTNV-1">
          <mxGeometry x="30" y="1097" width="115" height="54" as="geometry" />
        </mxCell>
        <mxCell id="AyRYUC4_aSlw-x8W0usr-16" value="" style="edgeStyle=none;curved=1;rounded=0;orthogonalLoop=1;jettySize=auto;html=1;fontSize=12;startSize=8;endSize=8;sketch=1;curveFitting=1;jiggle=2;" edge="1" parent="WIyWlLk6GJQsqaUBKTNV-1" source="AyRYUC4_aSlw-x8W0usr-15" target="AyRYUC4_aSlw-x8W0usr-7">
          <mxGeometry relative="1" as="geometry" />
        </mxCell>
        <mxCell id="AyRYUC4_aSlw-x8W0usr-17" style="edgeStyle=none;curved=0;rounded=0;orthogonalLoop=1;jettySize=auto;html=1;entryX=0.5;entryY=1;entryDx=0;entryDy=0;fontSize=12;startSize=8;endSize=8;sketch=1;curveFitting=1;jiggle=2;" edge="1" parent="WIyWlLk6GJQsqaUBKTNV-1" source="AyRYUC4_aSlw-x8W0usr-15" target="AyRYUC4_aSlw-x8W0usr-8">
          <mxGeometry relative="1" as="geometry">
            <Array as="points">
              <mxPoint x="-220" y="1217" />
            </Array>
          </mxGeometry>
        </mxCell>
        <mxCell id="AyRYUC4_aSlw-x8W0usr-15" value="存储器" style="rounded=0;whiteSpace=wrap;html=1;sketch=1;curveFitting=1;jiggle=2;" vertex="1" parent="WIyWlLk6GJQsqaUBKTNV-1">
          <mxGeometry x="-434" y="1190" width="115" height="54" as="geometry" />
        </mxCell>
      </root>
    </mxGraphModel>
  </diagram>
  <diagram id="68zm7fjskQl_IH7wtapg" name="texture">
    <mxGraphModel dx="1221" dy="757" grid="0" gridSize="10" guides="1" tooltips="1" connect="1" arrows="1" fold="1" page="0" pageScale="1" pageWidth="1169" pageHeight="827" math="0" shadow="0">
      <root>
        <mxCell id="0" />
        <mxCell id="1" parent="0" />
        <mxCell id="1aUbFaMfwsQ-ZgUfkjfb-1" value="为WebGL配置纹理" style="swimlane;rounded=1;labelBackgroundColor=none;sketch=1;curveFitting=1;jiggle=2;fontFamily=Comic Sans MS;fontStyle=1" vertex="1" parent="1">
          <mxGeometry x="940" y="110" width="280" height="506" as="geometry" />
        </mxCell>
        <mxCell id="1aUbFaMfwsQ-ZgUfkjfb-2" value="" style="edgeStyle=orthogonalEdgeStyle;rounded=1;orthogonalLoop=1;jettySize=auto;html=1;fontColor=default;entryX=0.5;entryY=0;entryDx=0;entryDy=0;labelBackgroundColor=none;sketch=1;curveFitting=1;jiggle=2;fontFamily=Comic Sans MS;fontStyle=1" edge="1" parent="1aUbFaMfwsQ-ZgUfkjfb-1" source="1aUbFaMfwsQ-ZgUfkjfb-3" target="1aUbFaMfwsQ-ZgUfkjfb-5">
          <mxGeometry relative="1" as="geometry" />
        </mxCell>
        <mxCell id="1aUbFaMfwsQ-ZgUfkjfb-3" value="对纹理图像进行Y轴旋转gl.pixelStorei()" style="rounded=1;whiteSpace=wrap;html=1;labelBackgroundColor=none;sketch=1;curveFitting=1;jiggle=2;fontFamily=Comic Sans MS;fontStyle=1" vertex="1" parent="1aUbFaMfwsQ-ZgUfkjfb-1">
          <mxGeometry x="25" y="40" width="220" height="40" as="geometry" />
        </mxCell>
        <mxCell id="1aUbFaMfwsQ-ZgUfkjfb-4" value="" style="edgeStyle=orthogonalEdgeStyle;rounded=1;orthogonalLoop=1;jettySize=auto;html=1;fontColor=default;labelBackgroundColor=none;sketch=1;curveFitting=1;jiggle=2;fontFamily=Comic Sans MS;fontStyle=1" edge="1" parent="1aUbFaMfwsQ-ZgUfkjfb-1" source="1aUbFaMfwsQ-ZgUfkjfb-5" target="1aUbFaMfwsQ-ZgUfkjfb-11">
          <mxGeometry relative="1" as="geometry" />
        </mxCell>
        <mxCell id="1aUbFaMfwsQ-ZgUfkjfb-5" value="激活/创建纹理单元gl.activeTexture()" style="rounded=1;whiteSpace=wrap;html=1;labelBackgroundColor=none;sketch=1;curveFitting=1;jiggle=2;fontFamily=Comic Sans MS;fontStyle=1" vertex="1" parent="1aUbFaMfwsQ-ZgUfkjfb-1">
          <mxGeometry x="25" y="100" width="220" height="40" as="geometry" />
        </mxCell>
        <mxCell id="1aUbFaMfwsQ-ZgUfkjfb-6" value="" style="edgeStyle=orthogonalEdgeStyle;rounded=1;orthogonalLoop=1;jettySize=auto;html=1;fontColor=default;entryX=0.5;entryY=0;entryDx=0;entryDy=0;labelBackgroundColor=none;sketch=1;curveFitting=1;jiggle=2;fontFamily=Comic Sans MS;fontStyle=1" edge="1" parent="1aUbFaMfwsQ-ZgUfkjfb-1" source="1aUbFaMfwsQ-ZgUfkjfb-7" target="1aUbFaMfwsQ-ZgUfkjfb-9">
          <mxGeometry relative="1" as="geometry" />
        </mxCell>
        <mxCell id="1aUbFaMfwsQ-ZgUfkjfb-7" value="绑定纹理对象，将纹理对象绑定到纹理单元上gl.bindTexture()" style="rounded=1;whiteSpace=wrap;html=1;labelBackgroundColor=none;sketch=1;curveFitting=1;jiggle=2;fontFamily=Comic Sans MS;fontStyle=1" vertex="1" parent="1aUbFaMfwsQ-ZgUfkjfb-1">
          <mxGeometry x="25" y="299" width="220" height="40" as="geometry" />
        </mxCell>
        <mxCell id="1aUbFaMfwsQ-ZgUfkjfb-8" value="" style="edgeStyle=orthogonalEdgeStyle;rounded=1;orthogonalLoop=1;jettySize=auto;html=1;fontColor=default;labelBackgroundColor=none;sketch=1;curveFitting=1;jiggle=2;fontFamily=Comic Sans MS;fontStyle=1" edge="1" parent="1aUbFaMfwsQ-ZgUfkjfb-1" source="1aUbFaMfwsQ-ZgUfkjfb-9" target="1aUbFaMfwsQ-ZgUfkjfb-10">
          <mxGeometry relative="1" as="geometry" />
        </mxCell>
        <mxCell id="1aUbFaMfwsQ-ZgUfkjfb-9" value="配置纹理对象参数gl.texParameteri(target,pname,parm)" style="rounded=1;whiteSpace=wrap;html=1;labelBackgroundColor=none;sketch=1;curveFitting=1;jiggle=2;fontFamily=Comic Sans MS;fontStyle=1" vertex="1" parent="1aUbFaMfwsQ-ZgUfkjfb-1">
          <mxGeometry x="25" y="363" width="220" height="40" as="geometry" />
        </mxCell>
        <mxCell id="1aUbFaMfwsQ-ZgUfkjfb-10" value="将图像分配给纹理图像gl.textImage2D" style="rounded=1;whiteSpace=wrap;html=1;labelBackgroundColor=none;sketch=1;curveFitting=1;jiggle=2;fontFamily=Comic Sans MS;fontStyle=1" vertex="1" parent="1aUbFaMfwsQ-ZgUfkjfb-1">
          <mxGeometry x="25" y="432" width="220" height="40" as="geometry" />
        </mxCell>
        <mxCell id="1aUbFaMfwsQ-ZgUfkjfb-11" value="获取u_Sampler的存储地址" style="whiteSpace=wrap;html=1;rounded=1;labelBackgroundColor=none;sketch=1;curveFitting=1;jiggle=2;fontFamily=Comic Sans MS;fontStyle=1" vertex="1" parent="1aUbFaMfwsQ-ZgUfkjfb-1">
          <mxGeometry x="25" y="166" width="220" height="40" as="geometry" />
        </mxCell>
        <mxCell id="1aUbFaMfwsQ-ZgUfkjfb-12" value="创建纹理对象gl.createTexture()" style="whiteSpace=wrap;html=1;rounded=1;labelBackgroundColor=none;sketch=1;curveFitting=1;jiggle=2;fontFamily=Comic Sans MS;fontStyle=1" vertex="1" parent="1aUbFaMfwsQ-ZgUfkjfb-1">
          <mxGeometry x="25" y="231.5" width="223" height="43" as="geometry" />
        </mxCell>
        <mxCell id="1aUbFaMfwsQ-ZgUfkjfb-13" value="获取纹理坐标" style="swimlane;rounded=1;labelBackgroundColor=none;sketch=1;curveFitting=1;jiggle=2;fontFamily=Comic Sans MS;fontStyle=1" vertex="1" parent="1">
          <mxGeometry x="80" y="220" width="270" height="280" as="geometry" />
        </mxCell>
        <mxCell id="1aUbFaMfwsQ-ZgUfkjfb-14" style="edgeStyle=orthogonalEdgeStyle;rounded=1;orthogonalLoop=1;jettySize=auto;html=1;entryX=0.488;entryY=0;entryDx=0;entryDy=0;entryPerimeter=0;fontColor=default;labelBackgroundColor=none;sketch=1;curveFitting=1;jiggle=2;fontFamily=Comic Sans MS;fontStyle=1" edge="1" parent="1aUbFaMfwsQ-ZgUfkjfb-13" source="1aUbFaMfwsQ-ZgUfkjfb-15" target="1aUbFaMfwsQ-ZgUfkjfb-16">
          <mxGeometry relative="1" as="geometry" />
        </mxCell>
        <mxCell id="1aUbFaMfwsQ-ZgUfkjfb-15" value="定义或导入纹理坐标" style="rounded=1;whiteSpace=wrap;html=1;labelBackgroundColor=none;sketch=1;curveFitting=1;jiggle=2;fontFamily=Comic Sans MS;fontStyle=1" vertex="1" parent="1aUbFaMfwsQ-ZgUfkjfb-13">
          <mxGeometry x="30" y="40" width="210" height="50" as="geometry" />
        </mxCell>
        <mxCell id="1aUbFaMfwsQ-ZgUfkjfb-16" value="将点纹理坐标存入缓存区中" style="rounded=1;whiteSpace=wrap;html=1;labelBackgroundColor=none;sketch=1;curveFitting=1;jiggle=2;fontFamily=Comic Sans MS;fontStyle=1" vertex="1" parent="1aUbFaMfwsQ-ZgUfkjfb-13">
          <mxGeometry x="30" y="120" width="215" height="50" as="geometry" />
        </mxCell>
        <mxCell id="1aUbFaMfwsQ-ZgUfkjfb-17" value="从缓存取中取出纹理坐标" style="rounded=1;whiteSpace=wrap;html=1;labelBackgroundColor=none;sketch=1;curveFitting=1;jiggle=2;fontFamily=Comic Sans MS;fontStyle=1" vertex="1" parent="1aUbFaMfwsQ-ZgUfkjfb-13">
          <mxGeometry x="30" y="194" width="210" height="46" as="geometry" />
        </mxCell>
        <mxCell id="1aUbFaMfwsQ-ZgUfkjfb-18" style="edgeStyle=orthogonalEdgeStyle;rounded=1;orthogonalLoop=1;jettySize=auto;html=1;entryX=0;entryY=0.5;entryDx=0;entryDy=0;fontColor=default;labelBackgroundColor=none;sketch=1;curveFitting=1;jiggle=2;fontFamily=Comic Sans MS;fontStyle=1" edge="1" parent="1" source="1aUbFaMfwsQ-ZgUfkjfb-32" target="1aUbFaMfwsQ-ZgUfkjfb-3">
          <mxGeometry relative="1" as="geometry" />
        </mxCell>
        <mxCell id="1aUbFaMfwsQ-ZgUfkjfb-19" value="图像加载完成后" style="edgeLabel;html=1;align=center;verticalAlign=middle;resizable=0;points=[];rotation=90;rounded=1;labelBackgroundColor=none;sketch=1;curveFitting=1;jiggle=2;fontFamily=Comic Sans MS;fontStyle=1" vertex="1" connectable="0" parent="1aUbFaMfwsQ-ZgUfkjfb-18">
          <mxGeometry x="-0.0698" y="-3" relative="1" as="geometry">
            <mxPoint as="offset" />
          </mxGeometry>
        </mxCell>
        <mxCell id="1aUbFaMfwsQ-ZgUfkjfb-20" value="将处理结果传递到着色器" style="swimlane;rounded=1;labelBackgroundColor=none;sketch=1;curveFitting=1;jiggle=2;fontFamily=Comic Sans MS;fontStyle=1" vertex="1" parent="1">
          <mxGeometry x="527" y="497" width="290" height="260" as="geometry" />
        </mxCell>
        <mxCell id="1aUbFaMfwsQ-ZgUfkjfb-21" value="" style="edgeStyle=orthogonalEdgeStyle;rounded=1;orthogonalLoop=1;jettySize=auto;html=1;fontColor=default;entryX=0.5;entryY=0;entryDx=0;entryDy=0;labelBackgroundColor=none;sketch=1;curveFitting=1;jiggle=2;fontFamily=Comic Sans MS;fontStyle=1" edge="1" parent="1aUbFaMfwsQ-ZgUfkjfb-20" source="1aUbFaMfwsQ-ZgUfkjfb-22" target="1aUbFaMfwsQ-ZgUfkjfb-24">
          <mxGeometry relative="1" as="geometry" />
        </mxCell>
        <mxCell id="1aUbFaMfwsQ-ZgUfkjfb-22" value="将纹理单元传递给片元着色器sampler2D" style="rounded=1;whiteSpace=wrap;html=1;labelBackgroundColor=none;sketch=1;curveFitting=1;jiggle=2;fontFamily=Comic Sans MS;fontStyle=1" vertex="1" parent="1aUbFaMfwsQ-ZgUfkjfb-20">
          <mxGeometry x="10" y="50" width="270" height="40" as="geometry" />
        </mxCell>
        <mxCell id="1aUbFaMfwsQ-ZgUfkjfb-23" value="" style="edgeStyle=orthogonalEdgeStyle;rounded=1;orthogonalLoop=1;jettySize=auto;html=1;fontColor=default;labelBackgroundColor=none;sketch=1;curveFitting=1;jiggle=2;fontFamily=Comic Sans MS;fontStyle=1" edge="1" parent="1aUbFaMfwsQ-ZgUfkjfb-20" source="1aUbFaMfwsQ-ZgUfkjfb-24" target="1aUbFaMfwsQ-ZgUfkjfb-25">
          <mxGeometry relative="1" as="geometry" />
        </mxCell>
        <mxCell id="1aUbFaMfwsQ-ZgUfkjfb-24" value="从顶点着色器向片元着色其传递纹理坐标varying" style="rounded=1;whiteSpace=wrap;html=1;labelBackgroundColor=none;sketch=1;curveFitting=1;jiggle=2;fontFamily=Comic Sans MS;fontStyle=1" vertex="1" parent="1aUbFaMfwsQ-ZgUfkjfb-20">
          <mxGeometry x="10" y="120" width="270" height="40" as="geometry" />
        </mxCell>
        <mxCell id="1aUbFaMfwsQ-ZgUfkjfb-25" value="在片元着色器中获取纹理像素texture2D()" style="rounded=1;whiteSpace=wrap;html=1;labelBackgroundColor=none;sketch=1;curveFitting=1;jiggle=2;fontFamily=Comic Sans MS;fontStyle=1" vertex="1" parent="1aUbFaMfwsQ-ZgUfkjfb-20">
          <mxGeometry x="10" y="190" width="270" height="40" as="geometry" />
        </mxCell>
        <mxCell id="1aUbFaMfwsQ-ZgUfkjfb-26" value="开局" style="swimlane;rounded=1;labelBackgroundColor=none;sketch=1;curveFitting=1;jiggle=2;fontFamily=Comic Sans MS;fontStyle=1" vertex="1" parent="1">
          <mxGeometry x="325" y="10" width="335" height="170" as="geometry" />
        </mxCell>
        <mxCell id="1aUbFaMfwsQ-ZgUfkjfb-27" value="" style="edgeStyle=orthogonalEdgeStyle;rounded=1;orthogonalLoop=1;jettySize=auto;html=1;fontColor=default;labelBackgroundColor=none;sketch=1;curveFitting=1;jiggle=2;fontFamily=Comic Sans MS;fontStyle=1" edge="1" parent="1aUbFaMfwsQ-ZgUfkjfb-26" source="1aUbFaMfwsQ-ZgUfkjfb-28" target="1aUbFaMfwsQ-ZgUfkjfb-29">
          <mxGeometry relative="1" as="geometry" />
        </mxCell>
        <mxCell id="1aUbFaMfwsQ-ZgUfkjfb-28" value="在顶点着色器中定义纹理坐标变量attribute uv" style="rounded=1;whiteSpace=wrap;html=1;labelBackgroundColor=none;sketch=1;curveFitting=1;jiggle=2;fontFamily=Comic Sans MS;fontStyle=1" vertex="1" parent="1aUbFaMfwsQ-ZgUfkjfb-26">
          <mxGeometry x="18.75" y="40" width="297.5" height="40" as="geometry" />
        </mxCell>
        <mxCell id="1aUbFaMfwsQ-ZgUfkjfb-29" value="在片元着色中定义顶点纹理坐标变量和纹理单元变量" style="rounded=1;whiteSpace=wrap;html=1;labelBackgroundColor=none;sketch=1;curveFitting=1;jiggle=2;fontFamily=Comic Sans MS;fontStyle=1" vertex="1" parent="1aUbFaMfwsQ-ZgUfkjfb-26">
          <mxGeometry x="20" y="100" width="295" height="40" as="geometry" />
        </mxCell>
        <mxCell id="1aUbFaMfwsQ-ZgUfkjfb-30" style="edgeStyle=orthogonalEdgeStyle;rounded=1;orthogonalLoop=1;jettySize=auto;html=1;fontColor=default;labelBackgroundColor=none;sketch=1;curveFitting=1;jiggle=2;fontFamily=Comic Sans MS;fontStyle=1" edge="1" parent="1" source="1aUbFaMfwsQ-ZgUfkjfb-16">
          <mxGeometry relative="1" as="geometry">
            <mxPoint x="217.5" y="410" as="targetPoint" />
          </mxGeometry>
        </mxCell>
        <mxCell id="1aUbFaMfwsQ-ZgUfkjfb-31" style="edgeStyle=orthogonalEdgeStyle;rounded=1;orthogonalLoop=1;jettySize=auto;html=1;entryX=0;entryY=0.5;entryDx=0;entryDy=0;fontColor=default;labelBackgroundColor=none;sketch=1;curveFitting=1;jiggle=2;fontFamily=Comic Sans MS;fontStyle=1" edge="1" parent="1" source="1aUbFaMfwsQ-ZgUfkjfb-29" target="1aUbFaMfwsQ-ZgUfkjfb-15">
          <mxGeometry relative="1" as="geometry">
            <Array as="points">
              <mxPoint x="50" y="130" />
              <mxPoint x="50" y="285" />
            </Array>
          </mxGeometry>
        </mxCell>
        <mxCell id="1aUbFaMfwsQ-ZgUfkjfb-32" value="加载纹理图像" style="whiteSpace=wrap;html=1;rounded=1;labelBackgroundColor=none;sketch=1;curveFitting=1;jiggle=2;fontFamily=Comic Sans MS;fontStyle=1" vertex="1" parent="1">
          <mxGeometry x="470" y="330" width="230" height="40" as="geometry" />
        </mxCell>
        <mxCell id="1aUbFaMfwsQ-ZgUfkjfb-33" style="edgeStyle=orthogonalEdgeStyle;rounded=1;orthogonalLoop=1;jettySize=auto;html=1;fontColor=default;labelBackgroundColor=none;sketch=1;curveFitting=1;jiggle=2;fontFamily=Comic Sans MS;fontStyle=1" edge="1" parent="1" source="1aUbFaMfwsQ-ZgUfkjfb-11">
          <mxGeometry relative="1" as="geometry">
            <mxPoint x="1075" y="340.33333333333337" as="targetPoint" />
          </mxGeometry>
        </mxCell>
        <mxCell id="1aUbFaMfwsQ-ZgUfkjfb-34" style="edgeStyle=orthogonalEdgeStyle;rounded=1;orthogonalLoop=1;jettySize=auto;html=1;fontColor=default;labelBackgroundColor=none;sketch=1;curveFitting=1;jiggle=2;fontFamily=Comic Sans MS;fontStyle=1" edge="1" parent="1" source="1aUbFaMfwsQ-ZgUfkjfb-12">
          <mxGeometry relative="1" as="geometry">
            <mxPoint x="1076.5" y="407.5333455403646" as="targetPoint" />
          </mxGeometry>
        </mxCell>
        <mxCell id="1aUbFaMfwsQ-ZgUfkjfb-35" style="edgeStyle=orthogonalEdgeStyle;rounded=1;orthogonalLoop=1;jettySize=auto;html=1;entryX=0;entryY=0.5;entryDx=0;entryDy=0;fontColor=default;labelBackgroundColor=none;sketch=1;curveFitting=1;jiggle=2;fontFamily=Comic Sans MS;fontStyle=1" edge="1" parent="1" source="1aUbFaMfwsQ-ZgUfkjfb-17" target="1aUbFaMfwsQ-ZgUfkjfb-32">
          <mxGeometry relative="1" as="geometry" />
        </mxCell>
        <mxCell id="1aUbFaMfwsQ-ZgUfkjfb-36" style="edgeStyle=orthogonalEdgeStyle;rounded=1;orthogonalLoop=1;jettySize=auto;html=1;entryX=1;entryY=0.25;entryDx=0;entryDy=0;fontColor=default;labelBackgroundColor=none;sketch=1;curveFitting=1;jiggle=2;fontFamily=Comic Sans MS;fontStyle=1" edge="1" parent="1" source="1aUbFaMfwsQ-ZgUfkjfb-10" target="1aUbFaMfwsQ-ZgUfkjfb-20">
          <mxGeometry relative="1" as="geometry" />
        </mxCell>
        <mxCell id="1aUbFaMfwsQ-ZgUfkjfb-37" value="&lt;font style=&quot;font-size: 15px&quot;&gt;传递纹理坐标给顶点着色器，顶点着色器传递给片段着色器（也可以直接在片段着色器弄），然后再片段着色器定义一个sample2D类型的全局变量来引入一个纹理，接着调用texture2D方法，在纹理上找到对应的颜色赋给gl_FragColor&lt;br&gt;&lt;/font&gt;" style="text;html=1;strokeColor=none;fillColor=none;align=left;verticalAlign=middle;whiteSpace=wrap;rounded=0;labelBackgroundColor=none;sketch=1;curveFitting=1;jiggle=2;fontFamily=Comic Sans MS;fontStyle=1" vertex="1" parent="1">
          <mxGeometry x="84" y="547" width="322" height="106" as="geometry" />
        </mxCell>
      </root>
    </mxGraphModel>
  </diagram>
</mxfile>
